<?xml version="1.0" encoding="utf-8"?>
<!-- Generator: Adobe Illustrator 18.1.1, SVG Export Plug-In . SVG Version: 6.00 Build 0)  -->
<!DOCTYPE svg PUBLIC "-//W3C//DTD SVG 1.1//EN" "http://www.w3.org/Graphics/SVG/1.1/DTD/svg11.dtd">
<svg version="1.1" id="Layer_1" xmlns="http://www.w3.org/2000/svg" xmlns:xlink="http://www.w3.org/1999/xlink" x="0px" y="0px"
	 viewBox="0 0 300 400" enable-background="new 0 0 300 400" xml:space="preserve">
<g>
	<defs>
		
			<rect id="SVGID_1_" x="-44.1" y="-40.9" transform="matrix(-0.9799 0.1997 -0.1997 -0.9799 395.5691 328.7527)" width="450.5" height="450.5"/>
	</defs>
	<clipPath id="SVGID_2_">
		<use xlink:href="#SVGID_1_"  overflow="visible"/>
	</clipPath>
	<path clip-path="url(#SVGID_2_)" fill-rule="evenodd" clip-rule="evenodd" fill="#E6E7E8" d="M106.2,259.4c0,0-8.8,13.3-6.1,31.8
		c2.7,18.5,43.9,76.1,43.9,76.1l38.1-49.9c0,0-29.4-11.3-36.8-22.8c-7.4-11.5-9.8-21.2-4.3-28.4c5.6-7.1,19.8,2.3,25.5-5.6
		c5.7-7.9,15.6-25.9,5.5-33.9c-10.1-8-18.7-9.1-12.6-25.8c6.1-16.6,5.6-16.4,4.4-19.9c-1.2-3.5-8.1-6.2-9.2-9.9
		c-1.1-3.8,0.4-5.7-2.2-7.7c-1.5-1.1-4.5-3-4.5-3L197.5,85c0,0,1.6-2.2-1-4.1c-2.6-1.9-3.9-2.6-3.9-2.6L141.5,156l-3-2L221,29.3
		l-14.2-9.4L124,145.2c0,0-2.2-0.8-3.1,0.6c-0.9,1.4-39.6,59.8-39.6,59.8s-4.2,8,2.4,20c6.6,12,19.3,15.8,19.3,15.8
		s-3.2,5.1-2.3,9.6C101.6,255.6,106.2,259.4,106.2,259.4"/>
	<path clip-path="url(#SVGID_2_)" fill="#231F20" d="M106.6,259.7c-2.5,4.3-4.1,9.1-5.1,14c-1,4.9-1.2,9.9-0.7,14.8
		c0.1,1.2,0.3,2.5,0.6,3.6c0.3,1.2,0.6,2.3,1,3.5c0.8,2.3,1.9,4.6,2.9,6.8c2.2,4.5,4.6,8.9,7.2,13.2c5.1,8.6,10.7,17.1,16.3,25.4
		c5.7,8.3,11.5,16.5,17.5,24.6l-4.9-0.1l39.5-48.9l0.6,2.1c-4.3-1.7-8.5-3.6-12.7-5.7c-4.1-2.1-8.2-4.3-12.2-6.8
		c-3.9-2.5-7.8-5.3-10.9-8.9c-0.4-0.5-0.8-0.9-1.1-1.4c-0.2-0.2-0.3-0.5-0.5-0.8l-0.5-0.7c-0.6-1-1.2-2-1.8-3
		c-1.1-2-2.2-4.1-3.1-6.3c-0.9-2.2-1.5-4.5-1.9-6.9c-0.3-2.4-0.3-4.9,0.4-7.3c0.3-1.2,0.8-2.3,1.4-3.4c0.3-0.5,0.6-1.1,1-1.5
		l0.3-0.4l0.3-0.4c0.2-0.3,0.5-0.5,0.7-0.7c1-0.9,2.2-1.5,3.5-1.8c1.2-0.3,2.5-0.4,3.7-0.4c2.4,0,4.7,0.3,7,0.5
		c2.2,0.2,4.5,0.3,6.5-0.2c1-0.2,1.9-0.7,2.7-1.3c0.4-0.3,0.7-0.7,1.1-1.1c0.1-0.2,0.3-0.4,0.5-0.7l0.5-0.7c1.3-1.9,2.5-3.8,3.6-5.8
		c2.2-4,4-8.1,4.9-12.5c0.4-2.2,0.6-4.4,0.3-6.5c-0.3-2.1-1.2-4.1-2.6-5.7c-0.4-0.4-0.8-0.7-1.2-1.1l-1.3-1c-0.9-0.7-1.8-1.3-2.8-2
		c-1.9-1.3-3.8-2.6-5.6-4.1c-1.8-1.5-3.5-3.3-4.4-5.7c-0.9-2.3-0.8-4.9-0.5-7.2c0.4-2.3,1.1-4.6,1.9-6.8l2.4-6.5
		c0.8-2.2,1.5-4.3,2.1-6.5c0.3-1.1,0.6-2.2,0.6-3.2c0.1-1-0.3-2-0.7-3.1c-0.3-1-1-1.8-1.8-2.5c-0.8-0.8-1.7-1.5-2.6-2.2
		s-1.8-1.4-2.7-2.3c-0.8-0.8-1.7-1.8-2.1-3.1c-0.3-1.2-0.5-2.4-0.5-3.5c0-1.2,0-2.2-0.6-3c-0.5-0.8-1.6-1.4-2.5-2
		c-0.9-0.6-1.9-1.3-2.9-1.9l0,0l-0.5-0.3l0.3-0.5c4.4-7,8.9-14,13.4-21l13.5-20.9l13.6-20.8l6.8-10.4l1.7-2.6
		c0.1-0.2,0.2-0.5,0.3-0.8c0-0.3-0.1-0.5-0.2-0.8c-0.2-0.3-0.4-0.6-0.7-0.8l-1.2-1c-0.8-0.7-1.6-1.3-2.3-2l0,0l0.7-0.2l-51.1,77.7
		l-0.3,0.4l-0.4-0.3l-3-2l0,0l-0.4-0.3l0.3-0.4l81.3-125.6l0,0l0.6,2.8l-13.7-10.1l1.5-0.3l-83.3,124.9l-0.2,0.3l-0.4-0.1l0,0
		c-0.6-0.2-1.4-0.3-1.9,0c-0.3,0.1-0.5,0.3-0.6,0.6l-0.6,1l-2.6,3.9l-5.1,7.9l-10.3,15.7l-20.5,31.5l0-0.1c-0.3,0.7-0.6,1.6-0.8,2.5
		c-0.2,0.9-0.3,1.8-0.3,2.7c-0.1,1.8,0.1,3.7,0.5,5.5c0.8,3.6,2.3,7.1,4.4,10.2c2.1,3.1,4.7,5.8,7.7,8c3,2.2,6.4,4,9.8,5.2l1.6,0.5
		l-0.9,1.5l0,0c-0.8,1.3-1.6,2.8-2,4.2c-0.5,1.5-0.7,3.1-0.5,4.5c0.2,1.5,0.9,3,1.8,4.4c0.9,1.4,1.9,2.7,3.1,3.8l0.3,0.3
		L106.6,259.7z M105.5,259.5c-1.2-1-2.3-2.2-3.3-3.5c-1-1.4-2-3-2.4-4.8c-0.5-1.9-0.3-3.8,0.1-5.5c0.4-1.8,1.1-3.4,2-5.1l0,0l0.7,2
		c-2-0.7-3.8-1.5-5.5-2.5c-1.7-1-3.4-2-5-3.3c-3.2-2.4-6-5.4-8.2-8.7c-2.2-3.4-3.8-7.1-4.6-11c-0.4-2-0.5-4-0.4-6c0.1-1,0.2-2,0.4-3
		c0.2-1,0.5-1.9,1-3l0,0l0-0.1l20.9-31.2l10.5-15.6l5.2-7.8l2.6-3.9l0.7-1c0.2-0.4,0.7-0.8,1.1-0.9c0.9-0.4,1.8-0.2,2.7,0l0,0
		l-0.6,0.2l82.3-125.6l0.6-0.9l0.9,0.6l14.7,8.7l1.6,1l-1.1,1.8l0,0l-83.7,123.9l-0.1-0.7l0,0l3,2l-0.7,0.1l51.1-77.7l0.3-0.4
		l0.4,0.2l0,0c1.1,0.3,2,0.8,2.9,1.3c0.5,0.3,0.9,0.5,1.4,0.8c0.5,0.3,1,0.8,1.4,1.4c0.4,0.6,0.7,1.4,0.6,2.1c0,0.8-0.2,1.4-0.7,2.1
		l-1.7,2.6l-6.9,10.4l-13.7,20.7L162.4,140c-4.6,6.9-9.3,13.8-14,20.6l-0.2-0.7l0,0c1,0.6,2,1.2,2.9,1.9c0.5,0.3,1,0.6,1.4,1
		c0.5,0.3,1,0.8,1.4,1.3c0.4,0.5,0.6,1.2,0.7,1.8c0.1,0.6,0.1,1.2,0.1,1.8c0,1.1,0.2,2.2,0.5,3.3c0.3,0.9,1,1.8,1.8,2.6
		c0.8,0.8,1.7,1.5,2.6,2.2c0.9,0.7,1.8,1.4,2.7,2.2c0.8,0.8,1.7,1.8,2.2,3c0.2,0.5,0.4,1.1,0.6,1.7c0.2,0.6,0.2,1.3,0.2,1.9
		c-0.1,1.3-0.3,2.4-0.6,3.5c-0.6,2.2-1.4,4.4-2.1,6.6l-2.3,6.5c-0.8,2.1-1.4,4.3-1.8,6.5c-0.3,2.2-0.3,4.4,0.4,6.4
		c0.7,2,2.3,3.6,4,5c1.7,1.4,3.7,2.6,5.6,4c0.9,0.7,1.9,1.3,2.8,2l1.4,1.1c0.5,0.4,0.9,0.8,1.4,1.2c1.7,1.8,2.8,4.2,3.1,6.6
		c0.4,2.4,0.2,4.8-0.3,7.2c-0.9,4.7-2.8,9-5,13.1c-1.1,2-2.3,4-3.6,6l-0.5,0.7c-0.2,0.2-0.3,0.5-0.5,0.7c-0.4,0.5-0.9,1-1.4,1.4
		c-1,0.8-2.2,1.4-3.4,1.7c-2.5,0.6-4.9,0.5-7.2,0.3c-2.3-0.2-4.6-0.5-6.8-0.5c-2.2,0-4.3,0.4-5.7,1.7c-0.2,0.2-0.3,0.3-0.5,0.5
		l-0.3,0.3l-0.2,0.3c-0.3,0.4-0.6,0.9-0.9,1.3c-0.5,0.9-0.9,1.9-1.2,2.9c-1.1,4.1-0.1,8.6,1.5,12.7c0.8,2.1,1.8,4.1,3,6
		c0.6,1,1.1,1.9,1.7,2.9l0.5,0.7c0.1,0.2,0.3,0.4,0.5,0.7c0.3,0.4,0.7,0.9,1,1.3c2.9,3.3,6.6,5.9,10.4,8.3c7.7,4.8,16,8.7,24.5,12
		l0,0l1.7,0.6c0,0,3.6,2.3,0.2,7c-3.5,4.7-29.6,39.9-33.7,45c-4.1,5.1-6.7,3.8-6.7,3.8l-2.5-3.4c-5.7-8.4-11.2-16.9-16.6-25.5
		c-5.4-8.6-10.6-17.3-15.4-26.3c-2.4-4.5-4.7-9-6.7-13.7c-1-2.4-2-4.7-2.7-7.2c-0.4-1.2-0.7-2.5-1-3.8c-0.2-1.3-0.3-2.6-0.4-3.9
		c-0.3-5.2,0.1-10.4,1.3-15.3C101.1,268.5,102.9,263.8,105.5,259.5"/>
	<path clip-path="url(#SVGID_2_)" fill-rule="evenodd" clip-rule="evenodd" fill="#231F20" d="M60.4,237c0,0,4-4.2,13-2.3
		c9,1.9,10.9-0.6,10.9-0.6s-3.1-2.9-4.7-6.2c-1.6-3.3-1.9-5.5-1.9-5.5s-2.4,4.5-9,5.2C62,228.3,60.4,237,60.4,237"/>
	<path clip-path="url(#SVGID_2_)" fill="#231F20" d="M85,234.1l-0.3,0.4c-0.2,0.3-2.4,2.6-11.4,0.8c-8.5-1.8-12.5,2.1-12.5,2.2
		l-1.2,1.2l0.3-1.7c0-0.1,0.6-3,2.3-5.7c1.7-2.5,3.8-3.9,6.4-4.2c6.3-0.6,8.6-4.8,8.6-4.9l0.7-1.4l0.3,1.5c0,0,0.4,2.1,1.9,5.4
		c1.5,3.2,4.5,6,4.6,6L85,234.1z M61.3,235.7c1.9-1.2,5.8-2.8,12.2-1.5c6.4,1.3,9.1,0.4,10-0.1c-0.9-0.9-3.1-3.3-4.3-5.9
		c-0.9-1.9-1.4-3.5-1.7-4.5c-1.1,1.4-3.8,3.9-8.7,4.4c-2.2,0.2-4.1,1.5-5.6,3.7C62.2,233.2,61.6,234.7,61.3,235.7"/>
	<path clip-path="url(#SVGID_2_)" fill-rule="evenodd" clip-rule="evenodd" fill="#FFFFFF" d="M144.7,235.7c0,0-5.8,12.8,3.7,19.1
		c9.5,6.3,15.1,1.9,19.3-8.6c4.3-10.7,2.9-15.7-5.9-21.1C152.5,219.4,144.7,235.7,144.7,235.7"/>
	<path clip-path="url(#SVGID_2_)" fill="#231F20" d="M146,236.3c-0.6,1.6-1.1,3.5-1.3,5.3c-0.2,1.8-0.2,3.6,0.1,5.3
		c0.3,1.7,1,3.3,2.1,4.6c0.5,0.7,1.2,1.3,1.9,1.8c0.7,0.5,1.5,1.1,2.3,1.5c1.6,0.9,3.3,1.6,5,1.7c1.7,0.1,3.4-0.4,4.9-1.5
		c1.5-1.1,2.7-2.6,3.7-4.2c1-1.6,1.9-3.4,2.7-5.2c0.8-1.8,1.4-3.6,1.9-5.5c0.4-1.9,0.6-3.8,0.3-5.7c-0.3-1.9-1.3-3.6-2.6-5
		c-1.3-1.4-2.9-2.5-4.6-3.5c-0.4-0.3-0.8-0.5-1.3-0.7c-0.4-0.2-0.8-0.4-1.3-0.5c-0.9-0.2-1.8-0.3-2.7-0.2c-1.8,0.3-3.4,1.3-4.7,2.5
		C149.7,229.6,147.6,233,146,236.3 M143.4,235.1c1-1.9,2.1-3.5,3.4-5.1c1.3-1.6,2.7-3.1,4.4-4.4c1.7-1.2,3.6-2.3,5.8-2.4
		c1.1-0.1,2.2,0.1,3.2,0.5c0.5,0.2,1,0.4,1.4,0.7c0.4,0.3,0.9,0.5,1.3,0.8c1.6,1.1,3.2,2.4,4.6,3.9c1.4,1.5,2.4,3.3,2.8,5.3
		c0.4,2,0.2,4.1-0.2,6c-0.4,2-1,3.9-1.7,5.7c-0.7,1.9-1.4,3.7-2.4,5.5c-1,1.8-2.1,3.5-3.8,4.9c-1.6,1.4-3.8,2.3-6,2.3
		c-2.2,0-4.3-0.7-6.2-1.6c-1-0.5-1.8-1-2.7-1.6c-0.9-0.6-1.7-1.3-2.5-2.2c-1.5-1.7-2.5-3.8-3-5.9c-0.5-2.2-0.4-4.3-0.1-6.4
		C141.9,239.1,142.5,237.1,143.4,235.1L143.4,235.1L143.4,235.1z"/>
	<path clip-path="url(#SVGID_2_)" fill-rule="evenodd" clip-rule="evenodd" fill="#231F20" d="M143,244.8l-0.1-3.5
		c0,0,5.7,4.1,9.6,4.7c4.8,0.6,9.2-1.9,10.2,0.2c1.3,2.8-5.8,4.7-10.9,3.7C147.6,249.1,143,244.8,143,244.8"/>
	<path clip-path="url(#SVGID_2_)" fill-rule="evenodd" clip-rule="evenodd" fill="#231F20" d="M90.5,205.8l33.7,22.3
		c0,0-11.2,4.6-22.4-2.7C90.6,218,90.5,205.8,90.5,205.8"/>
	<path clip-path="url(#SVGID_2_)" fill="#231F20" d="M90.8,205.4c3.2,1.2,6.2,2.8,9.2,4.4c3,1.6,5.8,3.4,8.6,5.2
		c2.8,1.8,5.6,3.8,8.2,5.9c2.7,2.1,5.3,4.3,7.6,6.8l0.7,0.7l-0.8,0.2l0,0c-3.8,1.4-7.8,1.7-11.8,1.3c-4-0.5-7.8-1.9-11.1-4.1
		c-3.3-2.2-6.1-5.1-8.1-8.6c-2-3.5-3.2-7.3-3.4-11.4l0-0.8L90.8,205.4z M91.2,207.2c0.4,3.3,1.5,6.6,3.1,9.5
		c1.9,3.3,4.6,6.2,7.8,8.3c3.2,2.1,6.8,3.5,10.6,3.9c3.8,0.4,7.7,0.1,11.3-1.2l0,0l-0.1,0.9c-3.2-1.2-6.2-2.8-9.2-4.4
		c-3-1.6-5.8-3.4-8.6-5.3c-2.8-1.9-5.5-3.8-8.2-5.9C95.6,211.2,93.3,209.3,91.2,207.2"/>
	<path clip-path="url(#SVGID_2_)" fill-rule="evenodd" clip-rule="evenodd" fill="#231F20" d="M93.6,201.1c0,0,8.1,3,17.9,9.5
		c9.8,6.5,15.8,12.8,15.8,12.8l7.3-11.1c0,0-2.1-2.4-0.9-4.4c1.2-2,15.1-23,15.1-23l-11.4-6.7l-14.7,21.6c0,0-2.3,3.7-6.6,0.8
		c-4.3-2.9-1.6-5.8-1.6-5.8l14-22.2l-8.5-6.7l-15,22.8c0,0-1.5,2.3-4.1,1.2L93.6,201.1z"/>
	<path clip-path="url(#SVGID_2_)" fill="#231F20" d="M94.4,200.8c3,1.2,5.8,2.6,8.7,4.1c3,1.6,5.9,3.3,8.8,5.2
		c2.8,1.9,5.6,3.9,8.2,6c2.6,2.1,5.2,4.4,7.6,6.8l-0.8,0.1l7.3-11.1l0,0.6c-0.5-0.6-0.8-1.2-1.1-1.9c-0.3-0.7-0.4-1.5-0.2-2.3
		c0.1-0.4,0.3-0.8,0.5-1.1l0.5-0.9l1.1-1.7l4.4-6.8l8.8-13.5l0.2,0.9l-11.4-6.8l0.7-0.2l0,0l-11.3,16.8l-2.8,4.2
		c-0.2,0.3-0.4,0.7-0.8,1.1c-0.3,0.4-0.7,0.7-1.1,0.9c-0.8,0.5-1.8,0.8-2.8,0.8c-1,0-1.9-0.4-2.7-0.8c-0.4-0.2-0.8-0.5-1.1-0.7
		c-0.4-0.3-0.7-0.6-1-0.9c-0.6-0.7-1.1-1.6-1.2-2.7c0-1,0.3-2,1-2.8l-0.1,0.1l14-22.2l0,0l0.2,0.9l-8.3-6.9l0.8-0.1l-8.8,13.3
		l-4.4,6.7l-1.1,1.7l-0.5,0.8c-0.2,0.3-0.4,0.6-0.7,0.9c-0.5,0.5-1.2,0.9-2,1.1c-0.8,0.2-1.6,0-2.3-0.3l0.6-0.2L94.4,200.8z
		 M92.8,201.3l7.8-11.7l0.3-0.4l0.4,0.2c1.1,0.5,2.3,0.3,3.1-0.6c0.4-0.4,0.7-1,1.1-1.5l1.1-1.7l4.4-6.7l8.8-13.3l0.3-0.5l0.4,0.4
		l0,0l8.6,6.6l0.5,0.4l-0.3,0.6l-14.1,22.2l0,0l0,0.1c-0.4,0.5-0.7,1.2-0.7,1.9c0,0.7,0.3,1.3,0.8,1.9c0.2,0.3,0.5,0.5,0.8,0.8
		c0.3,0.2,0.7,0.5,1,0.7c0.7,0.4,1.4,0.6,2.1,0.7c0.7,0,1.4-0.2,2-0.6c0.3-0.2,0.6-0.4,0.8-0.7c0.2-0.2,0.4-0.6,0.7-1l2.9-4.2
		l11.4-16.7l0,0l0.3-0.4l0.4,0.2l11.5,6.6l0.6,0.3l-0.4,0.6l-8.9,13.4l-4.5,6.7l-1.1,1.7l-0.5,0.8c-0.2,0.3-0.3,0.5-0.4,0.8
		c-0.3,1,0.3,2.3,1.1,3.2l0.3,0.3l-0.2,0.3l-7.3,11.1l-0.4,0.5l-0.5-0.5c-2.3-2.4-4.9-4.6-7.5-6.7c-2.6-2.1-5.3-4.1-8.2-6
		c-2.8-1.9-5.7-3.6-8.7-5.2c-3-1.6-6-3.1-9.1-4.3L92.8,201.3z"/>
	<path clip-path="url(#SVGID_2_)" fill="#B72025" d="M215,24.1c-0.3,0.5-1.5,0.5-1.6-0.1c0-0.2,0.2-0.5,0.5-0.7
		C214.5,22.8,215.5,23.4,215,24.1 M208.7,20.1c0.4,0.3,0.6,0.5,0.3,0.5c-0.3-0.1-0.7-0.3-0.8-0.6C208.1,19.7,208.3,19.7,208.7,20.1
		 M210.2,21.5c0.5,0.3,0.5,0.6,0.2,0.9c-0.4,0.3-0.4,0.6,0,1c0.6,0.7,0.5,1.2-0.3,1.1c-0.3-0.1-0.2,0.1,0.1,0.4
		c0.4,0.3,1.3,0.4,2,0.2c1.4-0.2,2.6,0.2,2.2,0.8c-0.1,0.2-0.4,0.3-0.7,0.3c-0.4,0-0.4,0.2-0.3,0.6c0.1,0.3,0.5,0.5,0.8,0.5
		c0.3,0,1,0.3,1.6,0.7c1,0.7,1,0.8,0.2,0.8c-0.8,0-0.8,0.1-0.5,0.6c0.2,0.3,0.7,0.7,1.1,0.7c0.9,0.2,1.2,1.4,0.6,2.3
		c-0.6,0.9-0.4,2,0.5,2.6c0.5,0.4,0.6,0.6,0.2,0.9c-0.3,0.2-0.3,0.5-0.1,0.7c0.2,0.2-0.1,0.3-0.7,0.2c-0.6-0.1-1.5,0.2-1.9,0.6
		c-0.5,0.5-1,0.6-1.4,0.2c-0.5-0.3-0.5-0.6-0.1-1c0.3-0.3,0.6-0.8,0.6-1.2c0-0.4,0.2-0.6,0.6-0.6c0.4,0,0.3-0.1-0.1-0.3
		c-0.4-0.2-0.7-0.2-0.7,0c0,0.2-0.4,0.3-0.8,0.3c-1-0.1-2,1.4-1.4,2.2c0.3,0.5,0.3,0.6-0.2,0.6c-0.4,0-0.3,0.1,0.4,0.4
		c0.9,0.4,1,0.5,0.5,1.3c-0.3,0.5-0.9,0.8-1.3,0.8c-0.4,0-0.7,0-0.5,0.2c0.2,0.1,0,0.3-0.4,0.4c-0.5,0.2-0.6,0.3-0.3,0.8
		c0.4,0.6-0.1,1.7-0.6,1.4c-0.2-0.1-0.4-0.6-0.5-1.1c-0.2-0.8-0.2-0.9-0.7-0.5c-0.3,0.2-0.8,0.2-1.2,0c-1-0.7-1,0.4-0.1,1.6l0.8,1
		l-1.6-0.5c-0.9-0.3-1.7-0.7-1.8-1c-0.3-0.6-0.2,1.2,0.1,2.2c0.2,0.7,0.1,0.7-0.3,0.4c-0.3-0.2-0.6-0.2-0.8,0
		c-0.1,0.2,0.1,0.5,0.4,0.7c0.3,0.2,0.5,0.6,0.3,0.9c-0.2,0.3-0.5,0.4-0.8,0.2c-0.3-0.2-0.5-0.2-0.4,0c0.1,0.6,1.7,0.8,1.9,0.2
		c0.2-0.8,0.8-0.3,1.2,0.9c0.3,0.9,0.3,0.9-0.6,0.3c-0.9-0.6-1.5-0.2-1.3,1c0.1,0.5,0,0.6-0.6,0.2c-0.4-0.3-0.6-0.8-0.5-1.2
		c0.2-0.6,0.2-0.7-0.2-0.1c-0.2,0.3-0.2,0.9,0,1.4c0.7,1.3-1,2.2-2.5,1.2c-0.5-0.3-0.8-0.3-0.9,0.1c-0.1,0.3,0.1,0.8,0.5,1.1
		c0.8,0.6,0.4,1.1-0.7,1c-0.7-0.1-0.8-0.2-0.5-0.4c0.2-0.2,0.2-0.5,0.1-0.7c-0.4-0.5-1.1,0.7-0.8,1.3c0.1,0.3,0,0.4-0.3,0.2
		c-0.4-0.2-0.4-0.1-0.2,0.5c0.2,0.4,0.1,1.2-0.1,1.8c-0.2,0.5-0.2,1.4,0,1.9c0.2,0.6,0.1,1.3-0.3,2c-0.5,0.8-0.5,1.3-0.1,2
		c0.3,0.5,0.5,1.8,0.4,2.7l-0.2,1.8l-0.9-0.1c-1.1-0.1-2-1.2-2.2-2.6c-0.1-0.9,0-1.1,0.5-1.1c0.4,0,0.4-0.1-0.1-0.2
		c-0.4-0.1-0.8-0.4-0.9-0.7c-0.1-0.3-0.4-0.6-0.5-0.7c-0.2-0.1-0.3-0.4-0.2-0.7c0.1-0.9-0.2-1.9-0.9-2.3c-0.4-0.3-0.7-0.3-0.7,0
		c0,0.2-0.3,0.4-0.5,0.3c-0.3,0-0.2,0,0.2,0.2c0.9,0.3,1.7,2.8,1.2,3.7c-0.3,0.4-0.1,0.7,0.5,0.9c0.5,0.2,0.6,0.3,0.3,0.2
		c-0.3,0-0.7,0.1-0.8,0.4c-0.2,0.3-0.5,0.4-0.7,0.2c-0.2-0.1-0.2,0.3,0,0.9c0.2,0.7,0.5,1.2,0.7,1.2c0.2,0-0.1,0.4-0.5,0.8
		c-1.1,1-1.2,1.7-0.3,2c0.6,0.2,0.7,0.4,0.3,0.6c-0.2,0.2-0.7,0.1-1.1-0.2c-0.3-0.3-0.8-0.4-1.1-0.1c-0.4,0.3-0.3,0.4,0.2,0.6
		c0.7,0.2,0.7,0.2-0.7,1.2c-0.8,0.5-1.7,0.8-1.9,0.7c-0.3-0.2-0.3-0.1-0.1,0.2c0.2,0.2,0.2,0.6,0.1,0.7c-0.3,0.4-2.5,1-2.9,0.7
		c-0.2-0.1-0.5,0-0.8,0.3c-0.3,0.4-0.2,0.6,0.3,0.8c0.5,0.2,0.7,0.5,0.5,1.1c-0.2,0.5,0,1,0.3,1.3c0.4,0.3,0.5,0.7,0.2,1.1
		c-0.3,0.5-0.6,0.6-0.9,0.1c-0.4-0.5-0.4-0.5-0.2,0.5c0.1,0.8,0.1,1-0.3,0.8c-0.3-0.2-0.4,0-0.1,0.6c0.2,0.5,0.2,0.8,0,0.7
		c-0.2-0.1-0.5,0.1-0.6,0.5c-0.2,0.5-0.5,0.7-1.1,0.4c-1.1-0.4-1.2-0.9-0.3-0.9c0.7,0,0.5-0.3-0.7-1c-0.6-0.4-0.7-0.6-0.3-0.9
		c0.4-0.3,0.4-0.6,0-1.1c-0.4-0.4-0.4-0.9,0-1.4c0.5-0.8,1-0.8,1.1-0.1c0,0.2-0.2,0.5-0.6,0.6c-0.4,0.1-0.5,0.3-0.3,0.4
		c0.4,0.2,1.2-0.3,1.7-1.1c0.4-0.7-1.1-1.7-2.3-1.4c-0.9,0.2-1.2,0.6-2.5,3c-0.8,1.5-1.7,3.1-2,3.5c-0.3,0.4-0.8,1.1-1.2,1.7
		c-0.4,0.6-0.9,0.9-1.1,0.8c-0.4-0.3-0.3-0.8,0.2-1.4c0.1-0.1,0-0.4-0.3-0.6c-0.3-0.2-0.4-0.5-0.3-0.7c0.1-0.2,0.4-0.2,0.5-0.1
		c0.4,0.3,1.7-1.7,1.7-2.5c0-0.3-0.3-1-0.5-1.7c-0.4-1-0.4-1.4,0.4-2.6c0.5-0.8,1.3-1.6,1.8-1.7c1.2-0.4,1.3-0.7,0.5-1.5
		c-0.4-0.3-0.5-0.8-0.3-1c0.2-0.2,0.1-0.5-0.2-0.7c-0.3-0.2,0.9,0.5,0.8,0.8c0,0.2-0.4,0.5-0.8,0.5c-0.6,0.1-0.7,0.2-0.5,0.7
		c0.2,0.5,0.1,0.6-0.3,0.5c-0.3-0.1-0.5,0.1-0.5,0.3c0,0.2-0.3,0.3-0.6,0c-0.6-0.4-1.2-2.1-0.9-2.6c0.4-0.6,1.8-0.7,2.2-0.1
		c0.2,0.3-0.9-0.4-0.7-0.7c0.3-0.5,0.4-0.5,1.6,0.2c1.1,0.6,1.6,0.4,1.3-0.4c-0.2-0.6-0.2-0.6,0.3-0.3c0.3,0.2,0.8,0.2,1,0
		c0.4-0.3,0.7-0.1,1.2,0.4c0.4,0.4,0.8,0.7,1.1,0.5c0.2-0.1,0.1-0.3-0.3-0.5c-0.4-0.1-0.7-0.5-0.7-0.8c0-0.3,0.4-0.3,1,0.2
		c1.1,0.8,1.7,0.3,1.1-1c-0.2-0.5-0.2-1.2,0.2-1.8c0.5-0.7,0.4-0.9-0.2-1.2c-0.4-0.2-0.8-0.5-0.8-0.7c0-0.2-0.3-0.5-0.7-0.6
		c-0.4-0.1-0.5-0.2-0.2-0.3c0.6-0.1,2.8-2,3.4-2.8c0.2-0.3,0-0.8-0.3-1.2c-0.6-0.6-0.6-0.6,0.6-0.4l1.2,0.2l-0.4-1.2
		c-0.3-0.9-0.3-1.2,0.2-1.3c0.7-0.2,1.3,0.7,0.6,1c-0.2,0.1-0.1,0.3,0.3,0.5c1,0.4,1.8-0.6,1-1.2c-0.4-0.2-0.6-0.7-0.5-1
		c0.1-0.4,0-0.5-0.6-0.4c-0.8,0.1-1.4-0.2-0.9-0.4c0.2-0.1,0.2-0.4,0-0.7c-0.2-0.3,0.1-0.2-0.2,0.2c-0.3,0.3-0.8,0.4-1.1,0.2
		c-0.7-0.5-0.4-0.7,0.9-0.9c1.2-0.2,1.3,0.1,1,0.6c-0.1,0.2-0.1,0.4,0.1,0.6c0.5,0.3,1-0.7,0.6-1.2c-0.4-0.6,0.7-1.8,1.3-1.4
		c0.2,0.2,0.6,0.2,0.8,0.1c0.2-0.1,0.2-0.3-0.1-0.3c-0.4-0.1-0.4-0.4-0.1-1.1c0.4-0.7,0.6-0.8,0.9-0.4c0.4,0.6,2,0.3,2-0.5
		c0-0.2-0.2-0.3-0.5-0.2c-0.7,0.3-1.7-1-1.3-1.7c0.2-0.3,0.6-0.3,1,0c0.4,0.3,0.7,0.3,0.6,0.1c0-0.2,0.2-0.5,0.6-0.6
		c0.4-0.1,0.6-0.4,0.6-0.6c0-0.2-0.2-0.2-0.3,0c-0.1,0.2-0.5,0.2-0.7,0.1c-1-0.7,0.8-1.6,2-1.1c0.6,0.3,0.7,0.2,0.5-0.5
		c-0.2-0.6-0.4-0.8-1.1-0.6c-0.5,0.1-0.9,0-1-0.3c-0.3-0.6,0.1-1.1,0.6-0.8c0.2,0.2,1,0.2,1.6,0.1c0.6-0.1,1.1-0.2,0.9-0.3
		c-0.1-0.1,0.3-0.3,0.9-0.4c0.9-0.2,1.1-0.4,1.1-0.9c0-0.4-0.4-0.8-0.7-0.9c-0.6-0.1-0.6-0.1-0.2,0.5c0.4,0.5,0.2,0.6-1,0.2
		c-1.4-0.5-2.3-1.4-1.1-1c0.3,0.1,0.7-0.2,0.9-0.6c0.4-0.6,0.3-0.7-0.3-0.6c-0.9,0.1-1.5,1-1.6,2.3c-0.1,0.6-0.3,1-0.7,1.1
		c-0.3,0.1-0.7,0.6-0.9,1.1c-0.2,0.7-0.4,0.8-1.1,0.3c-0.6-0.4,2-3.8,2.4-4.3c0.5-0.7,1.3-1.9,2.7-3.1c0.4,0.3,0.6,0,0.5-0.3
		c-0.2-0.3,0-0.5,0.8-0.6c0.6-0.1,1.2-0.5,1.4-0.7c0.2-0.3,0.5-0.4,0.6-0.3c0.2,0.1,0.5,0,0.6-0.3c0.2-0.3,0.1-0.6-0.1-0.8
		c-0.3-0.2-0.2-0.3,0.3-0.4c0.5-0.1,0.7,0,0.7,0.5c0,0.5,0.1,0.6,0.7,0.4c0.6-0.2,0.7-0.3,0.2-0.6c-0.3-0.2-0.4-0.6-0.1-1
		c0.2-0.4,0.6-0.5,0.9-0.4c1.1,0.8,1.8-1.1,0.8-1.9c-0.2-0.1,0.2-0.2,0.7-0.1c0.6,0.1,1.3-0.2,1.7-0.7c0.6-0.7,0.6-1,0-1.6
		c-0.4-0.4-0.9-0.8-1.1-0.7c-0.2,0-0.1,0.4,0.2,0.8c0.6,0.7,0.5,1.5-0.2,1c-0.9-0.7-1.6-1.7-1.3-2.2c0.2-0.3,0.5-0.3,0.7-0.2
		c0.2,0.2,0.3-0.1,0.1-0.7c-0.2-0.5-0.2-0.9-0.1-0.9c2.2,0.1,2.3,0.2,2.4,1.1c0,0.8,0.1,0.8,0.6,0.5c0.7-0.5,1.4-2.1,1-2.4
		c-0.2-0.1-0.4,0.1-0.6,0.4c-0.4,0.8-0.9,0.5-0.7-0.4c0.2-0.8,1.6-1.5,2.3-1.1c0.4,0.3,0.4,0.2,0.2-0.3c-0.1-0.3,0-0.8,0.3-1
		C209.3,21.2,209.8,21.2,210.2,21.5 M208.6,25.9l0.1-1.3l-0.5,1.1c-0.3,0.6-0.6,1.3-0.7,1.4c-0.1,0.2,0.1,0.3,0.4,0.2
		C208.4,27.2,208.6,26.8,208.6,25.9 M215.8,32.6c-0.2-0.1-0.5-0.1-0.7,0c-0.2,0.1-0.3,0.3-0.1,0.4c0.2,0.1,0.5,0.1,0.7,0
		C215.9,32.9,216,32.7,215.8,32.6 M216.4,35c-0.3-0.2-0.6-0.3-0.5-0.1c0,0.2,0.3,0.4,0.6,0.5C216.8,35.4,216.7,35.3,216.4,35
		 M207,29c-0.1,0-0.3,0.1-0.4,0.4c-0.2,0.3-0.2,0.6,0,0.7c0.2,0.1,0.4-0.1,0.4-0.4C207.1,29.4,207.1,29,207,29 M203.6,32.9
		c-0.6-0.3-1.3-0.3-1.5,0c-0.1,0.2,0.1,0.4,0.4,0.4c0.3,0.1,0.5,0.3,0.4,0.5c-0.1,0.2-0.4,0.3-0.7,0.2c-0.3-0.1-0.3,0,0,0.3
		c0.5,0.4,1.6-0.1,1.6-0.8C203.8,33.2,203.7,33,203.6,32.9 M209.8,38.5c-0.1-0.6-0.2-0.5-0.3,0.1c-0.1,0.4,0,0.7,0.1,0.7
		C209.8,39.2,209.9,38.9,209.8,38.5 M199.3,36.4c-0.1,0.3,0.1,0.9,0.3,1.2c0.3,0.5,0.4,0.4,0.2-0.5
		C199.5,35.8,199.4,35.6,199.3,36.4 M196.3,37c-0.6,0.9-0.4,1.5,0.7,2.1c2.9,1.5,3.4,1.7,3.8,1.1c0.2-0.4,0.2-0.5-0.1-0.4
		c-0.3,0.1-0.7,0.1-1-0.1c-0.3-0.2-0.8-0.4-1.2-0.5c-0.4-0.1-0.7-0.5-0.8-1C197.5,37.3,196.6,36.5,196.3,37 M198.9,42.1
		c-0.2-0.3-0.8,0.4-1.8,2.1c-1.4,2.2-1.6,2.5-2.1,2.1c-0.3-0.2-0.6-0.2-0.6,0.1c0,0.3,0.3,0.7,0.6,0.9c0.5,0.3,0.9,0,2-1.1
		c1-1.1,1.4-1.7,1.2-2c-0.1-0.3,0.1-0.7,0.4-1C198.9,42.8,199.1,42.4,198.9,42.1 M201.4,45.9c-0.1,0.2,0,0.6,0.2,0.9
		c0.2,0.3,0.4,0.4,0.5,0.1C202.3,46.2,201.7,45.4,201.4,45.9 M195.2,48.4c-0.1,0.2,0,0.6,0.3,1c0.4,0.4,0.6,0.5,0.7,0.2
		C196.4,48.9,195.5,47.9,195.2,48.4 M188.1,52.3c-0.6,0-0.6,0-0.1,0.4c0.3,0.2,0.7,0.2,0.8,0.1C189,52.3,189,52.3,188.1,52.3
		 M191.2,55.7c-0.3-0.5-0.4-0.5-0.3,0.1c0.1,0.4,0.3,0.7,0.4,0.6C191.5,56.3,191.5,56,191.2,55.7 M189.3,59.7
		c-0.6,0.1-0.7,0.5-0.4,1c0.2,0.3,0.5,0.2,0.8-0.1C190.2,60,190,59.6,189.3,59.7 M187.9,59.4c-0.2-0.1-0.4-0.1-0.6,0.1
		c-0.1,0.2-0.1,0.4-0.1,0.4c0.1,0.1,0.3,0,0.6-0.1C188,59.7,188.1,59.5,187.9,59.4 M187.6,66.8c-0.2-0.3-0.5-0.4-0.6-0.2
		c-0.3,0.5,0.1,1.1,0.5,0.9C187.8,67.4,187.8,67.1,187.6,66.8 M186.4,66.7c0.2-0.6,0.1-0.6-0.3,0c-0.4,0.5-0.3,0.9,0.2,1.4
		c0.4,0.4,0.8,0.6,0.9,0.4c0.1-0.2-0.1-0.5-0.4-0.7C186.4,67.6,186.2,67.1,186.4,66.7 M183.7,70.3c-0.1-0.2-0.3-0.2-0.4,0
		c-0.1,0.3-0.4,0.4-0.7,0.3c-0.3-0.1-0.4-0.3-0.3-0.5c0.4-0.6-0.2-0.8-1.8-0.5c-1.1,0.2-1.4,0.4-1.3,0.9c0,0.4-0.1,0.7-0.3,0.8
		c-0.2,0.1,0.1,0.1,0.7,0.1c0.6,0,1.4,0.2,1.8,0.4c0.4,0.3,0.7,0.2,0.7-0.2c0.1-0.3,0.3-0.5,0.4-0.4c0.2,0.1,0.5,0,0.8-0.2
		C183.7,70.9,183.8,70.6,183.7,70.3 M181.8,70.2c0.3,0.2,0.4,0.5,0.3,0.7c-0.1,0.2-0.3,0.2-0.5,0.1c-0.2-0.1-0.3-0.4-0.3-0.7
		C181.2,70,181.5,70,181.8,70.2 M219,30.4c-0.1,0.2-0.6,0.1-1.1-0.3c-0.8-0.6-0.8-0.6,0-0.5C219,29.9,219.2,30,219,30.4 M202.8,28
		c0.2,0.1,0.2,0.4,0.1,0.6c-0.1,0.2-0.4,0.2-0.5,0.1c-0.2-0.1-0.2-0.4-0.1-0.6C202.4,27.9,202.6,27.9,202.8,28 M212.7,36.3
		c0.4,0.3,0.4,0.4,0.1,0.3c-0.3-0.1-0.6-0.3-0.6-0.5C212.2,36,212.4,36.1,212.7,36.3 M202.6,30.8c-0.1,0.2-0.8-0.1-1.6-0.6
		c-1.1-0.8-1.2-0.9-0.5-0.8C201.7,29.6,202.9,30.4,202.6,30.8 M214.3,39.8c0.4,0.3,0.4,0.4,0.1,0.3c-0.3-0.1-0.6-0.3-0.6-0.5
		C213.7,39.5,213.9,39.6,214.3,39.8 M212.4,41.4c0.4,0.3,0.4,0.4,0.1,0.3c-0.3-0.1-0.6-0.3-0.6-0.5C211.8,41.1,212,41.2,212.4,41.4
		 M209.8,44.1c0.3,0.3,0.4,0.7,0.2,0.8c-0.4,0.4-1.1-0.2-0.9-0.8C209.2,43.7,209.5,43.7,209.8,44.1 M206.9,44.4
		c0.4,0.3,0.4,0.3-0.1,0.3c-0.4,0-0.6,0.1-0.4,0.5c0.1,0.3,0.1,0.6,0,0.8c-0.3,0.5-1.1-0.2-1.2-1.1c-0.1-0.7,0-0.8,0.6-0.8
		C206.2,44.1,206.7,44.3,206.9,44.4 M206.8,47.2c0.3,0.2,0.4,0.5,0.3,0.7c-0.1,0.2-0.4,0.2-0.7,0c-0.3-0.2-0.4-0.5-0.3-0.7
		C206.2,47.1,206.5,47.1,206.8,47.2 M206.4,52.3c0.3,0.2,0.4,0.5,0.3,0.7c-0.1,0.2-0.4,0.2-0.7,0c-0.3-0.2-0.4-0.5-0.3-0.7
		C205.8,52.1,206.2,52.1,206.4,52.3 M204.4,51.9c0.4,0.3,0.4,0.4,0.1,0.3c-0.3-0.1-0.6-0.3-0.6-0.5
		C203.8,51.6,204.1,51.7,204.4,51.9 M200,53.2c0.2,0.1,0.2,0.4,0.1,0.6c-0.1,0.2-0.4,0.2-0.5,0.1c-0.2-0.1-0.2-0.4-0.1-0.6
		C199.6,53.2,199.9,53.1,200,53.2 M199.4,54.3c0.4,0.3,0.6,0.5,0.3,0.5c-0.3-0.1-0.6-0.3-0.8-0.6C198.7,54,198.9,54,199.4,54.3
		 M199.2,56.1c-0.1,0.2-0.3,0.3-0.3,0.2c-0.1-0.1-0.5-0.2-0.9-0.3c-0.6-0.2-0.6-0.2,0.1-0.4C199,55.4,199.5,55.6,199.2,56.1
		 M199.5,57.7c-0.1,0.2-0.5,0.1-0.9-0.2c-0.6-0.4-0.6-0.5,0-0.5C199.5,57.1,199.8,57.3,199.5,57.7 M198.3,59.4
		c0.7,0.7,0.3,1.6-0.5,1.1c-0.4-0.3-0.5-0.7-0.3-1C197.7,59.2,198.1,59.1,198.3,59.4 M199.2,62.3c0.3,0.2,0.4,0.5,0.3,0.7
		c-0.1,0.2-0.3,0.2-0.5,0.1c-0.2-0.1-0.3-0.4-0.3-0.7C198.7,62.2,198.9,62.2,199.2,62.3 M192.8,63.7c0.3,0.2,0.4,0.5,0.3,0.7
		c-0.1,0.2-0.3,0.2-0.5,0.1c-0.2-0.1-0.3-0.4-0.3-0.7C192.2,63.6,192.5,63.5,192.8,63.7 M196,67.2c-0.2,0.3-0.6,0.3-1,0.1
		c-0.7-0.5-0.6-1.1,0.3-1C196.2,66.4,196.3,66.6,196,67.2 M194.1,66.1c0,0.3-0.3,0.6-0.6,0.7c-0.5,0.1-0.6,0-0.6-0.6
		c0-0.4,0.1-0.8,0.2-1C193.2,64.8,194.1,65.6,194.1,66.1 M182.9,59.6c-1,0.6-1.4,0.6-1.3-0.2c0-0.2,0.4-0.5,0.9-0.6
		C183.7,58.5,183.9,58.9,182.9,59.6 M193.6,69c0.3,0.9,0.3,0.9-0.1,0.4c-0.3-0.3-0.7-0.8-0.9-0.9c-0.3-0.2-0.4-0.5-0.2-0.7
		C192.6,67.3,193.3,67.9,193.6,69 M180.3,61.8c0.7,0.5,1.2,1,1.1,1.2c-0.1,0.2,0.1,0.5,0.4,0.7c0.4,0.3,0.4,0.4-0.1,0.3
		c-0.3-0.1-0.8-0.1-1,0c-0.2,0.1-0.8-0.3-1.4-0.9c-0.8-0.7-1-1.2-0.7-1.6C178.9,61,179.3,61.1,180.3,61.8 M192.8,73
		c-0.2,0.3-0.2,0.8-0.1,1.1c0.2,0.3,0.1,0.3-0.3,0.1c-0.3-0.2-0.9-0.2-1.3,0c-0.5,0.2-0.7,0.2-0.6-0.2c0.1-0.3-0.2-0.6-0.6-0.7
		c-0.5-0.1-0.5-0.3-0.1-0.6c0.3-0.2,0.4-0.5,0.2-0.6c-0.4-0.2,0.3-1.4,0.8-1.5C191.9,70.3,193.3,72.1,192.8,73 M181.9,64.5
		c0.2,0.1,0.1,0.4-0.1,0.6c-0.3,0.2-0.3,0.5-0.1,0.6c0.3,0.2,0.2,0.3-0.3,0.4c-0.8,0.2-1.1-1-0.4-1.5
		C181.3,64.4,181.7,64.3,181.9,64.5 M190,70.1c0.2,0.1,0.2,0.4,0.1,0.6c-0.1,0.2-0.4,0.2-0.5,0.1c-0.2-0.1-0.2-0.4-0.1-0.6
		C189.6,70,189.8,69.9,190,70.1 M179.9,64.7c0.6,0.8,0,1.8-0.8,1.3c-0.4-0.3-0.7-0.3-0.8-0.2c-0.5,1.2-1.4,1.2-1.2,0
		c0.2-1,1.1-1.5,1.6-0.8c0.4,0.5,0.5,0.5,0.6-0.1C179.5,64.4,179.7,64.3,179.9,64.7 M191.1,75.3c0.8,0.5,0.2,1.3-0.7,0.9
		c-0.4-0.2-0.5-0.5-0.3-0.8C190.3,75,190.7,75,191.1,75.3 M187.7,74.9c0.6,0.4,0.7,0.6,0.2,0.6c-0.8,0-1.5-0.5-1.3-0.9
		C186.8,74.4,187.2,74.6,187.7,74.9 M189.2,77.8c0.3,0.3,0.4,0.7,0.2,1c-0.2,0.3-0.6,0.4-1,0.2c-0.5-0.2-0.5-0.5-0.2-1
		C188.5,77.5,188.8,77.5,189.2,77.8 M178.5,75.7c0.2,0.1,0.3,0.4,0.1,0.6c-0.1,0.2,0,0.5,0.3,0.7c0.5,0.4-0.1,1.7-0.7,1.5
		c-0.5-0.1-1.1,2.9-0.7,3.5c0.2,0.2,0.1,0.5-0.1,0.5c-0.2,0.1-0.4-0.2-0.5-0.6c0-0.5-0.1-0.7-0.4-0.4c-1,0.7-0.9-0.2,0.2-2.4
		c0.6-1.3,1.2-2.6,1.3-3C178.1,75.7,178.3,75.6,178.5,75.7 M180,81.2c-0.2,1.5-0.6,2-0.8,0.9c-0.1-0.3-0.3-0.7-0.5-0.8
		c-0.2-0.1-0.3-0.2-0.1-0.1c0.2,0,0.3-0.3,0.3-0.7c0-0.4,0.1-0.8,0.4-0.9C179.9,79.2,180.1,79.7,180,81.2 M172.6,76.4
		c-0.2,0.4-0.7,0.6-1.1,0.5c-0.6-0.1-0.6,0-0.3,0.9c0.3,0.8,0.3,1-0.2,1c-1,0-1.1-0.3-0.7-1c0.2-0.4,0.3-0.9,0.2-1.1
		c-0.3-0.7,0.5-1.7,1.3-1.5C172.9,75.7,173,75.7,172.6,76.4 M173,77.2c0.2,0.1,0.2,0.4,0.1,0.6c-0.1,0.2-0.4,0.2-0.5,0.1
		c-0.2-0.1-0.2-0.4-0.1-0.6C172.6,77.1,172.8,77.1,173,77.2 M185.3,83.4c0.3,1.7-0.1,2.7-1.4,3c-0.7,0.2-0.9,0.1-1.1-0.9
		c-0.2-0.6-0.3-1.3-0.4-1.4c0-0.2-0.2-0.6-0.5-0.9c-0.2-0.3-0.2-0.9,0-1.3c0.3-0.6,0.6-0.6,1-0.1c0.3,0.3,0.7,0.5,1,0.3
		C184.6,81.3,185,81.7,185.3,83.4 M178.8,82.7c0.2,0.1,0.2,0.4,0.1,0.6c-0.1,0.2-0.4,0.2-0.5,0.1c-0.2-0.1-0.2-0.4-0.1-0.6
		C178.4,82.6,178.6,82.6,178.8,82.7 M181,85.2c0.4,0.5,0.1,1.1-0.5,0.9c-0.3-0.1-0.3-0.4-0.1-0.7C180.5,85.1,180.8,85,181,85.2
		 M175.6,81.8l0.9,0.9c1.1,1.1,1.2,1.5,0.5,1.5c-0.9,0-0.6,1.2,0.5,2c0.9,0.7,1,1,0.6,1.8c-0.3,0.6-0.6,0.9-0.8,0.8
		c-0.2-0.1-0.5,0-0.7,0.3c-0.2,0.3-0.4,0.5-0.5,0.4c-0.3-0.2-0.6-2.7-0.4-2.9c0.2-0.2,0-0.5-0.4-0.7c-0.4-0.2-0.7-0.3-0.8-0.2
		c-0.1,0.1,0,0.4,0.2,0.5c0.2,0.1,0.1,0.6-0.2,1.1c-0.4,0.6-0.7,0.7-1.1,0.5c-0.3-0.2-0.4-0.4-0.2-0.4c0.2,0,0.3-0.4,0.3-0.7
		c0-0.4,0.4-1.6,1-2.7L175.6,81.8z M178.5,83.9c0.2,0.1,0.2,0.4,0,0.7c-0.2,0.3-0.5,0.5-0.8,0.5c-0.2,0-0.3-0.3,0-0.7
		C178,84,178.3,83.8,178.5,83.9 M174.4,83.1c0.2,0.1,0.2,0.5,0,0.7c-0.2,0.3-0.5,0.4-0.6,0.3c-0.2-0.1-0.2-0.5,0-0.7
		C174,83.1,174.2,82.9,174.4,83.1 M171.4,82.3c-0.1,0.4-0.5,1.2-0.9,1.8c-0.4,0.6-0.6,1.2-0.4,1.3c0.2,0.1,0.2,0.4,0.1,0.6
		s-0.6,0.1-1-0.2c-0.6-0.4-0.7-0.8-0.4-1.6c0.2-0.6,0.5-1.6,0.7-2.2c0.2-0.6,0.4-1.1,0.6-1.2C170.8,80.7,171.5,81.6,171.4,82.3
		 M181,88.2c0.4,0.7-0.5,2.3-1.3,2.3c-1.3,0-1.5-2.1-0.3-3C179.9,87,180.4,87.3,181,88.2 M173.4,84.7c-0.1,0.2-0.3,0.4-0.3,0.4
		c-0.1,0-0.1,0.8-0.2,1.8c-0.1,1-0.4,2.1-0.8,2.6c-0.4,0.5-0.8,1.1-1,1.3c-0.4,0.6-1,0.1-0.6-0.5c0.2-0.3,0.1-1.1-0.1-1.8
		c-0.3-0.8-0.2-1.3,0.1-1.3c0.3,0,0.8-0.5,1.2-1.2c0.4-0.7,0.9-1.4,1.1-1.6C173.1,84,173.7,84.3,173.4,84.7 M175.3,88
		c0.3,0.2,0.4,0.5,0.2,0.8c-0.2,0.3-0.2,0.7,0,0.9c0.2,0.2,0.1,0.5-0.1,0.5c-0.4,0.1-1.1-1.9-0.8-2.3C174.7,87.8,175,87.8,175.3,88
		 M176.6,91.1c0.2,0.3,0.3,0.7,0.1,0.9c-0.1,0.2-0.3,0-0.4-0.4c-0.1-0.4-0.2-0.8-0.2-0.9C176.2,90.7,176.4,90.9,176.6,91.1
		 M178,91.8c0.3,0.2,0.4,0.5,0.3,0.7c-0.1,0.2-0.3,0.2-0.5,0.1c-0.2-0.1-0.3-0.4-0.3-0.7C177.5,91.7,177.7,91.6,178,91.8 M169,86.6
		c0.2,0.4,0.1,0.6-0.1,0.4c-0.2-0.2-0.5-0.1-0.6,0.2c-0.1,0.2-0.4,0.4-0.7,0.3c-0.3-0.1-0.4-0.2-0.1-0.3c0.2-0.1,0.3-0.4,0.1-0.6
		c-0.2-0.2-0.1-0.5,0.2-0.6C168.3,85.5,168.6,85.7,169,86.6 M175.9,95.8c-0.2,0.3-0.2,0.8,0,1.3c0.2,0.6,0.2,0.7-0.2,0.7
		c-0.3-0.1-0.7,0.1-0.8,0.4c-0.5,0.8-1.3-0.1-1.1-1.2c0.1-0.8,0.4-1.2,1-1.5C175.7,94.8,176.4,95.1,175.9,95.8 M173.9,91.2
		c-0.6,1-0.8,0.9-1.4-0.5c-0.4-1-0.4-1.1,0.4-0.9C174.2,90,174.4,90.3,173.9,91.2 M170,89.3c0.3,1.5-2.2,3.3-3.4,2.4
		c-0.2-0.1-0.1-0.2,0.3-0.2c0.5,0,0.7-0.3,1.1-1.5c0.4-1.2,0.6-1.5,1-1.5C169.7,88.4,169.8,88.5,170,89.3 M175.1,94
		c-0.6,1.3-1,1.3-1.5,0.2c-0.2-0.4,0-0.9,0.5-1.3C175.2,91.7,175.8,92.4,175.1,94 M175.8,94.2c0.2,0.1,0.2,0.4,0.1,0.6
		c-0.1,0.2-0.4,0.2-0.5,0.1c-0.2-0.1-0.2-0.4-0.1-0.6C175.4,94.1,175.6,94.1,175.8,94.2 M171.5,92.7c-0.1,0.4-0.1,0.9,0,1
		c0.2,0.1-0.1,0.5-0.6,0.8c-1,0.6-1.9,0.3-1.7-0.6c0.2-1.2,0.7-1.9,1.3-2.1C171.5,91.5,171.8,91.8,171.5,92.7 M165.8,89.7
		c0.6,0.4-0.2,1.7-1,1.5c-0.3-0.1-0.6-0.3-0.6-0.4c0-0.2,0.1-0.2,0.3-0.1c0.2,0.1,0.5-0.1,0.6-0.6C165.2,89.6,165.4,89.5,165.8,89.7
		 M167.9,94.1c-0.5,0.7-1,1.2-1.2,1.1c-0.1-0.1-0.2-0.3-0.1-0.5c0.1-0.2,0-0.5-0.2-0.6c-0.2-0.2-0.4-0.6-0.3-1
		c0.1-0.5,0.2-0.5,0.5-0.1c0.3,0.4,0.6,0.4,1,0C168.7,92,168.8,92.7,167.9,94.1 M172,95.1c0.3,0.4-0.9,4-1.4,4.1
		c-0.5,0.1-0.7-0.9-0.3-1.5c0.3-0.4,0.2-0.7-0.2-0.8c-0.3-0.1-0.5-0.3-0.4-0.5c0.1-0.2,0.4-0.2,0.7-0.1c0.3,0.2,0.6,0,0.8-0.7
		C171.6,94.9,171.8,94.7,172,95.1 M173.3,99.5c0.2,0.2,0.3,0.7,0.2,1c-0.1,0.3-0.3,0.4-0.5,0.1c-0.2-0.2-0.3-0.7-0.2-1
		C172.9,99.3,173.1,99.3,173.3,99.5 M163.4,91c0.2,0.1,0.2,0.4,0.1,0.6c-0.1,0.2-0.4,0.2-0.5,0.1c-0.2-0.1-0.2-0.4-0.1-0.6
		C163,90.9,163.2,90.9,163.4,91 M171.8,99.4c0.3,0.2,0.3,0.4,0.1,0.6c-0.4,0.2-0.9-0.4-0.7-0.8C171.2,99.1,171.5,99.2,171.8,99.4
		 M168.8,95.7c0.2,0.1,0.1,0.6-0.2,1.1c-0.3,0.5-0.7,0.7-0.9,0.6c-0.2-0.1-0.1-0.6,0.2-1.1C168.3,95.8,168.7,95.6,168.8,95.7
		 M173,99c0.3,0.2,0.3,0.6,0.1,1c-0.2,0.4-0.6,0.6-0.7,0.5c-0.2-0.1-0.3-0.3-0.2-0.4c0-0.1,0.1-0.4,0.2-0.8
		C172.4,98.9,172.6,98.8,173,99 M163.2,94.2c-0.2,0.4-0.6,0.6-0.7,0.5c-0.4-0.3-0.4-1.1,0.1-1.4C163.3,93,163.7,93.5,163.2,94.2
		 M171.4,102.5c0.2,0.1,0.2,0.5,0.2,0.8c-0.1,0.4-0.3,0.5-0.6,0.3c-0.3-0.2-0.3-0.6-0.2-0.8C170.9,102.5,171.2,102.4,171.4,102.5
		 M164.3,97c0.4,1.3-0.1,3.3-0.7,2.8c-0.5-0.4-0.9-2.5-0.6-3c0.2-0.3,0.2-0.6,0-0.8c-0.2-0.1-0.2-0.4-0.1-0.6
		C163.3,94.9,163.8,95.5,164.3,97 M170,100.4c0.4,0.3,0.8,3.4,0.4,3.9c-0.4,0.6-1,0.3-0.8-0.4c0.1-0.3,0-0.2-0.2,0.1
		c-0.2,0.4-0.5,0.5-0.7,0.4c-0.2-0.1-0.2,0-0.1,0.4c0.2,0.5,0.2,0.6-0.2,0.4c-0.3-0.2-0.5,0-0.6,0.3c-0.1,0.3-0.3,0.5-0.5,0.4
		c-0.5-0.3,0-2.1,0.6-2.1c0.3,0,0.5-0.3,0.6-1.1c0.1-0.9-0.1-1.2-1-1.7c-0.6-0.3-0.9-0.6-0.6-0.5c0.3,0,0.7-0.2,0.9-0.4
		c0.2-0.3,0.5-0.3,0.7,0c0.2,0.3,0.5,0.4,0.8,0.3C169.6,100.3,169.9,100.3,170,100.4 M162.2,95.9c0.2,0.1,0.2,0.4,0.1,0.6
		c-0.1,0.2-0.4,0.2-0.5,0.1c-0.2-0.1-0.2-0.4-0.1-0.6C161.8,95.9,162,95.8,162.2,95.9 M162.9,99.5c0.3,0.5,0,1-1,1.7
		c-0.4,0.3-0.4,0.5-0.1,0.8c0.3,0.2,0.4,0.5,0.3,0.7c-0.3,0.5-0.9,0-1-0.8c-0.1-0.7,0.3-1.8,1.1-2.4
		C162.4,99.2,162.7,99.2,162.9,99.5 M164.9,101.2c0.2,0.1,0.1,0.5-0.1,0.9c-0.2,0.4-0.6,0.6-0.7,0.5c-0.2-0.1-0.1-0.5,0.1-0.9
		C164.4,101.3,164.7,101.1,164.9,101.2 M166.7,106.9c-0.1,0.3-0.4,0.3-0.6,0.1c-0.3-0.2-0.4-0.6-0.2-0.9
		C166.2,105.6,166.9,106.1,166.7,106.9 M166,104.9c-0.2,0.6-0.4,0.7-0.9,0.4c-0.7-0.5-0.7-0.5,0.1-1.1
		C166,103.6,166.3,103.9,166,104.9 M163.6,104.2c-0.2,0.8-0.1,1.3,0.3,1.4c0.3,0.1,0.5,0.4,0.4,0.7c-0.3,1.3-0.8,2-1.2,1.8
		c-0.3-0.1-0.3-0.4-0.1-0.8c0.5-0.8,0.4-1.3-0.3-1.5c-0.8-0.2-1.1,0.4-0.4,0.9c0.8,0.6,0.2,0.5-1.1-0.1c-0.9-0.4-1.1-0.6-0.8-1.1
		c0.2-0.3,0.4-0.4,0.5-0.2c0.1,0.2,0.4,0,0.7-0.5c0.3-0.4,0.4-0.9,0.3-1c-0.1-0.1,0.1-0.4,0.6-0.8
		C163.6,102.4,163.9,102.7,163.6,104.2 M168.8,106.8c0.2,0.1,0.3,0.4,0.3,0.7c0,0.3-0.2,0.3-0.5,0.1c-0.3-0.2-0.4-0.5-0.3-0.7
		C168.4,106.8,168.6,106.7,168.8,106.8 M166.4,108.3c0.2,0.1,0.2,0.4,0.1,0.6c-0.1,0.2-0.4,0.2-0.5,0.1c-0.2-0.1-0.2-0.4-0.1-0.6
		C166,108.2,166.2,108.1,166.4,108.3 M160.8,103.3c0.2,0.1,0.2,0.4,0.1,0.6c-0.1,0.2-0.4,0.2-0.5,0.1c-0.2-0.1-0.2-0.4-0.1-0.6
		C160.4,103.2,160.7,103.1,160.8,103.3 M159.6,103.8c0.2,0.1,0.2,0.4,0.1,0.6c-0.1,0.2-0.4,0.2-0.5,0.1c-0.2-0.1-0.2-0.4-0.1-0.6
		C159.1,103.8,159.4,103.7,159.6,103.8 M165.9,111.3c0.2,0.1,0.2,0.4,0.1,0.6c-0.1,0.2-0.4,0.2-0.5,0.1c-0.2-0.1-0.2-0.4-0.1-0.6
		C165.5,111.2,165.7,111.2,165.9,111.3 M166,111.8c-0.3,0.7-0.6,0.9-0.9,0.7c-0.3-0.2-0.2-0.7,0.2-1.4
		C166,109.8,166.7,110.4,166,111.8 M160.6,107.4c0.7,0.5,0.9,0.8,0.7,1.2c-0.2,0.3-0.1,0.7,0.1,0.8c0.3,0.2,0.4,0.6,0.2,1
		c-0.2,0.5-0.1,0.5,0.3,0c0.5-0.8,1.7-0.4,1.3,0.4c-0.7,1.6-3.4,5.8-3.6,5.6c-0.1-0.1,0.2-1.2,0.7-2.5c0.5-1.3,0.7-2.5,0.5-2.8
		c-0.2-0.3-0.2-0.8,0-1.1c0.3-0.5,0.3-0.5-0.3-0.3c-0.5,0.3-0.6,0.2-0.7-0.7c0-0.6-0.2-0.8-0.4-0.6c-0.5,0.7-0.7-0.4-0.3-1.1
		C159.5,106.9,159.8,106.9,160.6,107.4 M154.6,105.8c0.2,0.1,0.2,0.5,0,0.7c-0.2,0.3-0.5,0.4-0.6,0.3c-0.2-0.1-0.2-0.5,0-0.7
		C154.2,105.8,154.5,105.6,154.6,105.8 M163.7,112c0.2,0.1,0.2,0.4,0.1,0.6c-0.1,0.2-0.4,0.2-0.5,0.1c-0.2-0.1-0.2-0.4-0.1-0.6
		C163.3,112,163.5,111.9,163.7,112 M156.2,107.8c0.2,0.1,0.2,0.4,0.1,0.6c-0.1,0.2-0.4,0.2-0.5,0.1c-0.2-0.1-0.2-0.4-0.1-0.6
		C155.7,107.7,156,107.7,156.2,107.8 M155,107.4c0.2,0.1,0.2,0.5,0,0.8c-0.2,0.3-0.4,0.3-0.5,0.1c-0.1-0.2-0.1-0.6,0-0.8
		C154.6,107.4,154.8,107.3,155,107.4 M163.1,113.9c-0.1,0.1-0.3,0.7-0.6,1.3c-0.3,0.6-0.6,0.9-0.7,0.8c-0.3-0.2,0.1-1.6,0.6-2.4
		C162.6,113.1,163.3,113.4,163.1,113.9 M163.2,115.5c0.3,0.2,0.3,0.6,0.2,0.8c-0.2,0.3-0.4,0.4-0.6,0.3c-0.2-0.1-0.2-0.5-0.2-0.8
		C162.6,115.4,162.9,115.3,163.2,115.5 M162.4,118.1c0,0.7-1.8,2.6-2.2,2.3c-0.2-0.1,0.1-0.9,0.6-1.7
		C161.7,117.2,162.4,117,162.4,118.1 M156.3,111.3c0.2,0.1,0.2,0.5,0,0.7c-0.2,0.3-0.5,0.4-0.6,0.3c-0.2-0.1-0.2-0.5,0-0.7
		C155.8,111.3,156.1,111.2,156.3,111.3 M160.4,117.2c0.2,0.1,0.1,0.5-0.1,0.9c-0.2,0.4-0.6,0.6-0.7,0.5c-0.2-0.1-0.1-0.5,0.1-0.9
		C159.8,117.3,160.2,117.1,160.4,117.2 M159.7,118.8c-0.6,0.8-1.3,1.7-1.4,1.9c-0.2,0.2-0.4,0.3-0.6,0.2c-0.5-0.3,0.9-3.1,1.7-3.6
		C160.8,116.6,160.9,117.2,159.7,118.8 M151.5,112.3c0.2,0.1,0.1,0.6-0.2,1.1c-0.3,0.5-0.7,0.7-0.9,0.6c-0.2-0.1-0.1-0.6,0.2-1.1
		C150.9,112.5,151.3,112.2,151.5,112.3 M152.3,113.9c0.2,0.1,0.2,0.4,0,0.7c-0.2,0.3-0.5,0.4-0.6,0.3c-0.2-0.1-0.2-0.5,0-0.7
		C151.9,113.9,152.2,113.8,152.3,113.9 M153.6,114.8c0.2,0.1,0.2,0.5,0,0.7c-0.2,0.3-0.5,0.4-0.6,0.3c-0.2-0.1-0.2-0.5,0-0.7
		C153.2,114.8,153.5,114.6,153.6,114.8 M154.4,115.8c0.2,0.1,0.2,0.5,0,0.7c-0.2,0.3-0.5,0.4-0.6,0.3c-0.2-0.1-0.2-0.5,0-0.7
		C153.9,115.8,154.2,115.7,154.4,115.8 M157.2,117.7c0.3,0.2,0.3,0.7-0.3,1.5c-0.4,0.6-0.9,1.1-1,1c-0.3-0.2,0-1.6,0.5-2.4
		C156.6,117.5,156.9,117.5,157.2,117.7 M150,114.7c0.2,0.1,0.2,0.4,0.1,0.6c-0.1,0.2-0.4,0.2-0.5,0.1c-0.2-0.1-0.2-0.4-0.1-0.6
		C149.6,114.6,149.8,114.6,150,114.7 M151.5,119.1c-0.3,0.7-0.6,1-0.9,0.8c-0.5-0.3-0.2-1.8,0.4-2.1
		C151.8,117.5,152,118,151.5,119.1 M155,120.1c0.4,0.2-0.2,2.2-0.6,2.3c-0.6,0.1-0.7-0.9-0.2-1.7C154.4,120.2,154.8,119.9,155,120.1
		 M150.1,120.5c0.2,0.1,0.2,0.4,0.1,0.6c-0.1,0.2-0.4,0.2-0.7,0c-0.3-0.2-0.3-0.4-0.1-0.5C149.6,120.4,149.9,120.4,150.1,120.5
		 M155.3,126.8c0.2,0.1,0.1,0.6-0.2,1.1c-0.3,0.5-0.7,0.7-0.9,0.6c-0.2-0.1-0.1-0.6,0.2-1.1C154.7,126.9,155.1,126.6,155.3,126.8
		 M152.1,126.5c-1,1.8-1.3,1.9-2.3,0.8c-0.6-0.7-0.5-2,0.2-1.5c0.2,0.1,0.5-0.3,0.8-0.9c0.2-0.6,0.7-1.3,1-1.5
		C153,122.4,153.2,124.3,152.1,126.5 M146.1,119.8c0.3,0.2,0.3,0.6,0.2,0.8c-0.2,0.3-0.5,0.4-0.8,0.2c-0.3-0.2-0.3-0.6-0.2-0.8
		C145.5,119.6,145.8,119.6,146.1,119.8 M153.3,127.2c0.2,0.1,0.2,0.4,0.1,0.6c-0.1,0.2-0.4,0.2-0.5,0.1c-0.2-0.1-0.2-0.4-0.1-0.6
		C152.9,127.1,153.1,127,153.3,127.2 M149.9,132.6c0.3,0.2-0.7,2-2.1,3.5c-1.1,1.3-1.4,0.6-0.5-1.3c0.4-1,0.7-2,0.6-2.2
		c-0.1-0.3,0-0.5,0.2-0.6c0.2,0,0.4,0.2,0.3,0.4c-0.2,0.7,0.4,1,0.8,0.4C149.5,132.6,149.8,132.4,149.9,132.6 M144.2,130.1
		c0.5,0.4,0.6,1.3,0.2,1.4c-0.2,0-0.4-0.3-0.5-0.8C143.8,129.9,143.8,129.8,144.2,130.1 M147.1,132.6c0.2,0.1,0.2,0.4,0.1,0.6
		c-0.1,0.2-0.4,0.2-0.5,0.1c-0.2-0.1-0.2-0.4-0.1-0.6C146.7,132.5,147,132.5,147.1,132.6 M141.8,133.3c0.3,0.2,0.3,0.6,0.1,1
		c-0.2,0.4-0.6,0.6-0.7,0.5c-0.2-0.1-0.3-0.3-0.2-0.4c0.1-0.1,0.2-0.4,0.2-0.8C141.2,133.1,141.4,133,141.8,133.3 M142.7,139.7
		c0.4,0.2,0,1.9-0.4,2c-0.5,0.1-0.7-0.9-0.3-1.5C142.2,139.8,142.5,139.6,142.7,139.7"/>
	<path clip-path="url(#SVGID_2_)" fill="#231F20" d="M137.8,279.8l-15.1-10c0,0-1.8,2.3-4.4,0.5c-2.6-1.7-1.4-4.4-1.4-4.4l-10.8-7.1
		c0,0-11,22.9-3.3,41.6c7.7,18.7,41,65.1,41,65.1l18.5-24.1l18.1-23.6c0,0-21-9.2-32.9-19.8C136.9,285.7,137.8,279.8,137.8,279.8"/>
	<path clip-path="url(#SVGID_2_)" fill="none" stroke="#FFFFFF" stroke-width="1.25" stroke-miterlimit="10" d="M449.1,370.6
		l9.6,47.3 M354.8-91.9l-9.6-47.3 M7.6,460.6l9.6,47.3 M-86.7-1.9l-9.6-47.3 M457.4,357.9l47.3-9.6 M-5,452.2l-47.3,9.6 M367.4-83.5
		l47.3-9.6 M-95,10.7l-47.3,9.6"/>
	<path clip-path="url(#SVGID_2_)" fill="none" stroke="#000000" stroke-width="0.25" stroke-miterlimit="10" d="M449.1,370.6
		l9.6,47.3 M354.8-91.9l-9.6-47.3 M7.6,460.6l9.6,47.3 M-86.7-1.9l-9.6-47.3 M457.4,357.9l47.3-9.6 M-5,452.2l-47.3,9.6 M367.4-83.5
		l47.3-9.6 M-95,10.7l-47.3,9.6"/>
</g>
</svg>
