<?xml version="1.0" encoding="utf-8"?>
<!-- Generator: Adobe Illustrator 18.1.1, SVG Export Plug-In . SVG Version: 6.00 Build 0)  -->
<!DOCTYPE svg PUBLIC "-//W3C//DTD SVG 1.1//EN" "http://www.w3.org/Graphics/SVG/1.1/DTD/svg11.dtd">
<svg version="1.1" id="Layer_1" xmlns="http://www.w3.org/2000/svg" xmlns:xlink="http://www.w3.org/1999/xlink" x="0px" y="0px"
	 viewBox="0 0 300 400" enable-background="new 0 0 300 400" xml:space="preserve">
<g>
	<defs>
		
			<rect id="SVGID_1_" x="-180.8" y="-145" transform="matrix(-0.7071 -0.7071 0.7071 -0.7071 127.6759 430.5097)" width="667.7" height="667.7"/>
	</defs>
	<clipPath id="SVGID_2_">
		<use xlink:href="#SVGID_1_"  overflow="visible"/>
	</clipPath>
	<path clip-path="url(#SVGID_2_)" fill="#010101" d="M185,316.5c-1.7,2.3-8.9,12.4-10.6,15.2c-2,3.1-3.2,9.6-0.8,11.4
		c2.4,1.7,14.4,1.5,19.1,0c4.7-1.5,14.8-11.2,16.9-14.1c1.7-2.3,2.4-9,2.7-12"/>
	<path clip-path="url(#SVGID_2_)" fill="#010101" d="M181.8,344.6c-3.8,0-7.3-0.4-8.5-1.3c-2.7-2-1.1-8.8,0.8-11.8
		c1.8-2.8,9.1-13.2,10.6-15.2l0.5,0.4c-0.9,1.3-8.8,12.3-10.6,15.2c-1.9,3-3.1,9.4-0.9,10.9c2.3,1.7,14.3,1.4,18.8,0
		c4.6-1.5,14.7-11.2,16.8-14c1.6-2.1,2.2-8,2.6-11.2l0.1-0.6l0.6,0.1l-0.1,0.6c-0.4,3.2-1,9.3-2.7,11.5c-2,2.7-12.2,12.6-17.1,14.2
		C190.2,344.2,185.8,344.6,181.8,344.6"/>
	<path clip-path="url(#SVGID_2_)" fill="#010101" d="M251.1,317.1c2.9,3.8,10.1,13.2,10.6,15.2c0.8,2.8,4,10,0.9,11.4
		c-3.1,1.4-14.6,0.7-19.1,0c-4.5-0.7-14-11.2-16.9-14.1c-2.4-2.3-2.8-8.5-3-12.2"/>
	<path clip-path="url(#SVGID_2_)" fill="#010101" d="M255.2,344.8c-4.4,0-9.3-0.4-11.7-0.8c-3.8-0.6-10.8-7.8-15.1-12.1
		c-0.8-0.9-1.5-1.6-2-2.1c-2.4-2.3-2.8-8.1-3.1-11.9l0-0.5l0.6,0l0,0.5c0.3,3.7,0.7,9.4,2.9,11.5c0.5,0.5,1.2,1.2,2.1,2.1
		c3.9,4,11.1,11.3,14.7,11.9c4.7,0.8,15.9,1.3,18.9,0c2.3-1,0.6-5.8-0.4-9.1c-0.3-0.8-0.5-1.4-0.6-1.9c-0.4-1.6-5.7-8.8-10.6-15.1
		l0.5-0.4c3,3.9,10.1,13.2,10.7,15.3c0.1,0.5,0.4,1.1,0.6,1.9c1.2,3.4,2.9,8.6,0.1,9.9C261.3,344.6,258.4,344.8,255.2,344.8"/>
	<path clip-path="url(#SVGID_2_)" fill="#E5E5E5" d="M230,98.1c0,0,20.6,4.9,21.5,7.5c0.9,2.6,5,72.3,3.8,75.1
		c-1.2,2.8-8.1,8.1-8.7,10.2c-0.6,2.1,8,122.5,6.6,124c-1.4,1.5-2.2,2.3-2.2,2.3s-8.8,3.5-15.5,3.8c-6.8,0.2-14.2-4.1-14.2-4.1
		L215.9,215l0-0.3l-1.7,101.8c0,0-10.7,3.9-17.5,3.5c-6.8-0.4-11.7-3.5-11.7-3.5l-2.2-2.3c0,0,0.6-122.3,0-124.7
		c-0.6-2.4-10.1-8.7-10.8-10.6c-0.7-1.9,0-69.1,1.8-71.6c0.7-1.6,25.3-10.1,25.3-10.1"/>
	<path clip-path="url(#SVGID_2_)" fill="#010101" d="M230.1,97.7c4.8,1.2,9.7,2.5,14.4,4c1.2,0.4,2.4,0.8,3.5,1.3
		c0.6,0.2,1.2,0.5,1.7,0.8c0.6,0.3,1.1,0.6,1.6,1c0.1,0.1,0.3,0.3,0.4,0.4c0.1,0.2,0.1,0.4,0.2,0.5c0.1,0.3,0.1,0.6,0.1,0.9
		c0.1,0.6,0.1,1.2,0.2,1.9l0.3,3.7c0.8,9.9,1.4,19.9,1.9,29.8c0.5,10,1,19.9,1.3,29.9c0,2.5,0.1,5,0,7.5c0,0.3,0,0.6-0.1,1
		c0,0.1-0.1,0.2-0.1,0.3c0,0.1-0.1,0.2-0.1,0.2c-0.1,0.1-0.2,0.3-0.2,0.4c-0.3,0.6-0.7,1-1.2,1.5c-0.8,1-1.7,1.8-2.6,2.7
		c-0.9,0.9-1.8,1.8-2.6,2.7c-0.4,0.4-0.8,0.9-1.2,1.4c-0.2,0.2-0.4,0.5-0.5,0.7c-0.1,0.1-0.1,0.3-0.2,0.4l0,0.1c0,0,0,0,0,0.1l0,0.2
		c0,2.5,0.2,5,0.3,7.4c1.1,19.9,2.4,39.8,3.7,59.6l1.8,29.8c0.3,5,0.5,10,0.8,14.9c0.1,2.5,0.2,5,0.3,7.5c0,1.2,0.1,2.5,0,3.8
		c0,0.2,0,0.3-0.1,0.5c0,0,0,0.1,0,0.1c-0.1,0.1-0.1,0.1-0.1,0.1l-0.1,0.1l-0.2,0.2l-1.2,1.2l-1.7,2.1l-1.2-1.2l1.1-1.1l0.4,0.5
		c-2.4,1-4.6,2.1-7.1,2.8c-2.5,0.7-4.9,1.4-7.6,1.6c-2.7,0.2-5.7,0.3-8.2-0.5c-2.6-0.7-5.9-0.7-7.7-2.5l0,0l0-0.6l-0.9-0.7l-5.9-102
		l0.1-0.1l0,0l1.1-0.3l0.3,0.9l-2.3,102.7l0.1,0.1l0.7-0.9c-2.4,1.3-4.3,1.3-6.8,2c-2.4,0.7-4.7,1.1-7.3,1.4c-1.3,0.1-2.5,0.1-3.8,0
		c-1.3-0.1-2.5-0.3-3.8-0.6c-1.3-0.3-2.5-0.6-3.8-1.1c-1.2-0.5-2.1-1.3-3.3-2l0.2-0.4l-0.1-0.1l-4.4-1.9l-2.3-0.2l-0.1-0.5l1.6-26.4
		l0.8-26.4l0.4-52.9c0-4.4,0.2-8.8,0.2-13.2l-0.2-3.3l-0.3-1.6l0-0.4v-0.1l0.3,0.1c0,0.1,0.2,0.2,0.2,0.1c0,0-0.7-0.8-0.7-0.8
		c0,0-0.7-0.7-0.7-0.7l0,0c0,0,0.7,0.7,0.7,0.7c0-0.1,0.3,0.2,0.2,0.2c-0.5-0.6-1.1-1.2-1.8-1.9c-0.8-0.7-1.5-1.3-2.4-2l-2.5-2.1
		c-0.9-0.7-1.7-1.4-2.6-2.4c-0.2-0.3-0.4-0.5-0.7-1l-0.1-0.2l-0.1-0.1c0-0.1,0,0-0.1-0.2l0-0.1l0-0.2c0-0.2,0-0.2,0-0.2
		c0-0.2,0-0.4-0.1-0.5c0-0.6-0.1-1.2-0.1-1.7c0-1.1-0.1-2.2-0.1-3.3c0-4.4,0-8.8,0-13.3c0.1-8.8,0.2-17.7,0.5-26.5
		c0.2-4.4,0.4-8.8,0.7-13.2c0.1-2.2,0.3-4.4,0.5-6.6c0.1-1.1,0.2-2.2,0.3-3.3c0.1-0.6,0.1-1.1,0.2-1.7c0-0.3,0.1-0.6,0.2-0.9
		c0-0.2,0.1-0.3,0.1-0.5c0-0.1,0.1-0.2,0.1-0.3c0-0.1,0.1-0.2,0.2-0.4l-0.1,0.2c0.2-0.3,0.3-0.4,0.4-0.5c0.1-0.1,0.2-0.2,0.3-0.2
		c0.2-0.1,0.3-0.2,0.4-0.3c0.3-0.2,0.6-0.3,0.8-0.4c0.5-0.3,1.1-0.5,1.6-0.7c1.1-0.5,2.1-0.9,3.2-1.3c2.1-0.8,4.3-1.6,6.4-2.4
		c2.2-0.8,4.3-1.5,6.5-2.2l3.2-1.1l1.6-0.5l0.8-0.3c0.3-0.1,0.6-0.2,0.9,0l0.2,0.6c-0.2,0.3-0.4,0.4-0.7,0.5l-0.8,0.3l-1.6,0.6
		l-3.2,1.2c-2.1,0.8-4.2,1.6-6.4,2.5c-2.1,0.8-4.2,1.7-6.3,2.6c-1,0.4-2.1,0.9-3.1,1.4c-0.5,0.2-1,0.5-1.5,0.7
		c-0.2,0.1-0.5,0.3-0.7,0.4c-0.1,0.1-0.2,0.1-0.3,0.2c0,0-0.1,0-0.1,0.1c0,0,0,0,0.1-0.2l-0.1,0.1l0,0c0.1-0.1,0-0.1,0-0.1l0,0.1
		c0,0.1,0,0.2-0.1,0.3c0,0.2-0.1,0.5-0.1,0.8c-0.1,0.5-0.1,1.1-0.1,1.6c-0.1,1.1-0.1,2.2-0.2,3.3c-0.1,2.2-0.1,4.4-0.2,6.6
		c-0.1,4.4-0.1,8.8-0.2,13.2c-0.1,8.8-0.2,17.6-0.3,26.4c0,4.4,0,8.8,0,13.2c0,1.1,0,2.2,0.1,3.3c0,0.5,0,1.1,0.1,1.6l0,0.3
		c0,0,0,0,0,0c0,0,0-0.1,0-0.1l0,0l0-0.1l0,0c0,0,0,0,0,0c0,0,0.1,0.2,0.3,0.3c0.6,0.7,1.4,1.4,2.3,2.1l2.5,2.1
		c0.9,0.7,1.7,1.4,2.6,2.2c0.9,0.8,1.7,1.5,2.5,2.6c0.1,0.1,0.2,0.3,0.3,0.5c0.1,0.1,0.1,0.2,0.2,0.3l0.1,0.2l0.1,0.3l0,0.1
		c0-0.1,0,0.1,0.1,0.2l0,0.2c0,0.1,0,0.2,0,0.3l0,0.5c0,0.6,0,1.1,0.1,1.7l0.1,3.3c0.1,4.4,0.1,8.8,0.1,13.2
		c0.1,17.6-0.1,35.3-0.2,52.9c0,8.8-0.1,17.6-0.2,26.5c-0.1,8.8-0.2,17.6-0.3,26.5l-0.4-1l2.1,2.4l-0.2-0.2c0.9,0.6,2,1.2,3.1,1.6
		c1.1,0.5,2.3,0.9,3.4,1.2c1.2,0.3,2.4,0.6,3.6,0.7c1.2,0.2,2.4,0.2,3.6,0.1c2.5-0.1,4.9-0.6,7.4-1.1c2.4-0.5,4.9-1.4,7.3-2
		l-0.2,0.4l1.7-101.8l0.5,0.1L216,215l0,0l6.2,101.7l-0.4-0.8c2.1,1.3,4.5,2.3,6.9,3.1c2.4,0.8,4.9,1.3,7.4,1.2
		c2.5-0.1,5-0.6,7.5-1.2c2.5-0.6,4.9-1.5,7.3-2.4l-0.1-0.1l1.3-1.2l0.6-0.6l0.2-0.1l0.1-0.1c0,0,0,0,0,0c0,0,0,0,0,0
		c0-0.1,0-0.2,0.1-0.4c0.1-1.2,0-2.5,0-3.7c-0.1-2.5-0.2-5-0.3-7.5c-0.2-5-0.5-9.9-0.8-14.9l-1.8-29.8c-1.2-19.9-2.6-39.8-3.7-59.7
		c-0.1-2.5-0.3-5-0.3-7.5l0-0.3c0,0,0-0.1,0-0.2l0-0.1c0.1-0.2,0.1-0.3,0.2-0.5c0.2-0.3,0.4-0.5,0.6-0.8c0.4-0.5,0.8-1,1.3-1.4
		c0.9-0.9,1.8-1.8,2.6-2.7c0.9-0.9,1.7-1.8,2.6-2.7c0.4-0.5,0.8-0.9,1.1-1.4c0.1-0.1,0.2-0.3,0.2-0.4c0-0.1,0.1-0.1,0.1-0.2
		c0-0.1,0-0.1,0-0.2c0.1-0.3,0.1-0.6,0.1-0.9c0.1-2.5,0-5,0-7.4c-0.3-9.9-0.8-19.9-1.3-29.8c-0.6-9.9-1.1-19.9-1.9-29.8l-0.3-3.7
		c-0.1-0.6-0.1-1.2-0.2-1.9c0-0.3-0.1-0.6-0.1-0.9c0-0.1-0.1-0.3-0.1-0.3c0-0.1-0.1-0.2-0.2-0.3c-0.4-0.4-1-0.7-1.5-0.9
		c-0.5-0.3-1.1-0.5-1.7-0.7c-1.1-0.5-2.3-0.9-3.5-1.3c-4.7-1.5-9.5-2.8-14.4-4L230.1,97.7z"/>
	<polyline clip-path="url(#SVGID_2_)" fill="#FFFFFF" points="227.6,97.5 230.2,97 218.9,118.8 209.5,118.8 199.1,96.1 201.6,95.6 	
		"/>
	<polygon clip-path="url(#SVGID_2_)" fill="#010101" points="219.1,118.8 209.3,118.8 198.6,95.7 201.5,95.2 201.7,96.1 199.5,96.3 
		209.7,118.8 218.7,118.8 229.7,97.4 227.6,97.4 227.7,97 230.7,96.5 	"/>
	<path clip-path="url(#SVGID_2_)" fill="#010101" d="M231.8,72l-0.6,4.2c-0.2,1.4-0.4,2.8-0.6,4.2c-0.2,1.4-0.4,2.8-0.7,4.1
		c-0.1,0.7-0.3,1.4-0.5,2.1c-0.1,0.3-0.2,0.7-0.4,1c-0.2,0.3-0.5,0.6-0.7,0.8c-1,1-2.1,1.9-3.3,2.7c-1.2,0.8-2.3,1.6-3.6,2.3
		c-1.2,0.7-2.5,1.4-3.7,2c-0.6,0.3-1.3,0.6-2,0.8c-0.7,0.2-1.4,0.5-2.3,0.5c-0.9,0-1.6-0.2-2.3-0.4c-0.7-0.2-1.4-0.5-2.1-0.7
		c-1.3-0.5-2.6-1.2-3.9-1.8c-1.3-0.7-2.5-1.4-3.7-2.1c-1.2-0.8-2.4-1.6-3.5-2.6c-0.3-0.3-0.6-0.6-0.9-1c0-0.1-0.1-0.1-0.1-0.2
		l-0.1-0.1c-0.1-0.1-0.1-0.2-0.2-0.3c-0.1-0.2-0.2-0.4-0.2-0.6c-0.3-0.7-0.4-1.4-0.6-2.1c-0.3-1.4-0.6-2.8-0.8-4.2
		c-0.4-2.8-0.7-5.6-0.8-8.4l2.2-0.2c0.5,2.7,0.9,5.5,1.3,8.2c0.2,1.4,0.4,2.7,0.6,4.1c0.1,0.7,0.3,1.3,0.4,1.9
		c0,0.1,0.1,0.3,0.1,0.4l0.1,0.1l0.1,0.1c0.1,0.1,0.3,0.4,0.5,0.6c0.9,0.9,2,1.7,3.1,2.5c1.1,0.8,2.3,1.5,3.4,2.2
		c1.2,0.7,2.4,1.4,3.6,2c0.6,0.3,1.2,0.6,1.8,0.8c0.6,0.2,1.3,0.4,1.8,0.4c0.5,0,1.2-0.1,1.8-0.3c0.6-0.2,1.3-0.4,1.9-0.7
		c1.3-0.5,2.5-1.1,3.7-1.7c1.2-0.6,2.4-1.3,3.6-2.1c1.2-0.7,2.3-1.5,3.3-2.4c0.2-0.2,0.5-0.5,0.7-0.7c0.2-0.2,0.3-0.6,0.4-0.9
		c0.2-0.6,0.4-1.3,0.5-2c0.3-1.4,0.5-2.7,0.7-4.1c0.4-2.8,0.7-5.5,1-8.3L231.8,72z"/>
	<polygon clip-path="url(#SVGID_2_)" fill="#FFFFFF" points="203.8,91.5 202.8,93.6 213.4,99.4 209,107.3 201.6,96.2 	"/>
	<path clip-path="url(#SVGID_2_)" fill="#010101" d="M209,107.9l-7.7-11.7l2.3-4.8l0.6,0.3l-0.8,1.8l10.6,5.7L209,107.9z M202,96.2
		l6.9,10.5l4-7.2l-10-5.4L202,96.2z"/>
	<polygon clip-path="url(#SVGID_2_)" fill="#FFFFFF" points="223.5,91.4 224.9,93.5 215.1,99.4 219.5,107.3 227.6,97.5 	"/>
	<path clip-path="url(#SVGID_2_)" fill="#010101" d="M219.5,107.9l-4.8-8.6l9.8-5.8l-1.3-1.9l0.5-0.4l1.7,2.4l0,0l2.6,3.9
		L219.5,107.9z M215.5,99.5l4.1,7.2l7.6-9.2l-2.4-3.5L215.5,99.5z"/>
	<polygon clip-path="url(#SVGID_2_)" fill="#B72025" points="218.9,121 214.3,125.9 209.5,121.1 212.2,109.5 210,105.4 213.4,99 
		214.3,98.5 214.2,98.5 215.1,99 218.5,105.3 216.3,109.4 	"/>
	<path clip-path="url(#SVGID_2_)" fill="#010101" d="M219.3,121.1l-4.7,5.1l-0.2,0.2l-0.9,0.4l-5.4-4.1l-0.1-0.1l0.7-0.8l2.2-12.2
		l0.3,0.6l-1.4-4.5l0-0.2l0.1-0.1l3.4-6.1l0.1-0.1l0.2,0l0.9-0.7l0.1,0.1l-0.1,0l-0.2,0.1l0.6,0.7l0.2,0.2l0.3-0.1l3.5,6l0.2,0.1
		l-0.1,0.1l-2.2,4l0-0.2L219.3,121.1z M218.6,120.9l-2.6-11.3l0-0.1l-1.1-0.1l1.1-4v0.3l-2.3-6.1l0.8,0.2l-0.6-0.3l0.3-0.8l0.1,0
		l0.1,0.8l-0.9,0.3l-0.7-0.1l-4.4,6.2v-0.3l3.9,3.6l0.7,0.3l0.1,0.5l-3.3,11.5l0-0.3l4.8,4.8l-0.5,0L218.6,120.9z"/>
	<path clip-path="url(#SVGID_2_)" fill="#E5E5E5" d="M217.9,49.9c0,0-10.9-5.6-13.4-5.6c-2.5,0-11.3,4.2-11.4,6.6
		c-0.1,2.4-0.6,15.1-0.6,15.1l-10.4,2.7c0,0,15,7.1,31.3,7.1c16.8,0,33.2-5.7,33.2-5.7L234.5,66c0,0-0.4-12.9-0.6-15.1
		c-0.2-1.7-7.3-6.5-10.6-6.5c-3.3,0-9.8,3.3-9.8,3.3"/>
	<path clip-path="url(#SVGID_2_)" fill="#010101" d="M217.9,49.9l-5-2.1c-1.7-0.7-3.3-1.3-5-1.9c-0.8-0.3-1.7-0.6-2.5-0.8
		c-0.2-0.1-0.4-0.1-0.6-0.1c-0.1,0-0.2,0-0.3,0c0,0,0,0-0.1,0l-0.1,0l-0.1,0c-0.4,0.1-0.8,0.2-1.2,0.3c-1.6,0.5-3.2,1.3-4.8,2.2
		c-0.8,0.4-1.5,0.9-2.2,1.4c-0.7,0.5-1.3,1.1-1.8,1.6c-0.1,0.1-0.2,0.3-0.2,0.4c0,0,0,0.1,0,0.1c0,0,0,0,0,0l0,0.2l0,1.4l-0.1,2.7
		c-0.1,3.6-0.3,7.2-1.2,10.8l0,0.2l-0.3,0.1l-10,4.1l0.3-3.3c2.3,1.1,4.9,2.2,7.4,3.1c2.5,0.9,5.1,1.7,7.8,2.4
		c5.3,1.3,10.6,2.2,16,2.2c5.4,0.1,9.6-0.4,15-1.3c5.4-0.9,12.2-2.1,14.7-3.7v0.6l-10.8-4.1l0.8-0.3l0.9-0.5l0.1,0l-0.6-9.3
		c-0.1-1.6-0.3-3.1-0.4-4.7l-0.1-0.5c0-0.2-0.1-0.3-0.2-0.4c-0.2-0.3-0.4-0.6-0.7-0.9c-0.5-0.6-1.2-1-1.8-1.5
		c-1.3-0.9-2.6-1.8-4.1-2.4c-0.7-0.3-1.5-0.6-2.2-0.9c-0.8-0.2-1.5-0.3-2.3-0.2c-1.6,0.2-3.1,0.7-4.6,1.3c-1.5,0.6-2.9,1.2-4.4,1.9
		l-0.1-0.2c1.4-0.7,2.9-1.4,4.4-2c1.5-0.6,3-1.1,4.6-1.4c0.8-0.1,1.7,0,2.4,0.2c0.8,0.2,1.5,0.5,2.3,0.9c1.5,0.7,2.8,1.5,4.2,2.4
		c0.7,0.5,1.3,1,1.9,1.6c0.3,0.3,0.6,0.6,0.8,1c0.1,0.1,0.1,0.2,0.1,0.3c0,0.1,0,0.1,0,0.2c0,0.1,0,0.1,0,0.2l0,0.6
		c0.1,1.6,0.2,3.2,0.3,4.8l0.4,9.6l-0.3,0.1l12.1,4.5l0,0l0.9-0.1l-0.9,0.1c-5.2,1.9-10.6,3.2-16,4.3c-5.4,1.1-10.9,1.8-16.5,2
		c-5.6,0.2-11.2-0.5-16.7-1.6c-2.7-0.6-5.5-1.3-8.1-2.1c-2.7-0.8-5.3-1.7-8-2.9l-4.5-2l4.8-1.4l10.8-1.3l-0.2,0.3l0,0
		c-0.6-3.6-0.5-7.3-0.3-10.9l0.1-2.7l0.1-1.4l0-0.2c0,0,0-0.2,0-0.3c0-0.2,0.1-0.4,0.2-0.5c0.1-0.3,0.3-0.6,0.5-0.8
		c0.7-0.9,1.5-1.4,2.3-2c0.8-0.5,1.6-1,2.4-1.4c1.7-0.8,3.4-1.6,5.2-2c0.5-0.1,0.9-0.7,1.5-0.7l0.2-0.5l0.1,0l0.1,0.4
		c0.2,0,0.3,0.3,0.4,0.3c0.3,0,0.5,0.2,0.7,0.3c0.9,0.3,1.8,0.7,2.6,1.1c1.7,0.7,3.3,1.6,4.9,2.5C214.8,48.1,216.4,49,217.9,49.9"/>
	<path clip-path="url(#SVGID_2_)" fill="#010101" d="M206.6,137.1c0,0.8-0.6,1.4-1.4,1.4c-0.8,0-1.4-0.6-1.4-1.4
		c0-0.8,0.6-1.4,1.4-1.4C206,135.7,206.6,136.3,206.6,137.1"/>
	<path clip-path="url(#SVGID_2_)" fill="#010101" d="M225.7,137.1c0,0.8-0.6,1.4-1.4,1.4c-0.8,0-1.4-0.6-1.4-1.4
		c0-0.8,0.6-1.4,1.4-1.4C225.1,135.7,225.7,136.3,225.7,137.1"/>
	<path clip-path="url(#SVGID_2_)" fill="#010101" d="M209.2,152.3c0,0.8-0.6,1.4-1.4,1.4c-0.8,0-1.4-0.6-1.4-1.4
		c0-0.8,0.6-1.4,1.4-1.4C208.6,151,209.2,151.6,209.2,152.3"/>
	<path clip-path="url(#SVGID_2_)" fill="#010101" d="M223.1,152.3c0,0.8-0.6,1.4-1.4,1.4c-0.8,0-1.4-0.6-1.4-1.4
		c0-0.8,0.6-1.4,1.4-1.4C222.5,151,223.1,151.6,223.1,152.3"/>
	<path clip-path="url(#SVGID_2_)" fill="#010101" d="M209.2,168.2c0,0.8-0.6,1.4-1.4,1.4c-0.8,0-1.4-0.6-1.4-1.4
		c0-0.8,0.6-1.4,1.4-1.4C208.6,166.8,209.2,167.5,209.2,168.2"/>
	<path clip-path="url(#SVGID_2_)" fill="#010101" d="M223.1,168.2c0,0.8-0.6,1.4-1.4,1.4c-0.8,0-1.4-0.6-1.4-1.4
		c0-0.8,0.6-1.4,1.4-1.4C222.5,166.8,223.1,167.5,223.1,168.2"/>
	<path clip-path="url(#SVGID_2_)" fill="#010101" d="M55.9,317.8c-1.6,2.3-8.9,12.4-10.6,15.2c-2,3.1-3.2,9.6-0.8,11.4
		c2.4,1.7,14.4,1.5,19.1,0c4.7-1.5,14.8-11.2,16.9-14.1c1.7-2.3,2.4-9,2.7-12"/>
	<path clip-path="url(#SVGID_2_)" fill="#010101" d="M52.7,345.9c-3.8,0-7.3-0.4-8.5-1.3c-2.7-2-1.1-8.8,0.8-11.8
		c1.8-2.8,9.1-13.2,10.6-15.2l0.5,0.4c-0.9,1.3-8.8,12.3-10.6,15.2c-1.9,3-3.1,9.4-0.9,10.9c2.3,1.7,14.3,1.4,18.8,0
		c4.6-1.5,14.7-11.2,16.8-14c1.6-2.1,2.2-8,2.6-11.2l0.1-0.6l0.6,0.1l-0.1,0.6c-0.4,3.3-1,9.3-2.7,11.5c-2,2.7-12.2,12.6-17.1,14.2
		C61.1,345.5,56.7,345.9,52.7,345.9"/>
	<path clip-path="url(#SVGID_2_)" fill="#010101" d="M122,318.4c2.9,3.8,10.1,13.2,10.6,15.2c0.8,2.8,4,10,0.9,11.4
		c-3.1,1.4-14.6,0.7-19.1,0c-4.5-0.7-14-11.2-16.9-14.1c-2.4-2.3-2.8-8.5-3.1-12.2"/>
	<path clip-path="url(#SVGID_2_)" fill="#010101" d="M126.1,346.1c-4.4,0-9.3-0.4-11.7-0.8c-3.8-0.6-10.8-7.8-15.1-12.1
		c-0.8-0.9-1.5-1.6-2-2.1c-2.4-2.3-2.8-8.1-3.1-11.9l0-0.5l0.7-0.1l0,0.5c0.3,3.7,0.7,9.4,2.9,11.5c0.5,0.5,1.2,1.2,2.1,2.1
		c3.9,4,11.1,11.3,14.7,11.9c4.7,0.8,15.9,1.3,18.9,0c2.3-1,0.6-5.8-0.4-9.1c-0.3-0.8-0.5-1.4-0.6-1.9c-0.4-1.6-5.7-8.8-10.6-15.1
		l0.5-0.4c3,3.9,10.1,13.2,10.7,15.3c0.1,0.5,0.3,1.1,0.6,1.9c1.2,3.4,2.9,8.6,0.1,9.9C132.2,345.9,129.3,346.1,126.1,346.1"/>
	<path clip-path="url(#SVGID_2_)" fill="#E5E5E5" d="M100.9,99.4c0,0,20.6,4.9,21.5,7.5c1,2.6,5,72.3,3.8,75.1
		c-1.2,2.8-8.1,8.1-8.7,10.2c-0.6,2.1,8,122.5,6.6,124c-1.4,1.5-2.2,2.3-2.2,2.3s-8.8,3.5-15.5,3.8c-6.7,0.2-14.2-4.1-14.2-4.1
		l-5.5-101.8l0-0.3l-1.7,101.8c0,0-10.7,3.9-17.5,3.5c-6.8-0.4-11.7-3.5-11.7-3.5l-2.2-2.3c0,0,0.6-122.3,0-124.7
		c-0.6-2.4-10.1-8.7-10.8-10.6c-0.7-1.9,0-69.1,1.8-71.6C45.4,107,70,98.5,70,98.5"/>
	<path clip-path="url(#SVGID_2_)" fill="#010101" d="M100.9,99c4.8,1.2,9.7,2.5,14.4,4c1.2,0.4,2.4,0.8,3.5,1.3
		c0.6,0.2,1.2,0.5,1.7,0.8c0.6,0.3,1.1,0.6,1.7,1c0.1,0.1,0.3,0.3,0.4,0.4c0.1,0.2,0.1,0.4,0.2,0.5c0.1,0.3,0.1,0.6,0.1,0.9
		c0.1,0.6,0.1,1.2,0.2,1.9l0.3,3.7c0.8,9.9,1.4,19.9,1.9,29.8c0.5,9.9,1,19.9,1.3,29.9c0,2.5,0.1,5,0,7.5c0,0.3,0,0.6-0.1,1
		c0,0.1-0.1,0.2-0.1,0.3c0,0.1-0.1,0.1-0.1,0.2c-0.1,0.1-0.2,0.3-0.2,0.4c-0.4,0.6-0.7,1-1.2,1.5c-0.8,1-1.7,1.8-2.6,2.7
		c-0.9,0.9-1.8,1.8-2.6,2.7c-0.4,0.4-0.8,0.9-1.2,1.4c-0.2,0.2-0.4,0.5-0.5,0.7c-0.1,0.1-0.1,0.2-0.2,0.4l0,0.1c0,0,0,0,0,0.1l0,0.2
		c0,2.5,0.2,5,0.3,7.4c1.1,19.9,2.4,39.8,3.7,59.6l1.8,29.8c0.3,5,0.5,10,0.8,14.9c0.1,2.5,0.2,5,0.3,7.5c0,1.2,0.1,2.5,0,3.8
		c0,0.2,0,0.3-0.1,0.5c0,0,0,0.1,0,0.1c0,0.1-0.1,0.1-0.1,0.1l-0.1,0.1l-0.2,0.2l-0.4,0.5l-1.3,1l-0.6-0.6l-0.4,0.4l0.3,0.4
		c-2.4,1-4.7,2-7.1,2.8c-2.5,0.7-4.9,1.4-7.6,1.6c-2.7,0.2-6,0.3-8.5-0.4c-2.5-0.7-5.6-0.1-8-2.4l0,0l0.3-0.7l-0.9-0.7l-6-101.9
		l0.1-0.1l1.2-0.1l0.7-0.4l0.3,0L84,317.8l0,0.1l0.5,0c-2.4,1.3-4.4,1.8-6.9,2.5c-2.5,0.7-4.8,1.3-7.3,1.6c-1.3,0.1-2.5,0.2-3.8,0.1
		c-1.3-0.1-2.6-0.3-3.8-0.5c-1.3-0.3-2.5-0.6-3.8-1.1c-1.3-0.5-3.2-0.2-4.4-0.8l-0.9,0.7l-0.1-0.1l-2.1-3l-0.6-0.8l0.2-0.8l0.6-26.5
		l0.3-26.5l0.1-52.9c0-4.4,0.1-8.8,0-13.2l0-3.3l-0.5-1.6l-0.4-0.4l0-0.1l0.4,0.1c0,0.1,0.3,0.2,0.2,0.1c0,0,0.1-0.1,0.1-0.1
		c0,0,0.1,0,0.1,0.1c0,0,0,0,0,0c0,0,0,0,0-0.1c0-0.1-0.1-0.1-0.1-0.2c-0.5-0.6-1.3-1.4-2-2.1c-0.8-0.7-1.6-1.4-2.5-2.1l-2.5-2.1
		c-0.9-0.7-1.7-1.5-2.6-2.4c-0.2-0.3-0.5-0.5-0.7-1l-0.1-0.2l-0.1-0.1c0-0.1,0,0-0.1-0.2l0,0l0-0.2c0-0.2,0-0.2,0-0.2
		c0-0.2,0-0.4-0.1-0.5c0-0.6-0.1-1.2-0.1-1.7c0-1.1-0.1-2.2-0.1-3.3c0-4.4,0-8.8,0-13.3c0.1-8.8,0.2-17.7,0.5-26.5
		c0.2-4.4,0.4-8.8,0.7-13.2c0.1-2.2,0.3-4.4,0.5-6.6c0.1-1.1,0.2-2.2,0.4-3.3c0.1-0.6,0.1-1.1,0.2-1.7c0.1-0.3,0.1-0.6,0.2-0.9
		c0-0.2,0.1-0.3,0.1-0.5c0-0.1,0.1-0.2,0.1-0.3c0-0.1,0.1-0.2,0.2-0.4l-0.1,0.2c0.2-0.3,0.3-0.4,0.4-0.5c0.1-0.1,0.2-0.1,0.3-0.2
		c0.2-0.1,0.3-0.2,0.4-0.3c0.3-0.2,0.5-0.3,0.8-0.4c0.5-0.3,1.1-0.5,1.6-0.7c1.1-0.5,2.1-0.9,3.2-1.3c2.1-0.8,4.3-1.6,6.4-2.4
		c2.2-0.8,4.3-1.5,6.5-2.2l3.2-1.1l1.6-0.5l0.8-0.3c0.3-0.1,0.5-0.2,0.9,0l0.2,0.6c-0.2,0.3-0.5,0.4-0.7,0.5l-0.8,0.3l-1.6,0.6
		l-3.2,1.2c-2.1,0.8-4.2,1.6-6.4,2.5c-2.1,0.8-4.2,1.7-6.3,2.6c-1,0.4-2.1,0.9-3.1,1.4c-0.5,0.2-1,0.5-1.5,0.7
		c-0.2,0.1-0.5,0.3-0.7,0.4c-0.1,0.1-0.2,0.1-0.3,0.2c0,0-0.1,0.1-0.1,0.1c0,0,0,0,0.1-0.2l-0.1,0.1l0,0c0.1-0.1,0.1-0.1,0-0.1
		l0,0.1c0,0.1,0,0.2-0.1,0.3c0,0.2-0.1,0.5-0.1,0.8c-0.1,0.5-0.1,1.1-0.1,1.6c-0.1,1.1-0.1,2.2-0.2,3.3c-0.1,2.2-0.1,4.4-0.2,6.6
		c-0.1,4.4-0.1,8.8-0.2,13.2c-0.1,8.8-0.2,17.6-0.3,26.4c0,4.4,0,8.8,0,13.2c0,1.1,0,2.2,0.1,3.3c0,0.5,0,1.1,0.1,1.6l0,0.3
		c0,0,0,0,0,0c0,0,0-0.1,0-0.1l0,0l0-0.1l0,0c0,0,0,0,0,0c0,0,0.1,0.2,0.3,0.4c0.6,0.7,1.4,1.4,2.2,2.1l2.5,2.1
		c0.9,0.7,1.7,1.4,2.6,2.2c0.9,0.8,1.7,1.5,2.5,2.6c0.1,0.1,0.2,0.3,0.3,0.5c0.1,0.1,0.1,0.2,0.2,0.3l0.1,0.2l0.1,0.3l0,0.1
		c0-0.1,0,0.1,0.1,0.2l0,0.2c0,0.1,0,0.2,0,0.3l0,0.5c0,0.6,0,1.1,0.1,1.7l0.1,3.3c0.1,4.4,0.1,8.8,0.1,13.2
		c0.1,17.6-0.1,35.3-0.1,52.9c0,8.8-0.1,17.6-0.2,26.5c-0.1,8.8-0.2,17.6-0.3,26.4l-0.4-1l2.2,2.4l-0.2-0.2c0.9,0.6,2,1.2,3.1,1.6
		c1.1,0.5,2.3,0.9,3.4,1.2c1.2,0.3,2.4,0.6,3.6,0.7c1.2,0.2,2.4,0.2,3.6,0.1c2.5-0.1,4.7-0.4,7.2-0.9c2.4-0.5,4.3-0.8,7.1-1.8l0,0
		l0,0.2L86.3,216l0.4,0l-0.3,0.3l0-0.1l6.4,101.5l0-1l-0.1,0c2.1,2.5,4.5,2.6,6.8,3.4c2.4,0.8,4.9,1.4,7.4,1.3
		c2.5-0.1,5-0.5,7.5-1.1c2.5-0.6,3.8-1.5,6.2-2.4l-1.2,0l0,0l2.4-1.2l1.2-0.6l0.4-0.1l0.2-0.1c0,0,0.1,0,0.1,0c0,0,0,0,0,0
		c0-0.1,0.1-0.2,0.1-0.4c0.1-1.2,0-2.5,0-3.7c-0.1-2.5-0.2-5-0.3-7.5c-0.2-5-0.5-9.9-0.8-14.9l-1.8-29.8
		c-1.2-19.9-2.6-39.8-3.7-59.7c-0.1-2.5-0.3-5-0.3-7.5l0-0.3c0,0,0-0.1,0-0.2l0-0.1c0.1-0.2,0.1-0.3,0.2-0.5
		c0.2-0.3,0.4-0.5,0.6-0.8c0.4-0.5,0.8-1,1.3-1.4c0.9-0.9,1.8-1.8,2.6-2.7c0.9-0.9,1.8-1.8,2.6-2.7c0.4-0.5,0.8-0.9,1.1-1.4
		c0.1-0.1,0.2-0.3,0.2-0.4c0-0.1,0.1-0.1,0.1-0.2c0-0.1,0-0.1,0-0.2c0.1-0.3,0.1-0.6,0.1-0.9c0.1-2.5,0-5,0-7.4
		c-0.3-9.9-0.8-19.9-1.3-29.8c-0.6-9.9-1.1-19.9-1.9-29.8l-0.3-3.7c-0.1-0.6-0.1-1.2-0.2-1.8c0-0.3-0.1-0.6-0.1-0.9
		c0-0.1-0.1-0.3-0.1-0.3c0-0.1-0.1-0.2-0.2-0.3c-0.4-0.4-1-0.7-1.5-0.9c-0.5-0.3-1.1-0.5-1.7-0.7c-1.1-0.5-2.3-0.9-3.5-1.3
		c-4.7-1.5-9.5-2.8-14.4-4L100.9,99z"/>
	<polyline clip-path="url(#SVGID_2_)" fill="#FFFFFF" points="98.5,98.8 101.1,98.9 89.7,121.3 80.4,121.4 70,98 72.5,97.2 	"/>
	<polygon clip-path="url(#SVGID_2_)" fill="#010101" points="89.9,121.4 80.2,121.3 69.5,97.6 72.4,96.9 72.6,97.6 70.4,98.3 
		80.6,121.4 89.5,121.4 100.6,99.3 98.5,99.1 98.6,98.4 101.6,98.5 	"/>
	<path clip-path="url(#SVGID_2_)" fill="#010101" d="M102.7,73.3l-0.6,4.2c-0.2,1.4-0.4,2.8-0.6,4.2c-0.2,1.4-0.4,2.8-0.7,4.1
		c-0.1,0.7-0.3,1.4-0.5,2.1c-0.1,0.3-0.2,0.7-0.4,1c-0.2,0.3-0.5,0.6-0.7,0.9c-1,1-2.1,1.9-3.3,2.7c-1.2,0.8-2.3,1.6-3.6,2.3
		c-1.2,0.7-2.5,1.4-3.7,2c-0.6,0.3-1.3,0.6-2,0.8C86,97.7,85.3,98,84.4,98c-0.9,0-1.6-0.2-2.3-0.4c-0.7-0.2-1.4-0.5-2.1-0.7
		c-1.3-0.5-2.6-1.2-3.9-1.8c-1.3-0.7-2.5-1.4-3.7-2.1c-1.2-0.8-2.4-1.6-3.5-2.6c-0.3-0.3-0.6-0.6-0.9-1c0-0.1-0.1-0.1-0.1-0.2
		l-0.1-0.1c-0.1-0.1-0.1-0.2-0.2-0.3c-0.1-0.2-0.2-0.4-0.2-0.6c-0.3-0.7-0.4-1.4-0.6-2.2c-0.3-1.4-0.6-2.8-0.8-4.2
		c-0.4-2.8-0.7-5.6-0.8-8.4l2.2-0.2c0.5,2.7,0.9,5.5,1.3,8.2c0.2,1.4,0.4,2.7,0.6,4.1c0.1,0.7,0.3,1.3,0.4,1.9
		c0,0.1,0.1,0.3,0.1,0.4l0,0.1l0.1,0.1c0.1,0.1,0.3,0.4,0.5,0.6c0.9,0.9,2,1.7,3.1,2.5c1.1,0.8,2.3,1.5,3.4,2.2
		c1.2,0.7,2.4,1.4,3.6,2c0.6,0.3,1.2,0.6,1.8,0.8c0.6,0.2,1.3,0.4,1.8,0.4c0.5,0,1.2-0.1,1.8-0.3c0.6-0.2,1.3-0.4,1.9-0.7
		c1.3-0.5,2.5-1.1,3.7-1.7c1.2-0.6,2.4-1.3,3.6-2.1c1.2-0.7,2.3-1.5,3.3-2.4c0.2-0.2,0.5-0.5,0.7-0.7c0.2-0.2,0.3-0.6,0.4-0.9
		c0.2-0.6,0.4-1.3,0.5-2c0.3-1.4,0.5-2.7,0.7-4.1c0.4-2.8,0.7-5.5,1-8.3L102.7,73.3z"/>
	<polygon clip-path="url(#SVGID_2_)" fill="#FFFFFF" points="74.7,92.8 73.7,94.9 84.3,100.7 79.8,108.6 72.5,97.5 	"/>
	<path clip-path="url(#SVGID_2_)" fill="#010101" d="M79.9,109.2l-7.7-11.7l2.3-4.8l0.6,0.3l-0.8,1.8l10.6,5.7L79.9,109.2z
		 M72.9,97.5l6.9,10.5l4-7.2l-10-5.4L72.9,97.5z"/>
	<polygon clip-path="url(#SVGID_2_)" fill="#FFFFFF" points="94.3,92.7 95.8,94.8 86,100.7 90.4,108.6 98.5,98.8 	"/>
	<path clip-path="url(#SVGID_2_)" fill="#010101" d="M90.4,109.2l-4.8-8.6l9.8-5.8l-1.3-1.9l0.5-0.4l1.7,2.4l0,0l2.6,3.9L90.4,109.2
		z M86.4,100.8l4.1,7.2l7.6-9.2l-2.4-3.5L86.4,100.8z"/>
	<polygon clip-path="url(#SVGID_2_)" fill="#B72025" points="89.8,122.3 85.2,127.2 80.4,122.4 83.1,110.8 80.9,106.8 84.3,100.9 
		85.2,101 85.1,101 86,100.9 89.4,106.9 87.2,110.8 	"/>
	<path clip-path="url(#SVGID_2_)" fill="#010101" d="M90.2,122.4l-4.6,5l-0.1,0.1l-0.2-0.2l-4.8-4.8l-0.1-0.1l-0.1-0.1l1.8-11.8
		l0.1,0.8l-1.5-4.4l-0.1-0.2l0.1-0.1l3.4-6.1l0.1-0.1l0.2,0l0.9-0.1l0.1,0.8h-0.1l0.1-0.4l0.9,0.4l0.2,0l0.1-0.2l3.4,5.9l0.1,0.1
		l-0.1,0.1l-2.2,4l0-0.2L90.2,122.4z M89.5,122.2l-2.6-11.3l0-0.1l-1.2-0.1l0.9-4v0.3l-2.1-6.1l0.9,0.2l-0.6,0.3l0.4-0.2h0.1
		l0.1,0.2l-0.9-0.1l-0.9-0.3l-4.5,6l0-0.3l4.1,3.6l0.8,0.3l0.1,0.5l-3.3,11.5l0-0.3l4.8,4.8l-0.5,0L89.5,122.2z"/>
	<path clip-path="url(#SVGID_2_)" fill="#E5E5E5" d="M88.8,51.2c0,0-10.9-5.6-13.4-5.6c-2.5,0-11.3,4.2-11.4,6.6
		c-0.1,2.4-0.6,15.1-0.6,15.1L53,70c0,0,15,7.1,31.3,7.1c16.8,0,33.2-5.7,33.2-5.7l-12.1-4.1c0,0-0.4-12.9-0.6-15.1
		c-0.2-1.7-7.3-6.5-10.6-6.5c-3.3,0-9.8,3.3-9.8,3.3"/>
	<path clip-path="url(#SVGID_2_)" fill="#010101" d="M88.8,51.2l-5-2.1c-1.7-0.7-3.3-1.3-5-1.9c-0.8-0.3-1.7-0.6-2.5-0.8
		c-0.2,0-0.4-0.6-0.6-0.6c-0.1,0-0.2-0.6-0.3-0.6c0,0,0,0-0.1,0l-0.1,0.5L75.2,46c-0.4,0.1-0.8,0.3-1.2,0.4
		c-1.6,0.5-3.2,1.4-4.8,2.2c-0.8,0.4-1.5,0.9-2.2,1.4c-0.7,0.5-1.4,1.1-1.8,1.6c-0.1,0.1-0.8,0.3-0.9,0.4c0,0-0.7,0.1-0.7,0.1
		c0,0,0,0,0,0l0.7,0.2l0.3,1.4l0.1,2.7c-0.1,3.6-0.2,7.2-1.1,10.8l0.1,0.2l-0.2,0.1l-10,4.1l0.3-3.3c2.3,1.1,4.9,2.2,7.4,3.1
		c2.5,0.9,5.1,1.7,7.8,2.4c5.2,1.3,10.6,2.2,16,2.2c5.4,0.1,10.7-0.4,16.1-1.3c5.4-0.9,8.2-2.1,15.8-3.7l0,0.6l-11.9-4.1l-0.1-1
		l0.1-1.1l0,0l-0.3-8.7c-0.1-1.6-0.1-2.8-0.2-4.3l0-0.4c0-0.2,0-0.2-0.1-0.4c-0.2-0.3-0.4-0.6-0.7-0.8c-0.5-0.6-1.2-1-1.8-1.5
		c-1.3-0.9-2.6-1.8-4.1-2.4c-0.7-0.3-1.4-0.6-2.2-0.8c-0.8-0.2-1.5-0.3-2.3-0.2c-1.6,0.2-3.1,0.7-4.6,1.3c-1.5,0.6-2.9,1.2-4.4,1.9
		l-0.1-0.2c1.4-0.7,2.9-1.4,4.4-2c1.5-0.6,3-1.1,4.6-1.4c0.8-0.1,1.7,0,2.4,0.2c0.8,0.2,1.5,0.5,2.3,0.9c1.5,0.7,2.9,1.5,4.2,2.4
		c0.6,0.5,1.3,1,1.9,1.6c0.3,0.3,0.6,0.6,0.8,1c0.1,0.1,0.1,0.2,0.1,0.3c0,0.1,0,0.1,0,0.2c0,0.1,0,0.1,0,0.2l0,0.6
		c0.1,1.6,0.2,3.2,0.3,4.8l0.4,9.6l-0.2-0.6l12.1,3.9h0l0.9,0.5l-0.9,0.5c-5.2,1.9-10.6,3.3-16,4.5C96.2,77.2,90.6,78,85,78.1
		c-5.6,0.2-11.2-0.4-16.7-1.6c-2.7-0.6-5.5-1.3-8.1-2.1c-2.7-0.8-5.3-1.7-8-2.9l-4.5-2l4.8-1.4L63.3,67l-0.2,0.3l0,0
		c-0.6-3.6-0.5-7.2-0.3-10.9l0.1-2.7l0.1-1.4l0-0.2c0,0,0-0.2,0-0.3c0-0.2,0.1-0.4,0.2-0.5c0.1-0.3,0.3-0.6,0.5-0.8
		c0.7-0.9,1.5-1.4,2.3-2c0.8-0.5,1.6-1,2.4-1.4c1.7-0.8,3.4-1.6,5.2-2c0.5-0.1,0.9,0,1.5-0.1l0.2,0.2l0.1,0l0.1-0.2
		c0.2,0,0.3-0.1,0.4,0c0.3,0,0.5,0.1,0.7,0.1c0.9,0.3,1.8,0.6,2.6,1c1.7,0.7,3.3,1.6,4.9,2.4C85.7,49.4,87.3,50.3,88.8,51.2"/>
	<path clip-path="url(#SVGID_2_)" fill="#010101" d="M77.5,138.4c0,0.8-0.6,1.4-1.4,1.4c-0.8,0-1.4-0.6-1.4-1.4
		c0-0.8,0.6-1.4,1.4-1.4C76.9,137,77.5,137.6,77.5,138.4"/>
	<path clip-path="url(#SVGID_2_)" fill="#010101" d="M96.6,138.4c0,0.8-0.6,1.4-1.4,1.4c-0.8,0-1.4-0.6-1.4-1.4
		c0-0.8,0.6-1.4,1.4-1.4C96,137,96.6,137.6,96.6,138.4"/>
	<path clip-path="url(#SVGID_2_)" fill="#010101" d="M80.1,153.6c0,0.8-0.6,1.4-1.4,1.4c-0.8,0-1.4-0.6-1.4-1.4
		c0-0.8,0.6-1.4,1.4-1.4C79.4,152.3,80.1,152.9,80.1,153.6"/>
	<path clip-path="url(#SVGID_2_)" fill="#010101" d="M94,153.6c0,0.8-0.6,1.4-1.4,1.4c-0.8,0-1.4-0.6-1.4-1.4c0-0.8,0.6-1.4,1.4-1.4
		C93.4,152.3,94,152.9,94,153.6"/>
	<path clip-path="url(#SVGID_2_)" fill="#010101" d="M80.1,169.5c0,0.8-0.6,1.4-1.4,1.4c-0.8,0-1.4-0.6-1.4-1.4
		c0-0.8,0.6-1.4,1.4-1.4C79.4,168.1,80.1,168.8,80.1,169.5"/>
	<path clip-path="url(#SVGID_2_)" fill="#010101" d="M94,169.5c0,0.8-0.6,1.4-1.4,1.4c-0.8,0-1.4-0.6-1.4-1.4c0-0.8,0.6-1.4,1.4-1.4
		C93.4,168.1,94,168.8,94,169.5"/>
	<path clip-path="url(#SVGID_2_)" fill="#010101" d="M121.4,334.7c-1.7,2.4-9.1,12.8-10.9,15.6c-2,3.2-3.3,9.9-0.9,11.7
		c2.5,1.8,14.8,1.5,19.6,0s15.2-11.5,17.4-14.5c1.8-2.4,2.4-9.2,2.8-12.3"/>
	<path clip-path="url(#SVGID_2_)" fill="#010101" d="M118.2,363.5c-3.9,0-7.5-0.4-8.7-1.3c-2.7-2-1.1-9.1,0.8-12.1
		c1.8-2.9,9.4-13.5,10.9-15.6l0.5,0.4c-1.5,2.1-9.1,12.7-10.9,15.6c-1.9,3.1-3.2,9.6-1,11.2c2.3,1.7,14.6,1.4,19.3,0
		c4.7-1.5,15.1-11.5,17.2-14.3c1.6-2.1,2.3-8.2,2.6-11.5l0.1-0.7l0.6,0.1l-0.1,0.7c-0.4,3.3-1,9.5-2.8,11.8
		c-2.1,2.8-12.5,12.9-17.5,14.6C126.9,363.1,122.4,363.5,118.2,363.5"/>
	<path clip-path="url(#SVGID_2_)" fill="#010101" d="M189.3,335.3c3,3.9,10.3,13.5,10.9,15.6c0.8,2.9,4.1,10.3,0.9,11.7
		c-3.2,1.4-15,0.7-19.6,0c-4.6-0.7-14.4-11.5-17.4-14.5c-2.4-2.3-2.8-8.7-3.1-12.5"/>
	<path clip-path="url(#SVGID_2_)" fill="#010101" d="M193.5,363.7c-4.5,0-9.5-0.4-12-0.8c-3.9-0.6-11.1-8-15.5-12.4
		c-0.9-0.9-1.6-1.6-2.1-2.1c-2.4-2.3-2.9-8.3-3.2-12.2l0-0.5l0.6-0.1l0,0.5c0.3,3.8,0.8,9.6,3,11.8c0.5,0.5,1.2,1.2,2.1,2.1
		c4,4.1,11.4,11.6,15.1,12.2c4.9,0.8,16.4,1.3,19.4,0c2.3-1,0.7-6-0.4-9.3c-0.3-0.8-0.5-1.4-0.6-2c-0.4-1.6-5.9-9.1-10.8-15.5
		l0.5-0.4c3.1,4,10.4,13.6,11,15.7c0.1,0.5,0.4,1.2,0.6,1.9c1.2,3.5,3,8.9,0.1,10.1C199.8,363.5,196.8,363.7,193.5,363.7"/>
	<path clip-path="url(#SVGID_2_)" fill="#E5E5E5" d="M167.6,110.3c0,0,21.1,5,22.1,7.7c1,2.7,5.1,74.3,3.9,77.1
		c-1.2,2.9-8.3,8.3-8.9,10.5c-0.7,2.2,8.2,125.8,6.8,127.3c-1.4,1.5-2.2,2.4-2.2,2.4s-9,3.6-15.9,3.9c-6.9,0.2-14.5-4.2-14.5-4.2
		l-5.7-104.6l0-0.3l-1.7,104.6c0,0-11,4-18,3.6c-7-0.4-12-3.6-12-3.6l-2.3-2.4c0,0,0.6-125.6,0-128c-0.7-2.4-10.4-8.9-11.1-10.9
		c-0.7-2,0-70.9,1.8-73.5c0.8-1.6,26-10.4,26-10.4"/>
	<path clip-path="url(#SVGID_2_)" fill="#010101" d="M167.7,110c5,1.2,9.9,2.5,14.8,4.1c1.2,0.4,2.4,0.8,3.6,1.3
		c0.6,0.2,1.2,0.5,1.8,0.8c0.6,0.3,1.2,0.6,1.7,1.1c0.1,0.1,0.3,0.3,0.4,0.5c0.1,0.2,0.1,0.4,0.2,0.6c0.1,0.3,0.1,0.6,0.1,1
		c0.1,0.6,0.1,1.3,0.2,1.9l0.3,3.8c0.8,10.2,1.4,20.4,2,30.6c0.5,10.2,1.1,20.4,1.3,30.7c0.1,2.6,0.1,5.1,0,7.7c0,0.3,0,0.6-0.1,1
		c0,0.1-0.1,0.2-0.1,0.3c0,0.1-0.1,0.1-0.1,0.2c-0.1,0.2-0.2,0.3-0.3,0.4c-0.4,0.6-0.8,1.1-1.2,1.6c-0.8,1-1.8,1.9-2.7,2.8
		c-0.9,0.9-1.8,1.8-2.7,2.7c-0.4,0.5-0.9,0.9-1.2,1.4c-0.2,0.2-0.4,0.5-0.5,0.7c-0.1,0.1-0.1,0.3-0.2,0.4l0,0.1c0,0,0,0,0,0.1l0,0.2
		c0,2.5,0.2,5.1,0.3,7.6c1.1,20.4,2.5,40.8,3.8,61.3l1.8,30.6c0.3,5.1,0.6,10.2,0.8,15.3c0.1,2.6,0.2,5.1,0.3,7.7
		c0,1.3,0.1,2.6,0,3.9c0,0.2,0,0.3-0.1,0.5c0,0,0.1,0.2,0.1,0.2c0,0.1,0,0.2,0,0.2l-0.1,0.1l-0.3,0.1l-0.7,0.6l-1.3,1.4l-0.1,0
		l-0.1,0c-2.5,1-5,1.9-7.6,2.6c-2.6,0.7-5.2,1.3-7.9,1.5c-2.7,0.2-6,0.9-8.6,0.2c-2.6-0.8-6.8-0.7-8-1.9l0,0l0.1-1.4l-1.2-1.1
		l-6.4-105l0.1-0.1l1.4,0.1l1.3-0.1l0.1,0l0.7-0.2l-1.7,104.5l-2,0.1l-2.3,0v0c-2.5,1.3-2.9,1.8-5.4,2.5c-2.5,0.7-4,1.3-6.7,1.6
		c-1.3,0.1-2.2,0.2-3.5,0.1c-1.3-0.1-2.4-0.3-3.7-0.5c-1.3-0.3-2.5-0.6-3.7-1.1c-1.3-0.5-2.4-1-3.7-1.7l-0.1-0.1l-0.1-0.1l-2.7-2.3
		l-0.8-0.4l0-0.6l0.3-27.2l0.2-27.2l0-54.3c0-4.5,0-9.1,0-13.6l0-3.4l0-1.7l0-0.4l0-0.1l0,0.1c0,0.1,0.1,0.2,0,0.1c0,0,0-0.1,0-0.1
		c0,0,0,0,0,0.1c0,0,0,0,0,0c0,0,0,0,0-0.1c0-0.1-0.1-0.1-0.1-0.2c-0.5-0.7-1.3-1.4-2.1-2.2c-0.8-0.7-1.7-1.5-2.5-2.2l-2.6-2.2
		c-0.9-0.8-1.7-1.5-2.7-2.5c-0.2-0.3-0.5-0.5-0.7-1l-0.1-0.2l-0.1-0.1c0-0.1,0,0-0.1-0.2l0,0l0-0.2c0-0.2,0-0.2,0-0.2
		c0-0.2,0-0.4-0.1-0.5c0-0.6-0.1-1.2-0.1-1.8c0-1.2-0.1-2.3-0.1-3.4c0-4.6,0-9.1,0-13.6c0.1-9.1,0.2-18.1,0.6-27.2
		c0.2-4.5,0.4-9.1,0.7-13.6c0.1-2.3,0.3-4.5,0.5-6.8c0.1-1.1,0.2-2.3,0.4-3.4c0.1-0.6,0.1-1.1,0.2-1.7c0-0.3,0.1-0.6,0.2-0.9
		c0-0.2,0.1-0.3,0.1-0.5c0-0.1,0.1-0.2,0.1-0.3c0-0.1,0.1-0.2,0.2-0.4l-0.1,0.2c0.2-0.3,0.3-0.4,0.4-0.5c0.1-0.1,0.2-0.2,0.3-0.2
		c0.2-0.1,0.3-0.2,0.5-0.3c0.3-0.2,0.6-0.3,0.8-0.4c0.6-0.3,1.1-0.5,1.6-0.7c1.1-0.5,2.2-0.9,3.3-1.3c2.2-0.8,4.4-1.6,6.6-2.4
		c2.2-0.8,4.4-1.5,6.6-2.3l3.3-1.1l1.7-0.6l0.8-0.3c0.3-0.1,0.6-0.2,0.9-0.1l0.2,0.6c-0.2,0.3-0.5,0.4-0.7,0.5l-0.8,0.3l-1.6,0.6
		l-3.3,1.2c-2.2,0.8-4.4,1.7-6.5,2.5c-2.2,0.9-4.3,1.7-6.5,2.7c-1.1,0.5-2.1,0.9-3.2,1.4c-0.5,0.2-1,0.5-1.5,0.8
		c-0.2,0.1-0.5,0.3-0.7,0.4c-0.1,0.1-0.2,0.1-0.3,0.2c0,0-0.1,0.1-0.1,0.1c0,0,0,0,0.1-0.2l-0.1,0.1l0,0c0.1-0.1,0.1-0.1,0-0.1
		l0,0.1c0,0.1,0,0.2-0.1,0.3c0,0.2-0.1,0.5-0.1,0.8c-0.1,0.5-0.1,1.1-0.1,1.6c-0.1,1.1-0.1,2.2-0.2,3.4c-0.1,2.2-0.2,4.5-0.2,6.8
		c-0.1,4.5-0.1,9-0.2,13.6c-0.1,9-0.3,18.1-0.3,27.1c0,4.5,0,9,0,13.5c0,1.1,0,2.3,0.1,3.4c0,0.5,0,1.1,0.1,1.6l0,0.3c0,0,0,0,0,0
		c0,0,0-0.1,0-0.1l0,0l0-0.1l0,0c0,0,0,0,0,0c0,0,0.1,0.2,0.3,0.4c0.6,0.7,1.5,1.4,2.3,2.1l2.6,2.2c0.9,0.7,1.8,1.5,2.6,2.3
		c0.9,0.8,1.7,1.6,2.6,2.7c0.1,0.1,0.2,0.3,0.3,0.5c0.1,0.1,0.1,0.2,0.2,0.3l0.1,0.2l0.1,0.3l0,0.1c0-0.1,0,0.1,0.1,0.2l0,0.2
		c0,0.2,0,0.2,0,0.3l0,0.5c0,0.6,0,1.2,0.1,1.7l0.1,3.4c0.1,4.5,0.1,9.1,0.1,13.6c0.1,18.1-0.1,36.2-0.2,54.3
		c0,9.1-0.1,18.1-0.2,27.2c-0.1,9.1-0.2,18.1-0.3,27.2l-0.4-1l2.2,2.5l-0.2-0.2c0.9,0.6,2.1,1.2,3.2,1.7c1.1,0.5,2.3,0.9,3.5,1.2
		c1.2,0.3,2.4,0.6,3.7,0.7c1.2,0.2,2.5,0.2,3.7,0.1c2.5-0.1,5.1-0.6,7.6-1.1c2.5-0.5,5-1.4,7.5-2l-0.2,0.4l0-104.5l-1.1,0.1l0,0
		l1.7,0.3l0.9,0l6.7,103.4l0-1.8l0,0c2.2,2.5,4.6,3.5,7.1,4.3c2.5,0.8,5,1.9,7.6,1.7c2.6-0.1,5.2-0.3,7.7-1c2.6-0.6,4.6-1.3,7-2.2
		l-0.6,0.2l0,0l1.8-1.4l0.9-0.7l0.3-0.2l0.2-0.1c0,0,0,0,0,0c0,0,0,0,0,0c0-0.1,0.1-0.3,0.1-0.4c0.1-1.2,0-2.5,0-3.8
		c-0.1-2.5-0.2-5.1-0.3-7.7c-0.2-5.1-0.5-10.2-0.8-15.3l-1.8-30.6c-1.2-20.4-2.6-40.8-3.8-61.3c-0.1-2.6-0.3-5.1-0.3-7.7l0-0.3
		c0,0,0-0.1,0-0.2l0-0.1c0.1-0.2,0.1-0.3,0.2-0.5c0.2-0.3,0.4-0.6,0.6-0.8c0.4-0.5,0.8-1,1.3-1.5c0.9-0.9,1.8-1.8,2.7-2.7
		c0.9-0.9,1.8-1.8,2.6-2.8c0.4-0.5,0.8-1,1.1-1.5c0.1-0.1,0.2-0.3,0.2-0.4c0-0.1,0.1-0.1,0.1-0.2c0-0.1,0-0.1,0.1-0.2
		c0.1-0.3,0.1-0.6,0.1-0.9c0.1-2.5,0-5.1,0-7.6c-0.3-10.2-0.8-20.4-1.3-30.6c-0.6-10.2-1.2-20.4-2-30.6l-0.3-3.8
		c-0.1-0.6-0.1-1.3-0.2-1.9c0-0.3-0.1-0.6-0.1-0.9c0-0.1-0.1-0.3-0.1-0.4c-0.1-0.1-0.1-0.2-0.2-0.3c-0.4-0.4-1-0.7-1.5-1
		c-0.6-0.3-1.1-0.5-1.7-0.8c-1.2-0.5-2.4-0.9-3.6-1.3c-4.8-1.6-9.8-2.9-14.7-4.1L167.7,110z"/>
	<polyline clip-path="url(#SVGID_2_)" fill="#FFFFFF" points="165.2,109.8 167.9,110.4 156.2,134 146.6,134 135.9,109.5 
		138.5,108.4 	"/>
	<polygon clip-path="url(#SVGID_2_)" fill="#010101" points="156.4,134 146.4,134 146.3,133.8 135.5,109.1 138.4,108.1 138.6,108.7 
		136.3,109.8 146.8,134 156,134 167.4,110.8 165.2,110.3 165.3,109.5 168.4,110.1 	"/>
	<path clip-path="url(#SVGID_2_)" fill="#010101" d="M169.5,83.6l-0.6,4.3c-0.2,1.4-0.4,2.8-0.6,4.3c-0.2,1.4-0.4,2.8-0.7,4.3
		c-0.1,0.7-0.3,1.4-0.5,2.1c-0.1,0.3-0.2,0.7-0.5,1.1c-0.2,0.3-0.5,0.6-0.7,0.9c-1,1-2.2,1.9-3.4,2.8c-1.2,0.8-2.4,1.6-3.6,2.3
		c-1.2,0.7-2.5,1.4-3.8,2c-0.7,0.3-1.3,0.6-2,0.9c-0.7,0.2-1.4,0.5-2.3,0.5c-0.9,0-1.6-0.2-2.4-0.4c-0.7-0.2-1.4-0.5-2.1-0.7
		c-1.4-0.6-2.7-1.2-4-1.9c-1.3-0.7-2.6-1.4-3.8-2.2c-1.2-0.8-2.4-1.6-3.6-2.7c-0.3-0.3-0.6-0.6-0.9-1c0-0.1-0.1-0.1-0.1-0.2
		l-0.1-0.1c-0.1-0.1-0.1-0.3-0.2-0.4c-0.1-0.2-0.2-0.4-0.2-0.6c-0.3-0.8-0.4-1.5-0.6-2.2c-0.3-1.4-0.6-2.9-0.8-4.3
		c-0.4-2.9-0.7-5.7-0.8-8.6l2.2-0.2c0.5,2.8,0.9,5.6,1.3,8.4c0.2,1.4,0.4,2.8,0.7,4.2c0.1,0.7,0.3,1.4,0.4,2c0,0.1,0.1,0.3,0.1,0.4
		l0.1,0.1l0.1,0.1c0.1,0.1,0.3,0.4,0.5,0.6c0.9,0.9,2,1.8,3.2,2.6c1.1,0.8,2.3,1.6,3.5,2.3c1.2,0.7,2.4,1.4,3.7,2
		c0.6,0.3,1.3,0.6,1.9,0.8c0.6,0.2,1.3,0.4,1.8,0.4c0.6,0,1.2-0.1,1.9-0.3c0.7-0.2,1.3-0.4,2-0.7c1.3-0.5,2.6-1.1,3.8-1.8
		c1.3-0.7,2.5-1.4,3.7-2.1c1.2-0.8,2.4-1.6,3.4-2.5c0.3-0.2,0.5-0.5,0.7-0.7c0.2-0.2,0.3-0.6,0.4-0.9c0.2-0.7,0.4-1.4,0.5-2.1
		c0.3-1.4,0.6-2.8,0.8-4.2c0.4-2.8,0.8-5.7,1-8.5L169.5,83.6z"/>
	<polygon clip-path="url(#SVGID_2_)" fill="#FFFFFF" points="140.8,103.6 139.8,105.8 150.6,111.7 146.1,119.8 138.5,108.4 	"/>
	<path clip-path="url(#SVGID_2_)" fill="#010101" d="M146.1,120.5l-7.9-12l2.3-5l0.6,0.3l-0.9,1.9l10.9,5.9L146.1,120.5z
		 M138.9,108.4l7.1,10.8l4.1-7.4l-10.3-5.6L138.9,108.4z"/>
	<polygon clip-path="url(#SVGID_2_)" fill="#FFFFFF" points="160.9,103.5 162.5,105.7 152.4,111.7 156.9,119.8 165.2,109.8 	"/>
	<path clip-path="url(#SVGID_2_)" fill="#010101" d="M156.9,120.4l-5-8.8l10.1-6l-1.3-1.9l0.5-0.4l1.7,2.5l0,0l2.7,4L156.9,120.4z
		 M152.8,111.8l4.2,7.5l7.8-9.5l-2.5-3.6L152.8,111.8z"/>
	<polygon clip-path="url(#SVGID_2_)" fill="#B72025" points="156.3,133.9 151.5,139 146.7,134 149.4,122.1 147.1,118.9 150.6,113.7 
		151.5,113.7 151.4,113.7 152.4,113.7 155.9,119 153.6,122.6 	"/>
	<path clip-path="url(#SVGID_2_)" fill="#010101" d="M156.6,134l-5.3,5.6l-0.7,0.7l-0.2-0.2l-4.9-4.9l-0.1-0.1l0.5-0.6l2.2-12.4
		l0.2,0.7l-1.5-4.6l0-0.2l0.1-0.1l3.5-6.2l0.1-0.1l0.2,0l0.9,0.8l0.1,1.6l-0.1,0l0.1-1.6l0.9-0.3l0.1-0.2l0.1,0l3.5,6.2l0.1,0.1
		l-0.1,0.1l-2.3,4.1l0-0.2L156.6,134z M155.9,133.8l-2.7-11.6l0-0.1l-1.5-0.1l0.7-4.1l0,0.3l-2-6.2l1,0.2l-0.5-0.2l0.4-0.6l0.1,0
		l0.1,0.6l-0.9,0.2l-1-0.2l-4.7,6.2l0-0.3l4.2,3.7l0.9,0.3l0.2,0.5l-3.4,11.8l0-0.3l4.9,4.9l-0.4,0L155.9,133.8z"/>
	<path clip-path="url(#SVGID_2_)" fill="#E5E5E5" d="M155.3,60.9c0,0-11.2-5.8-13.8-5.8c-2.6,0-11.6,4.3-11.7,6.8
		c-0.1,2.5-0.6,15.5-0.6,15.5l-10.7,2.8c0,0,15.4,7.3,32.1,7.3c17.3,0,34.1-5.9,34.1-5.9l-12.4-4.2c0,0-0.4-13.2-0.6-15.5
		c-0.2-1.8-7.5-6.7-10.9-6.7c-3.4,0-10,3.4-10,3.4"/>
	<path clip-path="url(#SVGID_2_)" fill="#010101" d="M155.3,60.9l-5.1-2.2c-1.7-0.7-3.4-1.4-5.2-2c-0.9-0.3-1.7-0.6-2.6-0.8
		c-0.2-0.1-0.4-0.3-0.6-0.3c-0.1,0-0.2-0.2-0.3-0.2l0,0c0,0,0,0.2,0,0.2l-0.1,0.1l-0.1,0.1c-0.4,0.1-0.8,0.2-1.2,0.3
		c-1.7,0.6-3.3,1.4-4.9,2.2c-0.8,0.4-1.5,0.9-2.3,1.4c-0.7,0.5-1.4,1.1-1.8,1.7c-0.1,0.1-0.2,0.3-0.2,0.4c0,0,0,0.1,0,0.1l0,0.2
		l0,1.4l-0.1,2.8c-0.1,3.7-0.3,7.4-1.2,11.1l0,0.2l-0.3,0.1L119,82l0.3-3.3c2.4,1.2,5,2.2,7.6,3.1c2.6,0.9,5.3,1.7,8,2.4
		c5.4,1.4,10.9,2.2,16.5,2.3c5.6,0.1,10.4-0.5,15.9-1.3c5.5-0.9,8-2.1,15.6-3.8v1.9l1.5,0l-12.3-4.9l-0.3,0l-0.2-0.2h0L171,68
		c-0.1-1.6-0.7-3.8-0.7-5.4l0-0.5c0-0.2,0.5-0.3,0.4-0.4c-0.2-0.3-0.1-0.6-0.4-0.9c-0.6-0.6-1-1.1-1.7-1.6c-1.3-1-2.6-1.8-4.1-2.5
		c-0.7-0.3-1.5-0.7-2.2-0.9c-0.8-0.2-1.6-0.3-2.3-0.2c-1.6,0.2-3.2,0.7-4.7,1.3c-1.5,0.6-3,1.3-4.5,2l-0.1-0.2c1.5-0.7,3-1.4,4.5-2
		c1.5-0.6,3.1-1.1,4.8-1.4c0.8-0.1,1.7,0,2.5,0.2c0.8,0.2,1.6,0.5,2.3,0.9c1.5,0.7,2.9,1.5,4.3,2.5c0.7,0.5,1.3,1,1.9,1.6
		c0.3,0.3,0.6,0.6,0.8,1c0.1,0.1,0.1,0.2,0.1,0.3c0,0.1,0,0.1,0,0.2c0,0.1,0,0.1,0,0.2l0,0.6c0.1,1.6,0,3.3,0.1,4.9l0.2,9.8
		l-0.1-0.6l12.5,3.9l0,0l0.9,0.6l-0.9,0.5c-5.4,1.9-10.8,3.4-16.4,4.6c-5.6,1.1-11.2,1.9-17,2.1c-5.7,0.2-11.5-0.4-17.1-1.6
		c-2.8-0.6-5.6-1.3-8.3-2.1c-2.8-0.9-5.4-1.8-8.2-3l-4.5-1.9l4.8-1.4l11-1.4l-0.2,0.3c-0.6-3.7-0.5-7.4-0.3-11.1l0.1-2.8l0.1-1.4
		l0-0.2c0,0,0-0.2,0-0.3c0-0.2,0.1-0.4,0.2-0.6c0.1-0.3,0.3-0.6,0.5-0.8c0.7-0.9,1.5-1.5,2.3-2c0.8-0.5,1.6-1,2.5-1.4
		c1.7-0.9,3.5-1.6,5.3-2.1c0.5-0.1,1,0.3,1.5,0.2l0.2,0.5l0.1,0l0.1,0l0.1-0.5c0.2,0,0.3-0.2,0.4-0.2c0.3,0,0.5,0,0.7,0.1
		c0.9,0.3,1.8,0.6,2.7,1c1.7,0.8,3.4,1.6,5,2.5C152.1,59.1,153.7,59.9,155.3,60.9"/>
	<path clip-path="url(#SVGID_2_)" fill="#010101" d="M143.7,150.4c0,0.8-0.6,1.4-1.4,1.4c-0.8,0-1.4-0.6-1.4-1.4s0.6-1.4,1.4-1.4
		C143,149,143.7,149.7,143.7,150.4"/>
	<path clip-path="url(#SVGID_2_)" fill="#010101" d="M163.2,150.4c0,0.8-0.6,1.4-1.4,1.4c-0.8,0-1.4-0.6-1.4-1.4
		c0-0.8,0.6-1.4,1.4-1.4C162.6,149,163.2,149.7,163.2,150.4"/>
	<path clip-path="url(#SVGID_2_)" fill="#010101" d="M146.3,166.1c0,0.8-0.6,1.4-1.4,1.4c-0.8,0-1.4-0.6-1.4-1.4
		c0-0.8,0.6-1.4,1.4-1.4C145.6,164.7,146.3,165.3,146.3,166.1"/>
	<path clip-path="url(#SVGID_2_)" fill="#010101" d="M160.6,166.1c0,0.8-0.6,1.4-1.4,1.4c-0.8,0-1.4-0.6-1.4-1.4
		c0-0.8,0.6-1.4,1.4-1.4C160,164.7,160.6,165.3,160.6,166.1"/>
	<path clip-path="url(#SVGID_2_)" fill="#010101" d="M146.3,182.4c0,0.8-0.6,1.4-1.4,1.4c-0.8,0-1.4-0.6-1.4-1.4s0.6-1.4,1.4-1.4
		C145.6,181,146.3,181.6,146.3,182.4"/>
	<path clip-path="url(#SVGID_2_)" fill="#010101" d="M160.6,182.4c0,0.8-0.6,1.4-1.4,1.4c-0.8,0-1.4-0.6-1.4-1.4
		c0-0.8,0.6-1.4,1.4-1.4C160,181,160.6,181.6,160.6,182.4"/>
	<path clip-path="url(#SVGID_2_)" fill="none" stroke="#FFFFFF" stroke-width="1.25" stroke-miterlimit="10" d="M141.8,672.2
		l-50.6,50.6 M636.4,177.6L687,127 M-330.4,200.1l-50.6,50.6 M164.2-294.6l50.6-50.6 M164.2,672.2l50.6,50.6 M-330.4,177.6L-381,127
		 M636.4,200.1l50.6,50.6 M141.8-294.6l-50.6-50.6"/>
	<path clip-path="url(#SVGID_2_)" fill="none" stroke="#000000" stroke-width="0.25" stroke-miterlimit="10" d="M141.8,672.2
		l-50.6,50.6 M636.4,177.6L687,127 M-330.4,200.1l-50.6,50.6 M164.2-294.6l50.6-50.6 M164.2,672.2l50.6,50.6 M-330.4,177.6L-381,127
		 M636.4,200.1l50.6,50.6 M141.8-294.6l-50.6-50.6"/>
</g>
</svg>
