<?xml version="1.0" encoding="utf-8"?>
<!-- Generator: Adobe Illustrator 18.1.1, SVG Export Plug-In . SVG Version: 6.00 Build 0)  -->
<!DOCTYPE svg PUBLIC "-//W3C//DTD SVG 1.1//EN" "http://www.w3.org/Graphics/SVG/1.1/DTD/svg11.dtd">
<svg version="1.1" id="Layer_1" xmlns="http://www.w3.org/2000/svg" xmlns:xlink="http://www.w3.org/1999/xlink" x="0px" y="0px"
	 viewBox="0 0 300 300" enable-background="new 0 0 300 300" xml:space="preserve">
<g>
	<path d="M155.5,152.9c-15.6,5.9-18.3,14.1-18.3,27.3h-1.3c-0.4-2.9-0.7-5.3-0.7-7.7c0-19.4,26.8-41.1,26.8-72.4
		c0-17.2-9-33.9-27.7-33.9c-21.8,0-27.5,14.7-27.9,19.6c2-0.9,4.4-1.3,7-1.3c12.1,0,24.6,8.1,24.6,25.5c0,17.2-12.1,26.2-25.5,26.2
		c-9.5,0-26.6-6.8-26.6-26.2c0-7.3,2.2-15.8,7-22.4c13-17.6,30.3-24,48.6-24c39.8,0,72.4,15,72.4,44.6
		C214,136.8,180.1,143.6,155.5,152.9z M141.2,187.6c13.4,0,24.4,11,24.4,24.4s-11,24.4-24.4,24.4c-13.6,0-24.4-11-24.4-24.4
		S127.6,187.6,141.2,187.6z"/>
</g>
</svg>
