<?xml version="1.0" encoding="utf-8"?>
<!-- Generator: Adobe Illustrator 18.1.1, SVG Export Plug-In . SVG Version: 6.00 Build 0)  -->
<!DOCTYPE svg PUBLIC "-//W3C//DTD SVG 1.1//EN" "http://www.w3.org/Graphics/SVG/1.1/DTD/svg11.dtd">
<svg version="1.1" id="Layer_1" xmlns="http://www.w3.org/2000/svg" xmlns:xlink="http://www.w3.org/1999/xlink" x="0px" y="0px"
	 viewBox="0 0 300 400" enable-background="new 0 0 300 400" xml:space="preserve">
<g>
	<defs>
		
			<rect id="SVGID_1_" x="-121.3" y="-79.3" transform="matrix(-0.7071 -0.7071 0.7071 -0.7071 126.3015 448.3158)" width="554.6" height="554.6"/>
	</defs>
	<clipPath id="SVGID_2_">
		<use xlink:href="#SVGID_1_"  overflow="visible"/>
	</clipPath>
	<path clip-path="url(#SVGID_2_)" fill="#FFFFFF" d="M188.8,336.8c-0.1-0.1-0.1-0.3-0.2-0.4c-0.1,0.1-0.3,0.2-0.4,0.3L188.8,336.8z"
		/>
	<path clip-path="url(#SVGID_2_)" fill="#FFFFFF" d="M205.1,323.3c4.7-5.6,8.5-12,11.5-18.7c2.9-6.7,5-13.9,6.2-21.1
		c0.6-3.7,0.9-7.3,1.3-10.9c0.4-3.6,0.7-7.2,0.9-10.9c0.5-7.3,0.6-14.6,0.6-21.8c0.1-7.2,0.5-14.3,1.5-21.3
		c1.9-14.1,5.1-28.3,8.4-42.2c1.7-7,3.5-13.9,5.5-20.9c1.9-6.9,4.1-13.7,6.1-20.9c1-3.6,1.8-7.4,2.1-11.4c0.3-4-0.1-8-0.9-11.8
		c-0.2-0.9-0.4-1.9-0.6-2.8c-0.2-0.9-0.4-1.8-0.7-2.8c-0.6-2-1.4-3.9-2.3-5.7c-1.8-3.6-4.2-6.8-6.9-9.7
		c-5.3-5.7-11.7-10.2-18.8-13.3c-1.8-0.8-3.6-1.4-5.6-1.9c-1.9-0.5-3.8-0.8-5.8-1c-2-0.2-4-0.2-5.9,0c-2,0.2-4,0.6-5.9,1.2
		c-3.8,1.1-7.2,3.1-10.3,5.2l-2.2,1.5c-0.7,0.5-1.4,0.9-2.2,1.3c-0.5,0.3-0.9,0.5-1.4,0.7c-1.9-0.2-3.7-0.5-5.5-0.9
		c-1.9-0.5-3.7-1.1-5.5-1.9c-1.7-0.8-3.3-1.9-5-3c-1.6-1.1-3.5-2.4-5.6-3.1c-2.1-0.7-4.4-1-6.5-0.8c-2.2,0.1-4.2,0.6-6.3,1.1
		c-2.8,0.7-5.5,1.8-7.9,3.3c-3.3-2.1-6.7-4-10.3-5.7c-4-1.8-8.4-3.2-13-3.7c-4.6-0.5-9.1-0.2-13.3,0.5c-1.1,0.2-2.1,0.4-3.2,0.5
		c-1.1,0.2-2,0.4-3.3,0.7c-2.3,0.6-4.4,1.4-6.5,2.3c-8.2,3.8-15.2,9.8-20.3,17.1c-5.2,7.3-8.4,16-9.3,24.9c-0.9,8.8,0,17.6,2,26
		c2,8.4,5,16.3,7.6,24c2.7,7.7,4.9,15.2,5.5,22.8c0.1,1.9,0.2,3.8,0.1,5.6c0,1-0.1,1.8-0.2,2.8l-0.3,3c-0.4,4-0.8,8-1.4,12
		c-1.1,8-2.7,16.1-3.6,24.6c-0.5,4.2-0.7,8.5-0.7,12.8c0,4.3,0.2,8.6,0.7,12.8c0.9,8.4,2.5,16.9,5.3,25c2.7,8.1,6.4,15.9,11,23
		c4.6,7.1,10.2,13.7,16.5,19.2c3.2,2.8,6.6,5.3,10.3,7.4c1.9,1,3.8,2,5.8,2.7c1,0.3,2.1,0.6,3.1,0.8c1.1,0.1,2.2-0.2,3.4-0.2l0,0
		l0.4-0.1l0-0.5c0.2-12,0.4-24,0.9-35.8c0.2-5.9,0.5-11.9,1.1-17.7c0.5-5.8,1.2-11.7,2.5-17c1.4-5.2,3.6-10.4,6.6-15
		c2.9-4.7,6.5-8.9,10.6-12.6c2.1-1.8,4.2-3.5,6.5-5c0.7-0.5,1.5-0.9,2.2-1.4c1.3,0.9,2.5,1.8,3.7,2.8c1.9,1.5,3.8,3,5.7,4.6
		c3.6,3.2,7.1,6.6,10.1,10.2c3,3.6,5.7,7.6,7.6,11.9c1.9,4.3,3,8.8,3.3,13.5c0.1,2.3,0.1,4.7-0.2,7c-0.3,2.2-0.8,4.9-1.2,7.4
		c-0.8,5.1-1.3,10.3-1.5,15.5c-0.2,5.2,0,10.4,0.9,15.6c0.4,2.6,1.1,5,2,7.5c0.4,1.2,1.2,2.2,1.8,3.4c0.5,1,1.4,1.7,2.3,2.5
		c0,0.1,0.1,0.1,0.1,0.2c0,0,0,0,0.1,0c0.1,0.1,0.2,0.2,0.3,0.3l0,0l-0.2,0.7l-0.1,0.2c3.2-1.8,6.1-4.1,8.8-6.5
		C200.2,328.7,202.8,326.1,205.1,323.3"/>
	<path clip-path="url(#SVGID_2_)" fill="#B72025" d="M83.8,303.6c0,0,33,40.5,39.1,35.2c1.4-1.2,0-83.4,8.7-92.1
		c1.6-1.5-2-0.8-2-0.8s-3.8,5-13,5c-9.1,0-10.1-4.9-17.9-4.9c-8.4,0-10,4.7-15.5,4.7c-6.5,0-6.5-1-10.4-7.3
		C68.9,237.1,83.8,303.6,83.8,303.6"/>
	<path clip-path="url(#SVGID_2_)" fill="#B72025" d="M212.6,310.4c-8.6,16.4-23.8,26.7-24,26c-9.8-25.9,7.4-60.8-7-77
		c-1.5-1.6,2.1-0.8,2.1-0.8s2.8,2.9,12,2.9c5.7,0,6.2-3.2,12.8-3.2c5.7,0,7.2,3.2,14.7,3.2C225.5,261.5,221.2,294,212.6,310.4"/>
	<path clip-path="url(#SVGID_2_)" fill="#010101" d="M156,91.3c0.7,0.8,1.1,0.8,1.6,0.7c0.4-0.1,0.9-0.1,1.3-0.2
		c0.9-0.2,1.8-0.4,2.6-0.7c1.7-0.6,3.4-1.2,5.1-1.8c3.4-1.2,6.7-2.5,10-4c1.6-0.7,3.2-1.5,4.8-2.3c0.8-0.4,1.5-0.8,2.2-1.3l2.2-1.5
		c3-2.1,6.4-4.1,10.3-5.2c1.9-0.6,3.9-1,5.9-1.1c2-0.2,4-0.1,5.9,0c2,0.2,3.9,0.5,5.8,1c2,0.5,3.8,1.1,5.6,1.9
		c7.2,3.1,13.5,7.6,18.8,13.3c2.6,2.9,5,6,6.9,9.7c0.9,1.8,1.7,3.7,2.3,5.7c0.3,1.1,0.5,1.9,0.7,2.8c0.2,0.9,0.4,1.9,0.6,2.8
		c0.7,3.7,1.2,7.8,0.9,11.8c-0.3,4-1.1,7.8-2.1,11.4c-2,7.2-4.2,13.9-6.1,20.9c-2,6.9-3.8,13.9-5.5,20.9c-3.3,14-6.4,28.1-8.4,42.2
		c-1,7.1-1.4,14.1-1.5,21.3c-0.1,7.2-0.1,14.5-0.6,21.8c-0.2,3.6-0.5,7.3-0.9,10.9c-0.4,3.6-0.7,7.2-1.3,10.9
		c-1.2,7.3-3.2,14.4-6.2,21.1c-2.9,6.7-6.8,13.1-11.5,18.7c-2.3,2.8-4.9,5.5-7.6,7.9c-2.7,2.4-5.6,4.7-8.8,6.5l-0.1,0l-0.1-0.5l0,0
		c-1-1-1.9-1.9-2.5-3.1c-0.6-1.2-1.2-2.3-1.7-3.5c-0.9-2.5-1.5-5-1.9-7.6c-0.8-5.2-1-10.4-0.8-15.6c0.2-5.2,0.7-10.4,1.5-15.5
		c0.4-2.5,0.9-5.2,1.2-7.4c0.3-2.4,0.3-4.7,0.2-7c-0.3-4.7-1.5-9.2-3.3-13.5c-1.9-4.3-4.5-8.2-7.6-11.9c-3-3.7-6.5-7-10.1-10.2
		c-1.8-1.6-3.7-3.1-5.7-4.6c-1.9-1.5-4-3-5.8-4.3l2.7-5.4c1.4,0.5,2.5,1,3.8,1.6c1.2,0.6,2.4,1.2,3.5,1.9c2.3,1.4,4.5,2.8,6.7,4.4
		c4.3,3.2,8.2,7,11.6,11.2c3.4,4.3,6.2,9.1,8.2,14.2c2,5.2,3.1,10.7,3.1,16.2c0,2.8-0.3,5.5-0.7,8.2c-0.5,2.8-1.2,5.1-1.8,7.6
		c-1.1,4.9-2,9.8-2.7,14.8c-0.6,5-1,9.9-0.8,14.9c0.1,2.5,0.4,5,0.9,7.4c0.3,1.2,0.6,2.4,1,3.6c0.4,1.1,0.9,2.3,1.6,3.2l-0.6-0.1
		c3-1.9,5.8-4.2,8.4-6.7c2.6-2.5,5-5.1,7.1-8c4.4-5.7,7.9-11.9,10.5-18.6c2.6-6.6,4.3-13.6,5.2-20.6c0.5-3.5,0.7-7.1,1-10.7
		c0.2-3.6,0.4-7.2,0.6-10.8c0.3-7.2,0.2-14.3,0-21.6c-0.2-7.3,0.1-14.7,0.9-22c0.7-7.3,1.9-14.5,3.2-21.7c1.3-7.2,2.7-14.3,4.2-21.4
		c1.5-7.1,3.2-14.2,5-21.2c1.8-7,3.9-14.1,5.6-20.9c0.8-3.4,1.5-6.7,1.6-10c0.2-3.2-0.2-6.4-1-9.8c-0.2-0.8-0.4-1.7-0.6-2.5
		c-0.2-0.8-0.4-1.7-0.7-2.4c-0.5-1.5-1.1-2.9-1.8-4.3c-1.5-2.8-3.4-5.5-5.6-8c-2.2-2.5-4.7-4.8-7.3-6.9c-2.6-2.1-5.5-4-8.5-5.5
		c-1.5-0.7-3-1.4-4.5-1.9c-1.6-0.5-3.2-1-4.8-1.2c-3.2-0.6-6.5-0.6-9.7,0c-3.2,0.6-6.3,2-9.4,3.7l-2.4,1.3c-0.8,0.4-1.7,0.9-2.6,1.2
		c-1.7,0.7-3.5,1.3-5.2,1.9c-3.5,1.2-7,2.2-10.5,3.1l-5.3,1.4c-0.9,0.2-1.7,0.5-2.6,0.8c-0.4,0.2-0.8,0.3-1.3,0.5
		c-0.4,0.1-0.8,0.4-1,1.4L156,91.3z"/>
	<path clip-path="url(#SVGID_2_)" fill="#010101" d="M181.8,98.7c-4.1,1.3-8.4,1.6-12.7,1.5c-2.2-0.1-4.3-0.2-6.5-0.6
		c-2.2-0.3-4.3-0.8-6.4-1.5c-4.1-1.4-8-3.4-11.7-5.8c-1.8-1.1-3.6-2.5-5.2-3.7c-1.6-1.2-3.3-2.3-4.9-3.4c-6.6-4.5-13.6-8.2-20.8-8.9
		c-3.6-0.4-7.4,0-11.3,0.7c-1,0.2-1.9,0.4-2.9,0.6c-0.9,0.2-2,0.4-2.8,0.6c-1.7,0.5-3.5,1.1-5.1,1.9c-6.7,3.2-12.6,8.4-16.8,14.6
		c-4.2,6.2-6.8,13.5-7.5,21c-0.7,7.6,0.2,15.4,2.1,23c1.9,7.6,4.8,15.1,7.7,23c2.8,7.8,5.5,16.2,6.3,25.1c0.2,2.2,0.3,4.5,0.3,6.7
		c0,1.1-0.1,2.3-0.2,3.3l-0.2,3.1c-0.3,4.2-0.8,8.4-1.3,12.5c-1.1,8.3-2.5,16.4-3.4,24.3c-0.9,7.9-1.2,15.8-0.7,23.7
		c0.5,8,1.5,15.8,3.6,23.5c2,7.6,4.9,15.1,8.7,22.1c1.9,3.5,4,6.9,6.3,10.2c2.3,3.3,4.8,6.4,7.6,9.3c2.7,2.9,5.7,5.7,8.9,8
		c1.6,1.2,3.3,2.3,5.1,3.2c0.9,0.4,1.8,0.8,2.7,1.1c0.9,0.3,1.9,0.4,2.7,0.3l-0.4,0.6c-2.1-11.9-3.4-23.8-4.2-35.9
		c-0.4-6-0.6-12.1-0.5-18.2c0-3,0.2-6.1,0.4-9.2c0.2-3.1,0.6-6.2,1.2-9.4c2.7-12.8,9.8-24.2,19.3-32.9c2.4-2.2,4.9-4.2,7.7-5.9
		c2.7-1.8,5.7-3.2,8.8-4.3c3.1-1,6-1.6,9.3-1.7c3.3,0,6.9,0.4,9.2,1.7l0,0.5c-2.3,1.3-5.3,2.4-7.9,3.7c-2.6,1.2-4.9,2.5-7.2,3.9
		c-2.4,1.3-4.6,2.8-6.9,4.3c-2.3,1.5-4.4,3.2-6.5,5c-4.1,3.7-7.7,7.9-10.6,12.6c-3,4.7-5.2,9.8-6.6,15c-1.3,5.3-2,11.2-2.5,17
		c-0.5,5.9-0.8,11.8-1.1,17.7c-0.5,11.9-0.6,23.8-0.9,35.8l0,0.5l-0.4,0.1l0,0c-1.1,0-2.3,0.3-3.4,0.2c-1.1-0.2-2.1-0.5-3.1-0.8
		c-2-0.7-3.9-1.6-5.8-2.7c-3.7-2.1-7.1-4.6-10.3-7.4c-6.4-5.5-11.9-12.1-16.5-19.2c-4.6-7.1-8.3-14.9-11-23
		c-2.7-8.1-4.4-16.6-5.3-25c-0.5-4.2-0.6-8.5-0.7-12.8c0-4.3,0.3-8.6,0.7-12.8c0.9-8.4,2.5-16.6,3.6-24.6c0.6-4,1-8,1.4-12l0.2-3
		c0.1-1,0.1-1.9,0.2-2.9c0.1-1.9,0-3.8-0.1-5.6c-0.6-7.5-2.8-15.1-5.5-22.8c-2.6-7.7-5.6-15.6-7.6-24c-2-8.4-2.9-17.2-2-26
		c1-8.9,4.2-17.6,9.3-24.9C73,82.7,80,76.7,88.2,72.9c2.1-0.9,4.2-1.7,6.5-2.3c1.3-0.3,2.2-0.5,3.3-0.7c1-0.2,2.1-0.4,3.2-0.5
		c4.2-0.7,8.8-1,13.3-0.5c4.6,0.5,9,1.9,13,3.7c4,1.8,7.7,4,11.3,6.3c1.8,1.2,3.5,2.4,5.2,3.6c1.7,1.3,3.2,2.4,4.8,3.5
		c3.2,2.2,6.6,4.1,10.1,5.7c3.5,1.6,7.1,3.3,10.9,4.4c1.9,0.6,3.9,1,5.9,1.3c2,0.3,4,0.6,6.1,0.6L181.8,98.7z"/>
	<path clip-path="url(#SVGID_2_)" fill="#010101" d="M134.6,80.5c3.2-2.7,7-4.5,11-5.5c2-0.5,4.1-1,6.3-1.1c2.2-0.1,4.4,0.1,6.5,0.8
		c2.1,0.7,4,2,5.6,3.1c1.7,1.1,3.3,2.2,5,3c1.7,0.8,3.6,1.5,5.5,1.9c1.9,0.5,3.9,0.8,5.9,1l0,1.1c-2,0.1-4.1,0-6.1-0.3
		c-2.1-0.3-4.1-0.7-6.1-1.5c-2-0.7-3.8-1.8-5.5-2.9c-1.7-1-3.3-2-5-2.5c-3.4-1-7.3-0.5-11,0.5c-3.7,1.1-7.4,2.4-11.4,3.3L134.6,80.5
		z"/>
	<path clip-path="url(#SVGID_2_)" fill="none" stroke="#FFFFFF" stroke-width="1.25" stroke-miterlimit="10" d="M146.7,599.5l-42,42
		 M557.5,188.7l42-42 M-245.5,207.3l-42,42 M165.3-203.5l42-42 M165.3,599.5l42,42 M-245.5,188.7l-42-42 M557.5,207.3l42,42
		 M146.7-203.5l-42-42"/>
	<path clip-path="url(#SVGID_2_)" fill="none" stroke="#000000" stroke-width="0.25" stroke-miterlimit="10" d="M146.7,599.5l-42,42
		 M557.5,188.7l42-42 M-245.5,207.3l-42,42 M165.3-203.5l42-42 M165.3,599.5l42,42 M-245.5,188.7l-42-42 M557.5,207.3l42,42
		 M146.7-203.5l-42-42"/>
</g>
</svg>
