<?xml version="1.0" encoding="utf-8"?>
<!-- Generator: Adobe Illustrator 18.1.1, SVG Export Plug-In . SVG Version: 6.00 Build 0)  -->
<!DOCTYPE svg PUBLIC "-//W3C//DTD SVG 1.1//EN" "http://www.w3.org/Graphics/SVG/1.1/DTD/svg11.dtd">
<svg version="1.1" id="Layer_1" xmlns="http://www.w3.org/2000/svg" xmlns:xlink="http://www.w3.org/1999/xlink" x="0px" y="0px"
	 viewBox="0 0 300 400" enable-background="new 0 0 300 400" xml:space="preserve">
<g>
	<defs>
		<rect id="SVGID_1_" x="-135.8" y="-85" width="616.8" height="616.8"/>
	</defs>
	<clipPath id="SVGID_2_">
		<use xlink:href="#SVGID_1_"  overflow="visible"/>
	</clipPath>
	<path clip-path="url(#SVGID_2_)" fill="#FFFFFF" d="M88.2,316.5c-2.6,16.4-18.1,27.5-34.5,24.9c-16.4-2.6-27.5-18.1-24.9-34.5
		c2.6-16.4,18.1-27.5,34.5-24.9C79.7,284.7,90.9,300.1,88.2,316.5"/>
	<path clip-path="url(#SVGID_2_)" fill="#010101" d="M89.4,317.1c0,7.7-6,15-12.4,19.9c-6.4,4.9-15,7.2-23.3,6.2
		c-4.1-0.5-8.3-1.9-12-4c-3.7-2.1-7-5-9.6-8.4c-2.6-3.4-4.5-7.4-5.6-11.5c-1.1-4.2-1.2-8.6-0.6-12.8c0.7-4.3,2.2-8.4,4.6-12
		c2.3-3.6,5.4-6.8,8.9-9.2c3.5-2.4,7.5-4.1,11.7-4.9c4.1-0.8,8.4-0.8,12.5,0c8.2,1.6,15.8,6.8,20.3,13.5
		C88.5,300.6,89.4,308.8,89.4,317.1L89.4,317.1z M89.4,317.1c0-4.3-0.3-8.1-1.3-11.9c-0.9-3.8-3.1-7.5-5.4-10.5
		c-2.3-3.1-5.5-5.7-8.8-7.5c-3.3-1.9-7-3.1-10.7-3.5c-7.4-0.9-15,1.3-20.7,5.7c-5.7,4.4-9.6,10.9-10.7,18c-1.2,7,0.4,14.5,4.5,20.4
		c4,6,10.5,10.4,17.8,11.9c3.7,0.8,7.5,0.8,11.2,0.1c3.7-0.7,7.3-2.2,10.5-4.4c3.2-2.2,6.7-4.6,8.8-7.9
		C86.6,324.3,89.4,320.8,89.4,317.1L89.4,317.1z"/>
	<path clip-path="url(#SVGID_2_)" fill="#010101" d="M257.3,69.1c0,0-5.3,1.5-7.6-10.2c-1.1-5.6,1.4-8,4.8-8.9
		c3.4-0.9,8.4,2.1,9.3,6c0.9,3.9,0.7,8.5,0.1,9.6"/>
	<path clip-path="url(#SVGID_2_)" fill="#010101" d="M256.1,69.5c-0.5-0.1-1.1-0.3-1.8-0.7c-2.3-1.4-4-4.8-5-9.8
		c-1.2-6.4,2.1-8.6,5.1-9.4c1.7-0.4,3.8,0,5.8,1.2c2.1,1.3,3.6,3.2,4.1,5.2c1,4.1,0.7,8.7,0.1,9.9l-0.8-0.4c0.5-1,0.8-5.4-0.2-9.3
		c-0.4-1.8-1.8-3.5-3.7-4.6c-1.7-1-3.7-1.4-5.1-1.1c-3.9,1-5.4,3.8-4.5,8.4c1.2,6,3.2,8.4,4.6,9.3c1.4,0.8,2.4,0.6,2.4,0.6l0.2,0.8
		C257.4,69.5,256.9,69.7,256.1,69.5"/>
	<path clip-path="url(#SVGID_2_)" fill="#010101" d="M184.5,42c0,0,0.9-2.9,5.4-5.5c3.3-1.9,10.5-3.8,12.3,1.1
		c1.9,5.1-0.7,8.8-5.6,10.7c-5,2-11.2,0.2-11.2,0.2"/>
	<path clip-path="url(#SVGID_2_)" fill="#010101" d="M186.2,49.1c-1.1-0.2-3.1-0.7-3.1-0.7l0.2-0.8c0,0,7.2,2,12,0.1
		c3-1.1,8.1-3.8,5.9-10c-0.4-1.2-1-2-2.2-2.4c-2.9-1.1-6.9,0.4-9,1.6c-4.2,2.5-5.1,5.3-5.1,5.3l-0.8-0.3c0-0.1,1.1-3.1,5.6-5.7
		c2.2-1.3,6.7-2.8,9.9-1.7c1.5,0.5,2.5,1.5,3,3c1.8,5-0.8,8.9-6.4,11.1C192.8,49.9,188.5,49.4,186.2,49.1"/>
	<path clip-path="url(#SVGID_2_)" fill="#FFFFFF" d="M258.3,78.2l-1.1-10.7c0,0,0-3.4,2.5-4c2.5-0.6,4.3,1.1,4.7,3.3
		c0.4,2.2,3,24.6,2.3,34c-0.6,9.3-6.2,25-20.3,42.2c-14.1,17.2-47.9,50-47.9,50l-4.5-5.4l41.9-42.8c0,0,16.8-20.1,20.2-31.9
		C260.7,96.1,258.3,78.2,258.3,78.2"/>
	<path clip-path="url(#SVGID_2_)" fill="#010101" d="M255.2,78c0.4-1.7,0.4-3.4,0.3-5.2l0-5.3l0.3,0v0c0-1,0.4-1.9,1-2.8
		c0.5-0.9,1.5-1.7,2.6-1.8c0.9-0.2,2-0.1,3,0.4c0.9,0.5,1.6,1.2,2,2.1c0.2,0.4,0.4,0.9,0.4,1.4c0.1,0.5,0.1,0.9,0.2,1.3l0.3,2.5
		l0.5,5.1c0.6,6.7,1.2,13.5,1.3,20.3c0,1.7,0,3.4-0.1,5.1c-0.1,1.7-0.4,3.4-0.7,5.1c-0.7,3.3-1.8,6.6-3,9.7
		c-2.5,6.3-5.8,12.3-9.6,17.9c-3.8,5.6-8.1,10.9-12.6,15.9c-4.5,5.1-9.1,10-13.8,14.9c-9.4,9.8-18.9,19.4-28.6,28.9l0,0l-0.3,0.3
		l0.3-0.4l-3.9-5.4v0l-0.8-0.3l0-0.3l41.5-43.1l-0.1,0c3.8-4.7,7.4-9.6,10.7-14.6c1.7-2.5,3.3-5.1,4.7-7.7c1.5-2.6,2.8-5.3,3.8-8.1
		c0.9-2.8,1.6-5.7,2.1-8.7c0.5-2.9,0.7-5.4,0.9-8.4c0.4-6-0.1-12.4-1-17.4L255,79L255.2,78z M259,72.3l0.6,5.7
		c0.7,6.2,0.7,12.3,0.3,18.4c-0.2,3.1-0.6,6.1-1.2,9.1c-0.6,3-1.2,6-2.3,9c-1.1,2.9-2.5,5.7-4.1,8.3c-1.5,2.7-3.2,5.2-4.9,7.7
		c-3.5,5-7.2,9.9-11.1,14.6l0,0l0,0l-42.1,42.5l0-0.6l0,0l4.5,5.4l-0.6,0l0,0c9.7-9.4,19.3-18.9,28.8-28.6
		c4.7-4.9,9.3-9.8,13.8-14.8c4.5-5,8.8-10.3,12.6-15.9c3.7-5.6,7-11.6,9.4-17.8c1.2-3.1,2.2-6.4,2.9-9.6c0.3-1.6,0.6-3.3,0.7-5
		c0.1-1.7,0.1-3.4,0.1-5c-0.2-6.7-0.8-13.5-1.5-20.2l-0.6-5c-0.1-0.8-0.2-1.7-0.3-2.5c-0.1-0.4-0.1-0.8-0.2-1.2
		c-0.1-0.4-0.2-0.7-0.4-1c-0.3-0.6-0.9-1.2-1.5-1.4c-0.6-0.2-1.3-0.2-2,0c-0.6,0.2-1,0.6-1.2,1.2c-0.3,0.6-0.3,1.4-0.3,2v-0.1
		L259,72.3z"/>
	<path clip-path="url(#SVGID_2_)" fill="#B72025" d="M72.3,313.9c-1.2,7.2-7.9,12-15,10.9c-7.2-1.2-12-7.9-10.9-15
		c1.2-7.2,7.9-12,15.1-10.9C68.6,300,73.5,306.8,72.3,313.9"/>
	<path clip-path="url(#SVGID_2_)" fill="#010101" d="M74.7,314.3c-2.4,3.4-3.5,6.6-6.3,8.8c-2.8,2.2-7.1,3.2-10.8,2.8
		c-3.7-0.4-7.5-2.4-9.8-5.5c-1.2-1.5-2.1-3.3-2.6-5.2c-0.5-1.9-0.6-3.8-0.3-5.7c0.3-1.9,1-3.7,2-5.4c1-1.6,2.4-3,4-4.1
		c3.2-2.2,7.2-2.9,10.8-2.2c3.6,0.7,7.8,3.1,9.8,6.1C73.5,306.9,72.3,310.3,74.7,314.3L74.7,314.3z M74.7,314.3
		c0-1.6-1.2-3.5-1.6-5.1c-0.4-1.6-1.9-3.2-2.9-4.5c-2-2.6-5.4-4.3-8.6-4.7c-3.2-0.4-6.5,0.6-8.9,2.5c-2.4,1.9-4.2,4.6-4.6,7.6
		c-0.5,3,0.1,6.1,1.9,8.7c1.7,2.6,4.4,4.5,7.5,5.1c3.1,0.7,6.5,0.1,9.3-1.8c1.4-0.9,3.9-1.9,4.8-3.3
		C72.5,317.3,72.3,315.9,74.7,314.3L74.7,314.3z"/>
	<path clip-path="url(#SVGID_2_)" fill="#FFFFFF" d="M185.2,48.6c0,0-14.2,1.8-24,21.2c-9.8,19.4-10.9,40.7-10.9,40.7
		s-1.2,9,2.2,26.3c3.4,17.3,6.1,31,4.9,36l-7.1-0.1c0,0-1.3-24.9-6.3-44.8c-4.9-19.9,4.6-48.2,7.1-54.6c0,0,12.7-29.2,30.3-31.1
		c1.8-0.2,5.8-0.8,6.5,1.7C189.2,47.7,185.2,48.6,185.2,48.6"/>
	<path clip-path="url(#SVGID_2_)" fill="#010101" d="M185.3,49.5c-1.4,0.2-2.9,0.7-4.3,1.3c-1.4,0.6-2.8,1.3-4.1,2.1
		c-2.6,1.6-5,3.6-7.1,5.8c-2.1,2.2-4,4.7-5.6,7.3c-1.6,2.6-3,5.4-4.3,8.3c-2.5,5.7-4.6,11.7-6.1,17.7c-1.5,6.1-1.5,12.6-3.2,18.6
		l0,0.1h-0.1c-0.4,2.4-0.1,5.1,0,7.7c0.1,2.6,0.4,5.2,0.7,7.7c0.3,2.6,0.7,5.2,1.2,7.7c0.5,2.6,1,5.1,1.5,7.7c1,5.1,2,10.3,2.8,15.5
		c0.4,2.6,0.8,5.2,1.1,7.8c0.1,1.3,0.2,2.6,0.3,4c0,1.3,0,2.7-0.3,4l-0.2,0.9l-0.5,0.6h0l-6.9-0.7l-1-0.5l-0.7-0.7l0-0.1
		c1.7-5.9-0.5-13.1-1.4-19.7c-0.9-6.6-1.6-13.1-3-19.6c-0.4-1.6-0.6-3.2-1-4.8c-0.4-1.6-0.7-3.3-0.9-5c-0.5-3.3-0.6-6.7-0.5-10.1
		c0.1-6.7,1.1-13.4,2.5-19.9c1.4-6.6,3.2-13,5.5-19.3l0.5-1.2l0.5-1.2c0.4-0.8,0.7-1.5,1.1-2.3c0.8-1.5,1.6-3,2.4-4.4
		c1.7-2.9,3.5-5.7,5.5-8.4c2-2.7,4.2-5.3,6.7-7.6c2.5-2.3,5.3-4.4,8.4-5.9c1.6-0.7,3.2-1.3,5-1.6c0.4-0.1,0.9-0.1,1.3-0.2l1.3-0.1
		c0.9-0.1,1.7-0.1,2.7,0c0.9,0.1,1.9,0.3,2.9,1.1c0.5,0.4,0.8,0.9,0.9,1.5l0.1,0.3l0.1,0.4c0,0.3,0.1,0.5,0.1,0.8
		c0,1.1-0.4,2.2-1.2,2.9c-0.4,0.4-0.8,0.7-1.2,0.9C186.4,49.2,186,49.4,185.3,49.5L185.3,49.5L185.3,49.5z M185,47.7L185,47.7
		c0.6-0.2,1.3-0.5,1.7-1c0.4-0.4,0.6-1,0.6-1.6c0-0.2,0-0.3-0.1-0.5l0-0.2l-0.1-0.3c-0.1-0.2-0.2-0.4-0.4-0.6
		c-0.4-0.3-1-0.5-1.8-0.6c-0.7-0.1-1.5,0-2.3,0.1l-1.2,0.1c-0.4,0-0.8,0.1-1.2,0.2c-1.5,0.3-3,0.8-4.5,1.5c-2.9,1.4-5.5,3.3-7.8,5.6
		c-2.4,2.2-4.5,4.7-6.5,7.4c-2,2.6-3.7,5.4-5.4,8.3c-0.8,1.4-1.6,2.9-2.4,4.3c-0.7,1.5-1.5,2.9-2,4.4c-2.3,6.2-4.1,12.6-5.6,19
		c-1.4,6.5-2.4,13-2.6,19.6c-0.1,3.3,0,6.6,0.5,9.8c0.2,1.6,0.5,3.2,0.9,4.8c0.4,1.6,0.8,3.3,1.1,4.9c1.3,6.5,1.3,12.9,2,19.5
		c0.8,6.6,0,13,0.7,19.7v0l0.6-0.2l7.6,0.1l0.3,0.1l-0.3,0.4c0.3-1.2,0.3-2.5,0.3-3.7c0-1.3-0.1-2.6-0.3-3.9
		c-0.3-2.6-0.7-5.2-1.1-7.7c-0.9-5.2-1.9-10.3-2.9-15.4c-0.5-2.6-1.1-5.1-1.5-7.7c-0.5-2.6-0.9-5.2-1.2-7.8c-0.3-2.6-1.3-5.4-1.5-8
		c-0.1-2.6-1.1-5.4-0.6-8.1l0,0.1c1-6.3,2.2-12.5,3.7-18.6c1.5-6.2,3.8-12.2,6.3-18c2.5-5.8,5.9-11.4,10.3-16.1
		c2.2-2.3,4.8-4.4,7.5-6.1c1.4-0.9,2.9-1.6,4.4-2.2C181.8,48.5,183.3,48,185,47.7"/>
	<path clip-path="url(#SVGID_2_)" fill="#010101" d="M188.6,286.3c35.4-20.6,47.1-18.3,52.8-8.6c5.2,8.8-5.5,17.3-11.7,19.9
		c-6.2,2.5-24.3,5.8-48.9-18.2c-24.5-24-2-58.1-0.8-60.1c12-19.3,21.2-22.7,21.2-22.7l-2.9-3.7l-4.5-5.4l-2.1-2.8
		c0,0-10.6,18.5-23.7,12.4c-10-4.6-5.3-24-5.3-24l-5.3-0.2l-7.1-0.1l-4.8,0.2c0,0,5.7,10.6,3.2,43.1c-2.5,32.5-0.5,40.5,22.4,68.7
		c22.9,28.1,41.7,26.6,50.9,26c9.7-0.5,29.6-12.6,30.9-25.4c1.3-12.9-9.3-23.1-19.9-25.3c-6.8-1.4-15.1-4.5-52.6,19l-9.3,5.7
		c0,0-56,28.1-99.1,24l-0.1,8c58.8,4.8,105.8-24.7,105.8-24.7"/>
	<path clip-path="url(#SVGID_2_)" fill="#010101" d="M188.4,285.9c4.3-2.5,8.6-4.9,13-7.1c4.4-2.2,8.9-4.3,13.6-6
		c2.3-0.8,4.7-1.6,7.2-2.1c2.4-0.5,4.9-0.9,7.5-0.8c2.5,0.1,5.1,0.7,7.3,2.1c2.2,1.4,3.9,3.4,5.1,5.6c0.6,1.1,1.1,2.4,1.2,3.7
		c0.2,1.3,0.1,2.6-0.3,3.9c-0.7,2.5-2.2,4.7-3.9,6.5c-1.7,1.8-3.7,3.4-5.9,4.7c-1.1,0.6-2.2,1.2-3.4,1.7c-1.2,0.5-2.4,0.8-3.6,1.1
		c-4.9,1.1-10.1,0.8-14.9-0.4c-4.9-1.2-9.5-3.2-13.8-5.7c-4.3-2.5-8.3-5.5-12.1-8.7c-1.9-1.6-3.7-3.3-5.5-5
		c-1.8-1.8-3.4-3.7-4.8-5.8c-2.8-4.1-4.8-8.9-5.7-13.8c-0.9-4.9-0.9-10-0.1-15c0.8-4.9,2.2-9.7,4.1-14.3c1.9-4.6,4.3-9,7-13.2
		c2.7-4.2,5.6-8.2,8.9-11.9c1.7-1.9,3.4-3.6,5.3-5.3c0.9-0.8,2.9-1.3,3.9-2.1c1.1-0.7,1.7-1.5,4.3-1.7l-0.3,1.2l-3.3-3.3
		c-0.8-1-2.1-2.1-2.9-3.1l-2.7-3c-0.8-1.1-1.7-2.1-2.4-3.1l1.2-0.1c-1.2,2.1-2.7,3.9-4.2,5.7c-1.6,1.8-3.3,3.4-5.3,4.8
		c-1.9,1.4-4.1,2.5-6.5,3.1c-2.4,0.6-5,0.4-7.3-0.4c-1.1-0.4-2.3-0.9-3.3-1.7c-1-0.8-1.8-1.7-2.5-2.8c-1.3-2.1-1.9-4.5-2.3-6.9
		c-0.3-2.4-0.3-4.7-0.2-7.1c0.2-2.4,0.5-4.7,1-7l0.7,0.9l-4.3-0.2c-1.4-0.1-2.8,0-4.3-0.1c-1.4,0-2.9,0-4.3,0l-4.3,0.1l0.6-1.1
		c0.8,1.7,1.2,3.3,1.7,5c0.4,1.7,0.7,3.3,1,5c0.5,3.4,0.9,6.8,1,10.1c0.4,6.8,0.2,13.6-0.2,20.3c-0.5,6.8-1,13.5-1,20.2
		c0,6.7,0.6,13.4,2.9,19.7c2.2,6.3,5.7,12,9.6,17.5c3.9,5.5,8.1,10.8,12.4,15.9c4.4,5.1,9.1,9.8,14.5,13.8c5.4,4,11.4,7.1,17.8,8.7
		c3.2,0.8,6.5,1.2,9.8,1.2c1.7,0,3.3,0,5-0.1c0.8,0,1.7-0.1,2.5-0.2c0.8-0.1,1.6-0.3,2.4-0.5c3.2-0.9,6.2-2.2,9.1-3.9
		c2.9-1.6,5.6-3.5,8.1-5.7c2.5-2.2,4.8-4.6,6.5-7.4c0.9-1.4,1.6-2.8,2-4.4c0.2-0.8,0.4-1.5,0.5-2.3c0-0.2,0-0.4,0.1-0.6
		c0-0.2,0-0.4,0-0.6c0-0.4,0-0.8,0-1.2c0-3.2-0.8-6.4-2.3-9.3c-1.5-2.9-3.6-5.4-6.1-7.5c-2.5-2.1-5.4-3.7-8.4-4.7
		c-0.8-0.3-1.5-0.5-2.3-0.6l-2.5-0.5c-1.6-0.3-3.2-0.5-4.8-0.4c-3.2,0.1-6.5,0.8-9.6,1.8c-3.2,1-6.2,2.3-9.3,3.7
		c-6.1,2.8-12,6.1-17.7,9.5c-2.9,1.7-5.7,3.5-8.6,5.3l-8.6,5.3l0,0l0,0c-7.8,3.8-15.7,7.2-23.8,10.2c-8.1,3.1-16.4,5.5-24.7,7.6
		c-8.4,2.1-16.8,3.7-25.4,4.7c-8.5,1-17.2,1.5-25.8,0.9l0.6-0.5l0,8L72,316c4.6,0.3,9.1,0.3,13.7,0.2c4.6-0.1,9.1-0.3,13.7-0.7
		c9.1-0.7,18.1-2.2,27-4.2c8.9-2,17.7-4.7,26.3-7.9c4.3-1.6,8.5-3.4,12.7-5.3c4.2-1.9,8.3-4,12.2-6.4l0.5,0.7
		c-8,4.7-16.3,8.7-24.8,12.1c-8.5,3.5-17.3,6.4-26.3,8.6c-8.9,2.3-18.1,3.8-27.3,4.6c-4.6,0.4-9.2,0.6-13.9,0.5
		c-4.6-0.1-9.2-0.4-13.8-0.9l-0.7-0.1l0-0.7l0.3-8l0-0.6l0.6,0.1c8.5,1,17.1,0.5,25.6-0.7c8.5-1.2,16.8-3.3,25-5.7
		c4.1-1.2,8.2-2.5,12.2-4c4-1.4,8.1-2.9,12.1-4.4c8-3,15.9-6.3,23.6-10l-0.1,0.1l8.6-5.3c2.9-1.8,5.8-3.6,8.7-5.3
		c5.9-3.4,11.8-6.7,18-9.5c3.1-1.4,6.3-2.7,9.6-3.7c3.3-1,6.7-1.8,10.2-1.9c1.8,0,3.6,0.2,5.3,0.5l2.5,0.5c0.9,0.2,1.7,0.4,2.6,0.7
		c3.3,1.1,6.4,2.9,9.1,5.2c2.7,2.3,4.9,5,6.5,8.2c1.6,3.1,2.5,6.7,2.4,10.2c0,0.4,0,0.9,0,1.3l-0.1,0.6c0,0.2-0.1,0.5-0.1,0.7
		c-0.1,0.9-0.3,1.8-0.6,2.6c-0.5,1.7-1.3,3.3-2.3,4.8c-1.9,3-4.3,5.5-6.9,7.8c-2.6,2.2-5.5,4.2-8.5,5.9c-3,1.7-6.2,3.1-9.5,4
		c-0.8,0.2-1.7,0.4-2.6,0.5c-0.9,0.1-1.8,0.2-2.6,0.2c-1.7,0.1-3.4,0.2-5.1,0.1c-3.4,0-6.9-0.5-10.2-1.3c-6.7-1.7-12.9-4.9-18.4-9
		c-5.5-4.1-10.4-8.9-14.8-14.1c-4.3-5.2-8.5-10.5-12.5-16c-3.9-5.5-7.5-11.4-9.8-17.9c-2.3-6.5-3-13.4-2.9-20.2
		c0-6.8,0.6-13.6,1.1-20.3c0.4-6.7,0.6-13.5,0.2-20.2c-0.2-3.4-0.5-6.7-1-10c-0.3-1.6-0.6-3.3-1-4.9c-0.4-1.6-0.9-3.3-1.5-4.6
		l-0.5-1.1l1.2,0l4.3-0.1c1.5,0,2.9,0,4.3,0c1.4,0,2.8,0,4.3,0.1l4.3,0.2l0.9,0l-0.2,0.9c-0.9,4.4-1.4,9.1-0.8,13.6
		c0.3,2.2,0.9,4.4,2,6.3c0.6,0.9,1.3,1.7,2.1,2.4c0.8,0.6,1.8,1.1,2.9,1.5c2.1,0.7,4.3,0.8,6.5,0.3c2.1-0.5,4.2-1.5,6-2.8
		c3.6-2.6,6.7-6.3,9-10.1l0.6-0.9l0.7,0.9c0.8,1,1.5,2.1,2.3,3l2.4,2.9c0.8,1,1.6,1.9,2.4,3l2.4,3l0.6,0.8l-0.9,0.4
		c-1,0.4-2.1,1.1-3,1.8c-1,0.7-1.9,1.4-2.9,2.2c-1.8,1.6-3.6,3.3-5.2,5.1c-3.2,3.6-6.1,7.6-8.8,11.7c-2.7,4.1-5,8.4-6.9,12.9
		c-1.9,4.5-3.3,9.2-4,14c-0.8,4.8-0.8,9.7,0,14.5c0.9,4.8,2.7,9.3,5.4,13.3c1.4,2,2.9,3.9,4.6,5.6c1.7,1.7,3.5,3.4,5.4,5
		c3.7,3.2,7.6,6.1,11.9,8.6c4.2,2.5,8.7,4.4,13.4,5.6c4.7,1.2,9.7,1.5,14.4,0.4c2.4-0.5,4.6-1.4,6.7-2.7c2.1-1.2,4-2.8,5.6-4.5
		c1.6-1.8,3-3.8,3.7-6c0.3-1.1,0.4-2.3,0.3-3.5c-0.1-1.2-0.5-2.3-1.1-3.3c-1.2-2.1-2.7-4-4.7-5.2c-2-1.3-4.4-1.9-6.8-2
		c-2.4-0.1-4.8,0.2-7.2,0.7c-2.4,0.5-4.7,1.2-7,2c-9.2,3.3-17.9,8-26.5,12.9L188.4,285.9z"/>
	<path clip-path="url(#SVGID_2_)" fill="#FFFFFF" d="M159,203c0,0-6,25.2,1.5,25.6c7.5,0.4,16.5-17.2,17-18.7c0,0-5.8,0.5-10.3-1.3
		C162.7,206.7,159,203,159,203"/>
	<path clip-path="url(#SVGID_2_)" fill="#010101" d="M159.9,205.4c-0.8,3.6-1.5,7.3-1.9,10.9c-0.2,2.2-0.3,4.4-0.1,6.5
		c0.1,1.1,0.3,2.1,0.6,3c0.4,0.9,0.9,1.6,1.6,1.8c0.8,0.2,1.8,0,2.7-0.4c0.9-0.4,1.8-1,2.7-1.6c1.7-1.3,3.2-3,4.6-4.7
		c1.4-1.7,2.6-3.6,3.8-5.4c0.6-0.9,1.2-1.9,1.7-2.9c0.5-1,1.1-2,1.5-2.9v0l0.4,0.5c-1.7,0.2-3.5,0.2-5.2,0.1c-1.7-0.1-3.5-0.4-5.2-1
		c-1.7-0.6-3.3-1.4-4.8-2.3C161.5,206.6,160.7,206,159.9,205.4 M160,202c1.1,1.1,2.3,2.3,3.6,3.2c1.3,1,2.7,1.9,4.2,2.5
		c1.5,0.7,3.1,1.1,4.7,1.3c1.6,0.3,3.3,0.4,5,0.3l0.5,0l-0.4,0.5c-0.2,1.2-0.8,2.1-1.3,3.2c-0.5,1-1,2-1.6,3
		c-1.1,1.9-2.3,3.9-3.7,5.7c-1.4,1.8-2.8,3.6-4.6,5.1c-0.9,0.7-1.9,1.4-3,1.9c-1.1,0.5-2.4,0.8-3.8,0.5c-0.7-0.2-1.4-0.6-1.9-1.1
		c-0.5-0.5-0.8-1.1-1.1-1.7c-0.5-1.2-0.7-2.4-0.9-3.5c-0.3-2.3-0.2-4.6-0.1-6.9c0.3-4.6,1-9,1.9-13.5l0.5-2.5L160,202z"/>
	<path clip-path="url(#SVGID_2_)" fill="none" stroke="#FFFFFF" stroke-width="1.25" stroke-miterlimit="10" d="M481,546.5v66.1
		 M481-99.7v-66.1 M-135.8,546.5v66.1 M-135.8-99.7v-66.1 M495.7,531.8h66.1 M-150.5,531.8h-66.1 M495.7-85h66.1 M-150.5-85h-66.1"
		/>
	<path clip-path="url(#SVGID_2_)" fill="none" stroke="#000000" stroke-width="0.25" stroke-miterlimit="10" d="M481,546.5v66.1
		 M481-99.7v-66.1 M-135.8,546.5v66.1 M-135.8-99.7v-66.1 M495.7,531.8h66.1 M-150.5,531.8h-66.1 M495.7-85h66.1 M-150.5-85h-66.1"
		/>
</g>
</svg>
