<?xml version="1.0" encoding="utf-8"?>
<!-- Generator: Adobe Illustrator 18.1.1, SVG Export Plug-In . SVG Version: 6.00 Build 0)  -->
<!DOCTYPE svg PUBLIC "-//W3C//DTD SVG 1.1//EN" "http://www.w3.org/Graphics/SVG/1.1/DTD/svg11.dtd">
<svg version="1.1" id="Layer_1" xmlns="http://www.w3.org/2000/svg" xmlns:xlink="http://www.w3.org/1999/xlink" x="0px" y="0px"
	 viewBox="0 0 185 45.5" enable-background="new 0 0 185 45.5" xml:space="preserve">
<g>
	<g>
		<polygon fill="#FFFFFF" points="15,23.7 13.9,23.7 13.9,45.5 0,45.5 0,39.8 4.7,0.1 20.5,0.1 23.9,18 24.9,18 28.3,0.1 44.2,0.1 
			48.8,39.8 48.8,45.5 35,45.5 35,23.7 33.9,23.7 30.4,45.5 18.5,45.5 		"/>
	</g>
	<g>
		<polygon fill="#FFFFFF" points="109.2,45.5 95,45.5 95,0.1 125.4,0.1 125.4,5.7 123.2,11.5 109.2,11.5 109.2,18.8 123.2,18.8 
			123.2,30.2 109.2,30.2 		"/>
	</g>
	<g>
		<rect x="129.5" y="0" fill="#FFFFFF" width="14.1" height="45.4"/>
	</g>
	<g>
		<path fill="#FFFFFF" d="M74.2,31.8l0,13.7l15.5,0l0-5.6L83.4,0.1l-23.6,0l-6.3,39.8l0,5.6l15.5,0l0-13.7c0,0-0.3,0-2.7,0
			c-0.7,0-0.6-1.6,0.5-1.9c1.1-0.3,2.1-0.4,2.1-0.4s0-4.6,0-5.8c0-9.7,2.7-14.4,2.7-14.4s2.7,4.7,2.7,14.4l0,5.8c0,0,1,0.1,2.1,0.4
			c1.1,0.3,1.3,1.9,0.5,1.9C74.5,31.8,74.2,31.8,74.2,31.8z"/>
		<path fill="#ED1F24" d="M68.9,26.8c0,0,0-1.8,0-3c0-9.7,2.7-14.4,2.7-14.4s1.1,2,1.9,6.1c0.9,4.4-2,2.4-3.2,4.9
			C69.1,23,68.9,26.8,68.9,26.8z"/>
	</g>
	<g>
		<path fill="#FFFFFF" d="M169.5,31.8l0,13.7l15.5,0l0-5.6L178.6,0L155,0l-6.3,39.8l0,5.6l15.5,0l0-13.7c0,0-0.3,0-2.7,0
			c-0.7,0-0.6-1.6,0.5-1.9c1.1-0.3,2.1-0.4,2.1-0.4s0-4.6,0-5.8c0-9.7,2.7-14.4,2.7-14.4s2.7,4.7,2.7,14.4l0,5.8c0,0,1,0.1,2.1,0.4
			c1.1,0.3,1.3,1.9,0.5,1.9C169.7,31.7,169.5,31.8,169.5,31.8z"/>
		<path fill="#ED1F24" d="M164.1,26.7c0,0,0-1.8,0-3c0-9.7,2.7-14.4,2.7-14.4s1.1,2,1.9,6.1c0.9,4.4-2,2.4-3.2,4.9
			C164.3,23,164.1,26.7,164.1,26.7z"/>
	</g>
</g>
</svg>
