<?xml version="1.0" encoding="utf-8"?>
<!-- Generator: Adobe Illustrator 18.1.1, SVG Export Plug-In . SVG Version: 6.00 Build 0)  -->
<!DOCTYPE svg PUBLIC "-//W3C//DTD SVG 1.1//EN" "http://www.w3.org/Graphics/SVG/1.1/DTD/svg11.dtd">
<svg version="1.1" id="Layer_1" xmlns="http://www.w3.org/2000/svg" xmlns:xlink="http://www.w3.org/1999/xlink" x="0px" y="0px"
	 viewBox="0 208.6 792 194.8" enable-background="new 0 208.6 792 194.8" xml:space="preserve">
<g>
	<g>
		<polygon fill="#FFFFFF" points="64.2,310.1 59.5,310.1 59.5,403.4 0,403.4 0,379 20.1,209 87.8,209 102.3,285.7 106.6,285.7 
			121.2,209 189.2,209 208.9,379 208.9,403.4 149.8,403.4 149.8,310.1 145.1,310.1 130.1,403.4 79.2,403.4 		"/>
	</g>
	<g>
		<polygon fill="#FFFFFF" points="467.5,403.4 406.7,403.4 406.7,209 536.8,209 536.8,233 527.4,257.8 467.5,257.8 467.5,289.1 
			527.4,289.1 527.4,337.9 467.5,337.9 		"/>
	</g>
	<g>
		<rect x="554.4" y="208.6" fill="#FFFFFF" width="60.4" height="194.4"/>
	</g>
	<g>
		<path fill="#FFFFFF" d="M725.6,344.7v58.7H792v-24l-27.4-170.8h-101l-27,170.4v24H703v-58.7c0,0-1.3,0-11.6,0
			c-3,0-2.6-6.8,2.1-8.1c4.7-1.3,9-1.7,9-1.7s0-19.7,0-24.8c0-41.5,11.6-61.6,11.6-61.6s11.6,20.1,11.6,61.6v24.8c0,0,4.3,0.4,9,1.7
			c4.7,1.3,5.6,8.1,2.1,8.1C726.5,344.3,725.6,344.7,725.6,344.7z"/>
	</g>
	<g>
		<path fill="#FFFFFF" d="M317.7,344.7v58.7H384v-24L357,209H256l-27,170.4v24h66.4v-58.7c0,0-1.3,0-11.6,0c-3,0-2.6-6.8,2.1-8.1
			c4.7-1.3,9-1.7,9-1.7s0-19.7,0-24.8c0-41.5,11.6-61.6,11.6-61.6s11.6,20.1,11.6,61.6v24.8c0,0,4.3,0.4,9,1.7
			c4.7,1.3,5.6,8.1,2.1,8.1C318.9,344.7,317.7,344.7,317.7,344.7z"/>
	</g>
</g>
</svg>
