<?xml version="1.0" encoding="utf-8"?>
<!-- Generator: Adobe Illustrator 18.1.1, SVG Export Plug-In . SVG Version: 6.00 Build 0)  -->
<!DOCTYPE svg PUBLIC "-//W3C//DTD SVG 1.1//EN" "http://www.w3.org/Graphics/SVG/1.1/DTD/svg11.dtd">
<svg version="1.1" id="Layer_1" xmlns="http://www.w3.org/2000/svg" xmlns:xlink="http://www.w3.org/1999/xlink" x="0px" y="0px"
	 viewBox="0 0 300 400" enable-background="new 0 0 300 400" xml:space="preserve">
<g>
	<defs>
		
			<rect id="SVGID_1_" x="-81.6" y="-36.2" transform="matrix(-0.247 0.969 -0.969 -0.247 360.1427 96.2717)" width="448.5" height="448.5"/>
	</defs>
	<clipPath id="SVGID_2_">
		<use xlink:href="#SVGID_1_"  overflow="visible"/>
	</clipPath>
	<path clip-path="url(#SVGID_2_)" fill="#FFFFFF" d="M161.1,186.7l14-9c0,0,6.4-2.9,2.9-7.8s-7.8-8.3-14.8-4.7
		c-7,3.6-12.3,7.3-12.3,7.3"/>
	<path clip-path="url(#SVGID_2_)" fill="#010101" d="M160.9,186.5c0.4-0.6,0.9-1.1,1.5-1.5c0.6-0.4,1.2-0.8,1.7-1.1l3.2-2.8l6.7-5.1
		l0,0l0.4,0.6c1.4-0.7,3-1.5,3.5-2.8c0.3-0.7,0.4-1.2,0.2-1.9c-0.1-0.3-0.2-0.6-0.4-0.9c-0.1-0.2-0.2-0.3-0.3-0.4l-0.4-0.5
		c-1-1.4-2.1-2.6-3.4-3.6c-1.3-1-2.8-1.7-4.4-1.8c-1.6-0.1-3.2,0.2-4.8,0.9c-0.8,0.3-1.5,0.7-2.3,1.1c-0.8,0.4-1.5,0.8-2.3,1.2
		c-3,1.6-6,3.4-8.9,5.2l-0.3-0.4c2.8-2,5.8-3.9,8.7-5.6c0.7-0.4,1.5-0.9,2.3-1.3c0.8-0.4,1.5-0.8,2.3-1.2c1.6-0.7,3.4-1.2,5.3-1.1
		c1.9,0.1,3.6,0.9,5.1,2c1.5,1.1,2.7,2.4,3.7,3.8l0.4,0.5c0.1,0.2,0.3,0.4,0.4,0.6c0.2,0.4,0.5,0.9,0.6,1.3c0.3,1,0.3,2.1-0.1,3
		c-0.4,0.9-1,1.7-1.7,2.3c-0.7,0.6-1.5,1.1-2.3,1.6l0.1-0.1l-7,4.5l-3.5,2.2c-0.6,0.4-1.2,0.8-1.8,1.1c-0.6,0.3-1.3,0.6-2,0.7
		L160.9,186.5z"/>
	<path clip-path="url(#SVGID_2_)" fill="#FFFFFF" d="M132,204.6c0,0-17.5,10.7-19.3,11.5c-1.8,0.8-4.7,0.6-6.1-3.6
		c-1.5-4.2-3.7-9,3.9-15.2c7.6-6.3,13.4-9.3,13.4-9.3"/>
	<path clip-path="url(#SVGID_2_)" fill="#010101" d="M132.2,204.8c-4.4,3.1-8.8,6.1-13.4,8.9c-1.1,0.7-2.3,1.4-3.4,2.1
		c-0.6,0.3-1.2,0.7-1.8,1c-0.7,0.4-1.5,0.6-2.4,0.7c-0.8,0-1.7-0.1-2.5-0.5c-0.8-0.4-1.4-1-1.9-1.6c-0.5-0.6-0.8-1.3-1.1-2
		c-0.1-0.2-0.1-0.3-0.2-0.5l-0.2-0.5l-0.3-1c-0.4-1.3-0.9-2.7-1-4.1c-0.1-1.5,0.1-3,0.7-4.4c0.6-1.4,1.4-2.6,2.3-3.6
		c0.9-1.1,2-2,3.1-2.8c2.1-1.7,4.3-3.2,6.6-4.7c2.3-1.5,4.6-2.8,7-4l0.2,0.5c-4.5,2.8-8.8,6.1-12.8,9.5c-2,1.7-3.7,3.6-4.6,5.9
		c-0.4,1.1-0.6,2.3-0.4,3.5c0.1,1.2,0.5,2.4,0.9,3.6l0.3,0.9l0.2,0.5c0.1,0.1,0.1,0.3,0.2,0.4c0.2,0.6,0.5,1.1,0.8,1.5
		c0.7,0.9,1.5,1.3,2.5,1.3c0.5,0,1-0.1,1.5-0.4c0.6-0.3,1.1-0.6,1.7-0.9l3.5-2c4.7-2.6,9.3-5.3,14.1-7.7L132.2,204.8z"/>
	<path clip-path="url(#SVGID_2_)" fill="#FFFFFF" d="M164.2,192.2c0,0,26.3,43.1,39.6,66.6c13.2,23.5,32.1,59.7,37.5,68.3
		c5.9,9.4,10.3,15.3,12.3,21.9c2,6.6-2.4,9.9-11.1,15.2c-11.5,7-17.1,6.7-21.4-0.1c-3.7-5.8-11-18.6-11-18.6s-17-28.8-38.5-67.9
		c-21.5-39.1-36.3-68.1-36.3-68.1"/>
	<path clip-path="url(#SVGID_2_)" fill="#010101" d="M164.4,192c9,14.2,17.8,28.5,26.5,42.8c4.4,7.2,8.7,14.4,12.9,21.6
		c4.2,7.3,8.3,14.6,12.3,21.9l12.1,22.1c4,7.4,8,14.7,12.2,22c0.5,0.9,1,1.8,1.6,2.7c0.5,0.9,1.1,1.7,1.6,2.6l3.4,5.3
		c2.3,3.5,4.6,7.1,6.5,11c0.5,1,0.9,2,1.3,3c0.2,0.5,0.4,1,0.5,1.6c0.2,0.6,0.3,1.2,0.4,1.8c0.2,1.2,0.1,2.6-0.2,3.8
		c-0.3,1.3-1,2.4-1.7,3.4c-1.5,1.9-3.3,3.3-5,4.6c-1.8,1.3-3.6,2.4-5.4,3.5c-1.8,1.1-3.7,2.2-5.7,3.1c-2,0.9-4.1,1.7-6.5,2.1
		c-1.2,0.2-2.4,0.2-3.7,0c-1.3-0.2-2.5-0.7-3.6-1.4c-2.2-1.4-3.6-3.4-4.7-5.2c-2.3-3.6-4.4-7.2-6.5-10.8l-6.3-10.9
		c-4.2-7.2-8.4-14.5-12.5-21.8l-6.2-11l-6.1-11c-4.1-7.3-8.1-14.7-12.1-22.1c-4-7.4-7.9-14.8-11.8-22.2l-5.8-11.2l-5.7-11.2
		c-3.8-7.5-7.5-15-11.1-22.6l0.5-0.2c16.1,29.5,32.3,58.8,48.9,87.9l12.5,21.8c4.2,7.3,8.4,14.5,12.6,21.8l6.3,10.9
		c2.1,3.6,4.2,7.2,6.4,10.7l0.4,0.6c0.1,0.2,0.3,0.4,0.4,0.6c0.3,0.4,0.6,0.8,0.9,1.1c0.6,0.7,1.2,1.3,1.9,1.7
		c1.4,0.9,3,1.1,4.8,0.9c1.8-0.3,3.7-0.9,5.5-1.8c1.8-0.8,3.6-1.8,5.4-2.9c1.8-1.1,3.5-2.2,5.2-3.3c1.6-1.2,3.2-2.4,4.3-3.8
		c1.1-1.4,1.5-2.9,1.3-4.6c-0.1-0.4-0.2-0.9-0.3-1.3c-0.1-0.5-0.3-0.9-0.5-1.4c-0.3-0.9-0.7-1.9-1.1-2.8c-1.7-3.6-3.9-7.1-6.2-10.7
		l-3.4-5.3c-0.6-0.9-1.1-1.8-1.7-2.7c-0.5-0.9-1.1-1.8-1.6-2.8c-2.1-3.7-4.1-7.4-6.1-11.1l-5.9-11.1l-11.8-22.2
		c-3.9-7.4-7.9-14.8-12-22.1c-4.1-7.3-8.2-14.6-12.4-21.9c-8.4-14.5-16.9-29-25.4-43.4L164.4,192z"/>
	<path clip-path="url(#SVGID_2_)" fill="#FFFFFF" d="M123.6,185.8c0,0,0.7,6.1,3.1,9.8c2.4,3.7,9.3,15.2,9.3,15.2l29-17.2
		c0,0-6.3-11.3-9-15.3c-2.7-4-7.6-7.7-7.6-7.7l-0.1-0.1c0,0-31.3-51.6-52-87.4C75.8,47.3,42,20,42,20s9.8,44.1,30,79.1
		c20.2,35.1,51.8,87.2,51.8,87.2"/>
	<path clip-path="url(#SVGID_2_)" fill="#010101" d="M123.9,185.8c0.4,2.2,0.9,4.3,1.8,6.3c0.2,0.5,0.4,1,0.7,1.4
		c0.1,0.2,0.3,0.4,0.4,0.7c0.1,0.2,0.3,0.4,0.5,0.7c0.6,0.9,1.3,1.8,1.9,2.8c1.2,1.9,2.4,3.7,3.6,5.6c0.6,0.9,1.2,1.9,1.7,2.8
		c0.5,1,0.9,2,1.1,3.2l-0.4-0.1c2-2.2,4.6-3.3,6.9-4.8c2.4-1.4,4.9-2.8,7.3-4.2c2.4-1.4,4.9-2.8,7.3-4.1c1.2-0.7,2.5-1.4,3.7-2
		c1.2-0.7,2.5-1.3,3.7-2l-0.1,0.4c-1.4-1.8-2.4-3.8-3.5-5.7c-1.1-1.9-2.2-3.9-3.4-5.8c-0.6-1-1.2-1.9-1.8-2.8
		c-0.6-0.9-1.3-1.8-2-2.6c-1.5-1.6-3.2-3.1-5-4.3l0,0l-0.1-0.1c-8.9-12.7-16.5-26.2-24.5-39.4c-7.9-13.3-15.8-26.6-23.5-40
		l-5.8-10.1c-2-3.3-4-6.6-6.2-9.8c-4.3-6.4-9-12.5-14-18.4c-9.9-11.8-20.7-22.9-32.5-33l0.4-0.3c3.8,15,8.6,29.8,14.3,44.2
		c2.8,7.2,5.9,14.3,9.3,21.3c1.7,3.5,3.5,6.9,5.4,10.3c1.9,3.4,3.9,6.7,5.9,10c7.8,13.4,15.8,26.7,23.7,40.1
		c7.9,13.4,16.3,26.4,23.2,40.4l-0.5,0.3c-9.2-12.6-16.8-26.2-24.8-39.5c-7.9-13.4-15.8-26.7-23.6-40.2c-1.9-3.4-3.9-6.7-5.7-10.2
		c-1.9-3.4-3.6-6.9-5.3-10.4c-3.3-7-6.4-14.2-9.1-21.5c-2.8-7.3-5.2-14.7-7.4-22.1c-2.2-7.4-4.3-15-5.9-22.6l-0.2-0.8l0.6,0.5
		c6,4.9,11.7,10.1,17.3,15.6c5.5,5.4,10.8,11.1,15.9,17c5,5.9,9.8,12,14.2,18.4c2.2,3.2,4.3,6.5,6.3,9.8l5.9,10
		c7.8,13.4,15.7,26.7,23.6,39.9c7.9,13.3,16.2,26.4,23.3,40.1l-0.1-0.1c1,0.6,1.9,1.3,2.8,2c0.9,0.7,1.7,1.5,2.5,2.3
		c0.8,0.8,1.5,1.7,2.2,2.7c0.6,0.9,1.2,1.9,1.8,2.8c1.2,1.9,2.3,3.8,3.5,5.8c1.1,1.9,2.3,3.8,3.1,6l0.1,0.3l-0.2,0.1
		c-1.2,0.8-2.4,1.5-3.5,2.3c-1.2,0.8-2.4,1.5-3.6,2.3c-2.4,1.5-4.8,3-7.2,4.5c-2.4,1.5-4.8,2.9-7.2,4.4c-2.4,1.4-4.7,3.1-7.5,3.8
		l-0.2,0l0.1-0.2c-1-0.7-1.9-1.5-2.5-2.4c-0.6-0.9-1.8-1.5-2.4-2.5c-1.2-1.9-2.9-3.5-4-5.4l-1.7-2.9c-0.1-0.2,0.3-0.8,0.1-1.1
		c-0.1-0.3,0-0.7-0.1-1c-0.2-0.5-0.3-1.2-0.5-1.7c-0.7-2.2-1-4.5-0.9-6.8L123.9,185.8z"/>
	<path clip-path="url(#SVGID_2_)" fill="#B72025" d="M89.3,129.9c0,0,5.1-6.4,3.1-12.3c-2-5.9-9.3-8.2-10.7-15.3
		c-0.6-2.9,4.9-6.4,2.5-16.8c-2.7-12-14.8-9.1-17.2-20.3c-2.4-11.3,1.6-12.3-2.9-21.7c-3.7-7.9-7.6-10.1-11.3-13.4L42,20.1
		c0,0,7,31.5,17.4,53.4C69.8,95.3,89.3,129.9,89.3,129.9"/>
	<polygon clip-path="url(#SVGID_2_)" fill="#010101" points="208.7,343.6 240.8,324.5 163.2,190.6 134.3,207.8 	"/>
	<path clip-path="url(#SVGID_2_)" fill="#010101" d="M50.2,33.9c5.6,8.5,11,17.2,16.3,25.8l4,6.5l3.9,6.5c2.6,4.3,5.2,8.7,7.8,13.1
		c5.2,8.7,10.3,17.5,15.4,26.4c5,8.9,9.9,17.8,14.6,26.8c-5.7-8.5-11.1-17.1-16.4-25.8c-5.3-8.7-10.6-17.4-15.7-26.2
		c-2.6-4.4-5.1-8.8-7.7-13.2l-3.8-6.6l-3.8-6.6C59.9,51.8,54.9,42.9,50.2,33.9"/>
	<path clip-path="url(#SVGID_2_)" fill="#010101" d="M210.3,344c1.3-1.4,4.6-3.5,7.1-5.1c1.3-0.8,2.5-1.4,3.7-2.2
		c1.3-0.8,2.5-1.5,3.8-2.2c2.6-1.5,5.3-3,7.9-4.4c2.6-1.5,6.4-3.5,8-4.2l0.3,0.5c-1.4,1.1-5.1,3.4-7.6,5c-2.5,1.6-5.1,3.2-7.7,4.8
		c-1.3,0.8-2.6,1.6-3.9,2.4c-1.3,0.8-2.3,1.4-3.6,2.1c-2.6,1.5-6.1,3.4-7.8,3.8L210.3,344z"/>
	<path clip-path="url(#SVGID_2_)" fill="#FFFFFF" d="M215.8,319.1c2.3-1.3,5.2-0.6,6.5,1.7c1.3,2.3,0.6,5.2-1.7,6.5
		c-2.3,1.3-5.2,0.6-6.5-1.7C212.8,323.4,213.5,320.5,215.8,319.1"/>
	<path clip-path="url(#SVGID_2_)" fill="#010101" d="M222.5,320.7c1.4,2.4,0.6,5.5-1.8,6.9c-2.4,1.4-5.5,0.6-6.9-1.8
		c-1.4-2.4-0.6-5.5,1.8-6.9C218,317.5,221.1,318.3,222.5,320.7 M214.3,325.5c1.3,2.1,4,2.8,6.2,1.6c2.1-1.3,2.8-4,1.6-6.2
		c-1.3-2.1-4-2.8-6.2-1.6C213.8,320.6,213.1,323.4,214.3,325.5"/>
	<path clip-path="url(#SVGID_2_)" fill="#FFFFFF" d="M153.6,208.7c2.1-1.3,4.9-0.6,6.2,1.6c1.3,2.1,0.6,4.9-1.6,6.2
		c-2.1,1.3-4.9,0.6-6.2-1.6C150.7,212.7,151.4,210,153.6,208.7"/>
	<path clip-path="url(#SVGID_2_)" fill="#010101" d="M160,210.1c1.3,2.3,0.6,5.2-1.7,6.5c-2.3,1.3-5.2,0.6-6.5-1.7
		c-1.3-2.3-0.6-5.2,1.7-6.5C155.7,207.1,158.6,207.9,160,210.1 M152.2,214.7c1.2,2,3.8,2.7,5.8,1.5c2-1.2,2.7-3.8,1.5-5.8
		c-1.2-2-3.8-2.7-5.8-1.5C151.7,210.1,151.1,212.7,152.2,214.7"/>
	<path clip-path="url(#SVGID_2_)" fill="#010101" d="M126,184.5c1.3-1.3,2.9-2.1,5-3.4l5.8-3.4c4.2-2.4,7.5-4.3,12.2-6.9l0.3,0.5
		c-4.5,2.9-8.3,5.2-12.4,7.7l-5.2,3.1c-2.1,1.2-3.6,2.3-5.4,2.8L126,184.5z"/>
</g>
</svg>
